<?xml version="1.0" standalone="no"?>
<!DOCTYPE svg PUBLIC "-//W3C//DTD SVG 1.1//EN" "http://www.w3.org/Graphics/SVG/1.1/DTD/svg11.dtd" >
<svg xmlns="http://www.w3.org/2000/svg">
<metadata></metadata>
<defs>
<font id="reykjavikone_ot_cgaugecgauge" horiz-adv-x="1087" >
<font-face units-per-em="2048" ascent="1536" descent="-512" />
<missing-glyph horiz-adv-x="395" />
<glyph horiz-adv-x="2048" />
<glyph horiz-adv-x="2048" />
<glyph unicode="&#xd;" horiz-adv-x="2048" />
<glyph unicode=" "  horiz-adv-x="395" />
<glyph unicode="&#x09;" horiz-adv-x="395" />
<glyph unicode="&#xa0;" horiz-adv-x="395" />
<glyph unicode="!" horiz-adv-x="483" d="M113 1298h260l-56 -847h-151zM129 0v279h225v-279h-225z" />
<glyph unicode="&#x22;" horiz-adv-x="776" d="M88 1243h250l-51 -528h-148zM438 1243h250l-53 -528h-146z" />
<glyph unicode="#" horiz-adv-x="1079" d="M53 322l25 137h186l33 205h-201l23 135h198l50 323h180l-49 -323h161l50 323h180l-49 -323h186l-20 -135h-187l-31 -205h195l-22 -137h-195l-49 -322h-178l49 322h-164l-51 -322h-178l49 322h-191zM442 459h168l31 205h-166z" />
<glyph unicode="$" horiz-adv-x="942" d="M84 143l53 170q143 -90 303 -90q91 0 139 27t48 100v21q0 35 -13 63.5t-30.5 46.5t-52 35t-59 26t-69.5 24l-6 1.5t-5 1.5t-5 2q-52 18 -84.5 31t-75 38.5t-66.5 54.5t-41.5 74.5t-17.5 102.5v27q0 136 71 200t196 79v219h190v-219q126 -14 225 -54l-28 -174 q-156 54 -275 54q-84 0 -123 -20.5t-39 -80.5v-18q0 -20 10 -37.5t23 -28.5t41 -24t47 -19.5t58 -19.5q43 -13 69.5 -22.5t67.5 -27.5t67 -36t56.5 -47t48 -61.5t29.5 -78t12 -98.5v-29q0 -134 -76.5 -208t-212.5 -95v-233h-190v229q-154 16 -285 94z" />
<glyph unicode="%" horiz-adv-x="1464" d="M104 850v104q0 48 7.5 91.5t26 84t46.5 70t71 47t97 17.5q67 0 117 -26.5t78 -71.5t41.5 -98t13.5 -114v-104q0 -61 -13.5 -114t-41.5 -98t-78 -71t-117 -26q-54 0 -97 17.5t-71 46.5t-46.5 69.5t-26 84t-7.5 91.5zM266 840q0 -74 23 -112t63 -38t63 38t23 112v125 q0 74 -23 110.5t-63 36.5t-63 -36.5t-23 -110.5v-125zM319 0l637 1243h189l-637 -1243h-189zM862 287v106q0 61 13.5 114t41.5 98t78 71t117 26q54 0 97 -17.5t71 -46.5t46.5 -69.5t26 -84t7.5 -91.5v-106q0 -61 -13 -113.5t-40.5 -97t-77.5 -70.5t-117 -26t-117 26 t-78 70.5t-41.5 97t-13.5 113.5zM1026 279q0 -74 23 -112t63 -38t63 38t23 112v124q0 74 -23 111t-63 37t-63 -37t-23 -111v-124z" />
<glyph unicode="&#x26;" horiz-adv-x="1200" d="M104 354v66q0 102 51.5 181t141.5 128l-31 41q-69 90 -69 199q0 81 25.5 138.5t73 90t109 47.5t140.5 15l243 -15l-16 -182q-178 10 -219 10q-63 0 -90 -25t-27 -83q0 -55 37 -105l344 -448q23 65 23 147v111h202v-119q0 -190 -81 -328l172 -223h-279l-47 61 q-119 -79 -272 -79q-431 0 -431 372zM346 352q0 -186 189 -186q92 0 157 47l-268 350q-78 -45 -78 -143v-68z" />
<glyph unicode="'" horiz-adv-x="425" d="M88 1243h250l-51 -528h-148z" />
<glyph unicode="(" horiz-adv-x="638" d="M135 586q0 124 26 250.5t63 218.5t74 166.5t63 112.5l26 38h199q-9 -14 -24 -40.5t-53 -111t-67 -172t-53 -214.5t-24 -248t23 -246.5t55.5 -218.5t64.5 -168.5t55 -114.5l23 -39h-199q-10 14 -27 40t-60.5 109.5t-77 170.5t-60.5 215t-27 252z" />
<glyph unicode=")" horiz-adv-x="638" d="M53 -201q9 14 24 40.5t53 111.5t67 172t53 214.5t24 248.5t-23 246.5t-55.5 218t-64.5 168t-55 114.5l-23 39h199q10 -14 27 -40t60.5 -109t77 -170t60.5 -215t27 -252t-26 -250.5t-63 -218.5t-74 -167t-63 -113l-26 -38h-199z" />
<glyph unicode="*" horiz-adv-x="845" d="M53 924l49 157l267 -112l-25 284h160l-19 -284l258 112l50 -157l-271 -66l180 -215l-133 -98l-143 239l-150 -239l-133 98l187 215z" />
<glyph unicode="+" horiz-adv-x="888" d="M74 451v165h286v308h168v-308h287v-165h-287v-308h-168v308h-286z" />
<glyph unicode="," horiz-adv-x="411" d="M90 0v276h234v-249l-127 -334h-103l70 307h-74z" />
<glyph unicode="-" horiz-adv-x="626" d="M94 420v207h438v-207h-438z" />
<glyph unicode="." horiz-adv-x="411" d="M92 0v276h227v-276h-227z" />
<glyph unicode="/" horiz-adv-x="661" d="M23 -41l399 1296h217l-399 -1296h-217z" />
<glyph unicode="0" horiz-adv-x="1030" d="M92 485v267q0 81 12 150.5t42 136.5t76.5 114t121 75.5t170.5 28.5t170.5 -28.5t121.5 -75.5t77.5 -113.5t42.5 -137t12 -150.5v-267q0 -80 -12 -150.5t-42.5 -137t-77.5 -113.5t-121.5 -75.5t-170.5 -28.5t-170.5 28.5t-121 75.5t-76.5 114t-42 136.5t-12 150.5z M348 483q0 -52 3 -91t13 -80t27.5 -67.5t48.5 -43.5t74 -17q53 0 88 24t51.5 69.5t22.5 92.5t6 113v271q0 66 -6 113t-22.5 92.5t-51.5 69.5t-88 24q-43 0 -74 -17t-48.5 -43.5t-27.5 -67.5t-13 -80t-3 -91v-271z" />
<glyph unicode="1" horiz-adv-x="1030" d="M119 0v190h284v844h-243v148l377 75h125v-1067h249v-190h-792z" />
<glyph unicode="2" horiz-adv-x="1030" d="M100 154q0 133 58 254.5t164 216.5q26 24 87.5 66t109 75t86 78.5t38.5 85.5v20q0 63 -35 88t-123 25q-65 0 -141.5 -22.5t-134.5 -55.5l-72 156q63 51 160 83.5t192 32.5q96 0 168 -16t126.5 -51t83 -95.5t28.5 -146.5v-26q0 -65 -22 -118.5t-65.5 -97t-84 -74 t-101 -71.5t-94.5 -69q-161 -132 -161 -293v-9h538v-190h-794q-11 104 -11 154z" />
<glyph unicode="3" horiz-adv-x="1030" d="M57 92l62 164q174 -82 321 -82q99 0 153 37.5t54 134.5v33q0 92 -53.5 138t-132.5 46h-193v191h135q79 0 128 38t49 123v31q0 72 -47 97.5t-140 25.5q-101 0 -260 -31l-27 174q142 45 318 45q416 0 416 -307v-28q0 -148 -117 -236q85 -42 134.5 -122t49.5 -185v-33 q0 -79 -25 -142t-67.5 -104t-102.5 -68t-127 -38.5t-145 -11.5q-93 0 -200.5 30t-182.5 80z" />
<glyph unicode="4" horiz-adv-x="1030" d="M45 270v154l479 813h307v-776h148v-191h-148v-270h-241v270h-545zM319 461h271v500z" />
<glyph unicode="5" horiz-adv-x="1030" d="M70 51l43 182q152 -61 327 -61q215 0 215 203v35q0 114 -55.5 156t-191.5 42h-275l98 629h590v-190h-385l-37 -244h47q232 0 352 -97t120 -292v-35q0 -83 -28.5 -154t-85.5 -126t-150 -86t-214 -31q-100 0 -201 18.5t-169 50.5z" />
<glyph unicode="6" horiz-adv-x="1030" d="M104 428q0 191 83 416t219 393h303q-101 -120 -166.5 -225t-118.5 -246q54 25 121 25q195 0 296 -96.5t101 -276.5v-49q0 -105 -33 -182t-93 -120.5t-135.5 -64t-170.5 -20.5q-188 0 -297 109.5t-109 336.5zM358 395q0 -38 2.5 -66.5t12 -59.5t25 -51t44 -33t66.5 -13 q176 0 176 197v49q0 99 -37.5 141.5t-118.5 42.5q-95 0 -132.5 -53t-37.5 -154z" />
<glyph unicode="7" horiz-adv-x="1030" d="M86 1047v190h815v-104l-438 -1133h-273l412 1047h-516z" />
<glyph unicode="8" horiz-adv-x="1030" d="M86 362v44q0 98 47.5 177t120.5 119q-115 78 -115 211v41q0 81 30.5 141t84 94.5t118.5 51t142 16.5t142 -16.5t118.5 -51t84 -94.5t30.5 -141v-41q0 -134 -113 -211q73 -40 120.5 -119t47.5 -177v-44q0 -380 -430 -380q-428 0 -428 380zM346 362q0 -106 36.5 -149 t131.5 -43q96 0 133 43t37 149v44q0 100 -43 146t-127 46t-126 -46t-42 -146v-44zM399 907q0 -77 29 -106t86 -29q58 0 87.5 29t29.5 106v45q0 64 -26 92.5t-91 28.5q-64 0 -89.5 -28t-25.5 -93v-45z" />
<glyph unicode="9" horiz-adv-x="1030" d="M88 819v49q0 105 32.5 182t92.5 120.5t135 64t170 20.5q188 0 298 -109.5t110 -336.5q0 -192 -82.5 -416.5t-218.5 -392.5h-303q100 120 165.5 225t118.5 246q-58 -27 -121 -27q-195 0 -296 97.5t-101 277.5zM346 819q0 -99 37.5 -141.5t118.5 -42.5q95 0 132.5 52.5 t37.5 152.5q0 48 -5.5 83t-20.5 70t-46.5 53.5t-79.5 18.5q-93 0 -133.5 -50.5t-40.5 -146.5v-49z" />
<glyph unicode=":" horiz-adv-x="432" d="M102 0v276h228v-276h-228zM102 610v279h228v-279h-228z" />
<glyph unicode=";" horiz-adv-x="432" d="M100 0v276h234v-249l-127 -334h-103l70 307h-74zM102 610v279h230v-279h-230z" />
<glyph unicode="&#x3c;" horiz-adv-x="649" d="M33 477l502 502v-248l-254 -254l254 -254v-248z" />
<glyph unicode="=" horiz-adv-x="813" d="M94 283v166h625v-166h-625zM94 618v166h625v-166h-625z" />
<glyph unicode="&#x3e;" horiz-adv-x="649" d="M115 -25v248l254 254l-254 254v248l501 -502z" />
<glyph unicode="?" horiz-adv-x="765" d="M23 1247q44 22 146 41t175 19q80 0 146 -14t119.5 -43t83.5 -80t30 -119q0 -57 -25.5 -109t-63.5 -89t-83 -77.5t-83 -76t-63.5 -83.5t-25.5 -100q0 -56 10 -108h-176q-27 79 -27 167q0 69 25.5 129t61.5 101.5t72 77t61.5 70.5t25.5 67q0 58 -39 79t-108 21 q-92 0 -236 -39zM197 0v279h225v-279h-225z" />
<glyph unicode="@" horiz-adv-x="1329" d="M115 334q0 99 21 192t63 174.5t101.5 142.5t142 96.5t178.5 35.5h294q354 0 289 -270l-129 -527q-20 -81 -84.5 -120.5t-163.5 -39.5h-133q-66 0 -111.5 23t-65.5 62t-25 90.5t10 107.5l22 96q33 145 119.5 205t249.5 60h72l10 36q15 67 -5.5 92t-97.5 25h-221 q-101 0 -178.5 -78.5t-114 -189.5t-36.5 -228q0 -236 96 -353.5t307 -117.5q210 0 393 82l23 -151q-152 -96 -463 -96q-146 0 -255.5 47t-176 134.5t-99 204.5t-32.5 265zM692 197.5q13 -25.5 66 -25.5h86l86 342h-58q-61 0 -96 -25t-51 -92l-31 -123q-15 -51 -2 -76.5z" />
<glyph unicode="A" horiz-adv-x="997" d="M12 0l355 1237h266l352 -1237h-264l-74 272h-336l-73 -272h-226zM354 457h250l-123 479h-6z" />
<glyph unicode="B" horiz-adv-x="1056" d="M125 0v1237h430q161 0 258.5 -77t97.5 -204v-43q0 -158 -143 -249q97 -38 148 -112t51 -173v-55q0 -141 -110.5 -232.5t-287.5 -91.5h-444zM383 190h123q196 0 196 140v55q0 164 -221 164h-98v-359zM383 741h80q89 0 137.5 42t48.5 104v43q0 62 -39.5 89.5t-122.5 27.5 h-104v-306z" />
<glyph unicode="C" horiz-adv-x="993" d="M115 408v442q0 114 31 195t89.5 126.5t131.5 65.5t168 20q106 0 212.5 -30t180.5 -66l-66 -180q-184 74 -311 74q-102 0 -140 -44t-38 -165v-438q0 -116 43 -169t141 -53q158 0 344 125l39 -182q-31 -28 -80.5 -58t-142 -59.5t-187.5 -29.5q-88 0 -159 21t-130.5 67.5 t-92.5 132.5t-33 205z" />
<glyph unicode="D" horiz-adv-x="1089" d="M125 0v1237h412q438 0 438 -410v-397q0 -96 -23.5 -171t-63.5 -123t-96.5 -79.5t-118 -44t-132.5 -12.5h-416zM381 190h143q195 0 195 228v424q0 118 -42 161.5t-147 43.5h-149v-857z" />
<glyph unicode="E" horiz-adv-x="925" d="M125 0v1237h715v-190h-459v-304h377v-192h-377v-361h481v-190h-737z" />
<glyph unicode="F" horiz-adv-x="872" d="M125 0v1237h715v-190h-459v-297h377v-191h-377v-559h-256z" />
<glyph unicode="G" horiz-adv-x="1089" d="M115 408v442q0 114 30.5 195t88.5 126.5t131 65.5t167 20q106 0 213 -30t181 -66l-66 -180q-184 74 -311 74q-102 0 -140 -44t-38 -165v-438q0 -116 43 -169t141 -53q104 0 164 9v319h-182v191h428v-705h-191q-102 -18 -246 -18q-70 0 -128.5 12.5t-112 43t-91 78 t-59.5 122t-22 170.5z" />
<glyph unicode="H" horiz-adv-x="1122" d="M125 0v1237h256v-487h362v487h254v-1237h-254v559h-362v-559h-256z" />
<glyph unicode="I" horiz-adv-x="806" d="M53 0v186h221v865h-221v186h701v-186h-224v-865h224v-186h-701z" />
<glyph unicode="J" horiz-adv-x="833" d="M16 47l37 191q48 -18 137.5 -35t147.5 -17q117 0 117 129v736h-275v186h531v-928q0 -167 -88 -247t-244 -80q-90 0 -196 20t-167 45z" />
<glyph unicode="K" horiz-adv-x="1032" d="M125 0v1237h256v-467l313 467h291l-412 -569l486 -668h-305l-373 528v-528h-256z" />
<glyph unicode="L" horiz-adv-x="878" d="M125 0v1237h256v-1047h461v-190h-717z" />
<glyph unicode="M" horiz-adv-x="1382" d="M125 0v1237h285l280 -893l287 893h280v-1237h-247v813l-265 -813h-153l-252 795v-795h-215z" />
<glyph unicode="N" horiz-adv-x="1120" d="M125 0v1237h207l454 -778v778h209v-1237h-223l-438 758v-758h-209z" />
<glyph unicode="O" d="M115 387v463q0 407 428 407q430 0 430 -407v-463q0 -405 -430 -405q-428 0 -428 405zM371 387q0 -115 39.5 -158t132.5 -43t133.5 43t40.5 158v463q0 115 -40.5 159t-133.5 44q-92 0 -132 -44t-40 -159v-463z" />
<glyph unicode="P" horiz-adv-x="1034" d="M125 0v1237h397q97 0 171.5 -17.5t137.5 -59.5t96.5 -120t33.5 -190v-33q0 -94 -24.5 -166.5t-64 -117t-97 -73t-118 -39.5t-131.5 -11h-145v-410h-256zM381 600h129q195 0 195 215v37q0 113 -44 154t-145 41h-135v-447z" />
<glyph unicode="Q" d="M115 387v463q0 407 428 407q430 0 430 -407v-463q0 -295 -230 -375l201 -352h-270l-166 322q-87 4 -155 26t-123.5 67.5t-85 124t-29.5 187.5zM371 387q0 -115 39.5 -158t132.5 -43t133.5 43t40.5 158v463q0 115 -40.5 159t-133.5 44q-92 0 -132 -44t-40 -159v-463z" />
<glyph unicode="R" horiz-adv-x="1077" d="M125 0v1237h391q68 0 127 -8t120 -30.5t104 -58.5t70.5 -96.5t27.5 -140.5v-22q0 -237 -199 -322l250 -559h-287l-215 516h-133v-516h-256zM381 707h125q102 0 152.5 39t50.5 126v37q0 75 -50 106.5t-149 31.5h-129v-340z" />
<glyph unicode="S" horiz-adv-x="1019" d="M78 92l59 187q69 -44 158 -72.5t178 -28.5q207 0 207 152v16q0 46 -20.5 82t-62 62.5t-81.5 43.5t-102 37q-46 15 -78 28t-72 33t-66.5 44.5t-50.5 57t-35.5 76.5t-11.5 97v35q0 77 22.5 134.5t59.5 91.5t92.5 54.5t111.5 27.5t128 7q70 0 168 -18t174 -47l-33 -193 q-171 60 -305 60q-94 0 -137 -22.5t-43 -90.5v-22q0 -49 50.5 -81t150.5 -65q48 -15 76.5 -25.5t74.5 -30.5t74.5 -40t62.5 -52t53 -68t32.5 -87t13.5 -110v-29q0 -93 -34.5 -162t-97 -110.5t-144 -61.5t-181.5 -20q-97 0 -201.5 29.5t-189.5 80.5z" />
<glyph unicode="T" horiz-adv-x="899" d="M31 1047v190h839v-190h-292v-1047h-256v1047h-291z" />
<glyph unicode="U" d="M125 387v850h256v-850q0 -118 35.5 -159.5t128.5 -41.5t128.5 41.5t35.5 159.5v850h254v-850q0 -114 -31 -195t-89 -125.5t-130.5 -64.5t-167.5 -20q-75 0 -136 12t-115 41t-90.5 74.5t-57.5 115.5t-21 162z" />
<glyph unicode="V" horiz-adv-x="954" d="M12 1237h269l213 -920h6l215 920h227l-332 -1237h-268z" />
<glyph unicode="W" horiz-adv-x="1452" d="M51 1237h256l133 -858l215 858h176l211 -856l140 856h219l-232 -1237h-245l-203 809l-205 -809h-233z" />
<glyph unicode="X" horiz-adv-x="991" d="M2 0l365 623l-336 614h288l195 -375l211 375h240l-336 -573l360 -664h-289l-221 426l-239 -426h-238z" />
<glyph unicode="Y" horiz-adv-x="964" d="M-8 1237h287l231 -473h4l231 473h228l-363 -680v-557h-256v557z" />
<glyph unicode="Z" horiz-adv-x="968" d="M72 0v193l516 845v9h-516v190h813v-188l-520 -850v-9h520v-190h-813z" />
<glyph unicode="[" horiz-adv-x="630" d="M156 -193v1565h432v-133h-213v-1296h213v-136h-432z" />
<glyph unicode="\" horiz-adv-x="661" d="M23 1255h217l399 -1296h-217z" />
<glyph unicode="]" horiz-adv-x="630" d="M43 -66h213v1297h-213v133h432v-1565h-432v135z" />
<glyph unicode="^" horiz-adv-x="909" d="M63 733l318 453h147l318 -453l-146 -96l-245 369l-246 -369z" />
<glyph unicode="_" horiz-adv-x="684" d="M-8 -106h700v-138h-700v138z" />
<glyph unicode="`" horiz-adv-x="768" d="M135 1278h244l131 -270h-156z" />
<glyph unicode="a" horiz-adv-x="901" d="M66 274q0 158 82.5 228.5t252.5 70.5h138v21q0 40 -3.5 61t-17.5 40t-43.5 26.5t-79.5 7.5q-91 0 -213 -27l-26 172q49 12 136.5 22.5t153.5 10.5q161 0 245.5 -73.5t84.5 -221.5v-389l51 -223h-213l-20 86q-42 -48 -107.5 -76t-138.5 -28q-125 0 -203.5 75t-78.5 217z M291 283q0 -58 19.5 -87.5t80.5 -29.5q46 0 86 29.5t62 78.5v148h-119q-71 0 -100 -31.5t-29 -107.5z" />
<glyph unicode="b" horiz-adv-x="950" d="M115 0v1309h237v-451q34 22 87 35.5t98 13.5q150 0 234.5 -97t84.5 -282v-174q0 -106 -29 -181t-82.5 -115.5t-118 -58t-147.5 -17.5q-32 0 -64.5 3t-71 8t-60.5 7h-168zM352 176q52 -8 127 -8q77 0 109.5 41t32.5 145v174q0 96 -23 144.5t-86 48.5q-43 0 -87.5 -18.5 t-72.5 -51.5v-475z" />
<glyph unicode="c" horiz-adv-x="837" d="M94 354v178q0 375 381 375q125 0 293 -71l-29 -174q-168 61 -264 61q-76 0 -109.5 -43.5t-33.5 -147.5v-176q0 -104 33.5 -147t109.5 -43q96 0 264 61l29 -174q-168 -71 -293 -71q-381 0 -381 372z" />
<glyph unicode="d" horiz-adv-x="960" d="M94 358v174q0 375 379 375q57 0 127 -18v420h236v-1086l51 -223h-213l-15 70q-97 -88 -243 -88q-151 0 -236.5 96t-85.5 280zM332 360q0 -96 22.5 -144t85.5 -48q43 0 87.5 18.5t72.5 51.5v467q-77 18 -127 18q-76 0 -108.5 -43t-32.5 -148v-172z" />
<glyph unicode="e" horiz-adv-x="917" d="M94 354v178q0 85 19 150.5t51.5 107.5t80.5 68.5t101.5 37.5t118.5 11q82 0 144.5 -18.5t112 -60t75.5 -116.5t26 -180v-149h-491v-33q0 -94 27.5 -138t109.5 -44q205 0 330 25l14 -168q-194 -43 -344 -43q-82 0 -146.5 18t-118 58.5t-82 115t-28.5 180.5zM332 528h262 v25q0 88 -24 129t-105 41t-107 -41.5t-26 -128.5v-25z" />
<glyph unicode="f" horiz-adv-x="673" d="M43 702v187h102q-8 145 -8 172q0 264 291 264q101 0 238 -43l-33 -164q-90 25 -182 25q-38 0 -56 -19.5t-18 -64.5l10 -170h238v-187h-230v-702h-237v702h-115z" />
<glyph unicode="g" horiz-adv-x="950" d="M94 358v174q0 375 379 375q67 0 264 -24l101 -13v-1013q0 -136 -83.5 -201.5t-236.5 -65.5q-79 0 -188.5 18.5t-186.5 41.5l39 172q54 -15 157 -32t163 -17q98 0 98 92v166q-79 -49 -184 -49q-151 0 -236.5 96t-85.5 280zM332 360q0 -96 22.5 -144t85.5 -48 q43 0 87.5 18.5t72.5 51.5v473q-65 10 -127 10q-76 0 -108.5 -42.5t-32.5 -146.5v-172z" />
<glyph unicode="h" horiz-adv-x="968" d="M115 0v1307h237v-449q76 49 205 49q149 0 225 -83t76 -267v-557h-237v555q0 83 -21.5 124.5t-85.5 41.5q-45 0 -89.5 -18t-72.5 -52v-651h-237z" />
<glyph unicode="i" horiz-adv-x="489" d="M125 1042v265h242v-265h-242zM127 0v889h238v-889h-238z" />
<glyph unicode="j" horiz-adv-x="489" d="M-94 -383q22 156 24 172q68 -14 127 -14q74 0 74 80v1034h238v-1041q0 -258 -283 -258q-72 0 -180 27zM129 1042v265h242v-265h-242z" />
<glyph unicode="k" horiz-adv-x="858" d="M115 0v1307h237v-713l207 295h272l-309 -400l365 -489h-289l-246 365v-365h-237z" />
<glyph unicode="l" horiz-adv-x="485" d="M125 0v1307h237v-1307h-237z" />
<glyph unicode="m" horiz-adv-x="1366" d="M74 889h213l12 -62q89 80 223 80q150 0 215 -88q88 88 236 88q146 0 213 -81.5t67 -268.5v-557h-229v559q0 85 -18.5 124.5t-75.5 39.5q-71 0 -125 -70v-653h-232v559q0 34 -1.5 56t-6.5 44.5t-14.5 35t-26.5 20.5t-41 8q-75 0 -129 -70v-653h-231v666z" />
<glyph unicode="n" horiz-adv-x="976" d="M74 889h213l14 -66q103 84 264 84q149 0 225 -83t76 -267v-557h-235v555q0 83 -22.5 124.5t-86.5 41.5q-45 0 -89.5 -18t-72.5 -52v-651h-237v666z" />
<glyph unicode="o" horiz-adv-x="927" d="M94 354v178q0 85 19 150.5t51.5 107.5t80.5 68.5t101.5 37.5t118.5 11q82 0 145.5 -18t115.5 -59.5t80 -116.5t28 -181v-178q0 -85 -19 -150t-51 -106.5t-80 -68t-101 -37t-118 -10.5q-82 0 -146 18t-116.5 58.5t-80.5 115t-28 180.5zM332 356q0 -96 26.5 -142t106.5 -46 t106.5 46t26.5 142v176q0 96 -26.5 143.5t-106.5 47.5t-106.5 -47.5t-26.5 -143.5v-176z" />
<glyph unicode="p" horiz-adv-x="960" d="M74 889h213l14 -70q97 88 244 88q151 0 236 -96.5t85 -280.5v-174q0 -374 -379 -374q-57 0 -127 18v-410h-237v1076zM360 184q69 -16 127 -16q76 0 109 42t33 146v172q0 96 -23 144.5t-86 48.5q-43 0 -87.5 -18.5t-72.5 -51.5v-467z" />
<glyph unicode="q" horiz-adv-x="952" d="M94 358v174q0 375 379 375q69 0 266 -24l99 -13v-1280h-238v441q-79 -49 -184 -49q-151 0 -236.5 96t-85.5 280zM332 360q0 -96 22.5 -144t85.5 -48q44 0 88 18t72 52v473q-65 10 -127 10q-76 0 -108.5 -42.5t-32.5 -146.5v-172z" />
<glyph unicode="r" horiz-adv-x="806" d="M74 889h213l22 -105q42 52 104.5 87.5t129.5 35.5q108 0 168 -54t80 -167l-222 -41q-8 38 -24 57t-47 19q-41 0 -79.5 -34.5t-58.5 -82.5v-604h-237v664z" />
<glyph unicode="s" horiz-adv-x="819" d="M68 63l34 166q63 -33 140 -54t143 -21q141 0 141 92v8q0 26 -14 48t-40 37.5t-50 25.5t-57 20q-126 39 -172 66q-106 65 -107 190v14q0 67 24.5 116.5t69.5 78.5t103 43t129 14q130 0 286 -57l-36 -166q-143 53 -259 53q-54 0 -78 -15t-24 -50v-13q0 -21 14 -37t41.5 -28 t54.5 -21t66 -21t64 -22q91 -37 144.5 -93t53.5 -154v-27q0 -274 -354 -274q-78 0 -165.5 22t-151.5 59z" />
<glyph unicode="t" horiz-adv-x="702" d="M23 702v187h122v196l238 70v-266h258v-187h-258v-466q0 -30 16 -42t50 -12q21 0 71 5l90 9l39 5l31 -178q-176 -31 -318 -31q-119 0 -168 60.5t-49 178.5v471h-122z" />
<glyph unicode="u" horiz-adv-x="970" d="M104 332v557h238v-555q0 -83 21.5 -124.5t85.5 -41.5q45 0 89 18t72 52v651h238v-666l49 -223h-213l-14 66q-103 -84 -260 -84q-151 0 -228.5 83t-77.5 267z" />
<glyph unicode="v" horiz-adv-x="804" d="M4 889h242l176 -586h4l162 586h213l-295 -889h-205z" />
<glyph unicode="w" horiz-adv-x="1165" d="M41 889h233l99 -545l145 545h176l146 -535l96 535h188l-198 -889h-183l-159 571l-162 -571h-182z" />
<glyph unicode="x" horiz-adv-x="841" d="M8 0l285 457l-240 432h271l118 -242l131 242h218l-246 -402l276 -487h-270l-158 303l-168 -303h-217z" />
<glyph unicode="y" horiz-adv-x="804" d="M-53 -342l41 164q97 -37 172 -37q56 0 71 47l66 191l-295 866h248l172 -572h4l158 572h215l-293 -889l-90 -250q-28 -75 -83 -107t-159 -32q-117 0 -227 47z" />
<glyph unicode="z" horiz-adv-x="856" d="M74 0v180l401 522h-389v187h674v-182l-400 -523h412v-184h-698z" />
<glyph unicode="{" horiz-adv-x="698" d="M23 508v162h32q105 0 140.5 45.5t35.5 167.5v168q0 212 121 278q45 25 89.5 34t125.5 9h68l10 -127h-37q-91 0 -121 -45t-30 -151v-218q0 -115 -47 -165.5t-156 -75.5q108 -25 155.5 -76.5t47.5 -165.5v-219q0 -106 29.5 -150.5t121.5 -44.5h37l-10 -127h-68 q-81 0 -125.5 9t-89.5 34q-121 66 -121 277v170q0 122 -35.5 167.5t-140.5 45.5q-4 0 -16 -1t-16 -1z" />
<glyph unicode="|" horiz-adv-x="567" d="M176 -201v1573h215v-1573h-215z" />
<glyph unicode="}" horiz-adv-x="698" d="M53 -66h37q92 0 122 44.5t30 150.5v219q0 114 47 166t155 76q-109 25 -155.5 75.5t-46.5 165.5v218q0 106 -30 151t-122 45h-37l10 127h68q81 0 124.5 -9t88.5 -34q121 -66 121 -278v-168q0 -122 35.5 -167.5t140.5 -45.5h35v-162q-4 0 -17.5 1t-17.5 1 q-105 0 -140.5 -45.5t-35.5 -167.5v-170q0 -211 -121 -277q-45 -25 -88.5 -34t-124.5 -9h-68z" />
<glyph unicode="~" horiz-adv-x="937" d="M74 532v97q0 105 53 170t139 65q69 0 148.5 -36t143.5 -71.5t95 -35.5q56 0 56 80v45h155v-96q0 -105 -52 -170.5t-138 -65.5q-69 0 -148.5 36t-143.5 71.5t-95 35.5q-58 0 -58 -77v-48h-155z" />
<glyph unicode="&#xa1;" horiz-adv-x="493" d="M117 -385l55 852h152l53 -852h-260zM135 641v279h223v-279h-223z" />
<glyph unicode="&#xa2;" horiz-adv-x="856" d="M94 530v179q0 314 268 364v215h189v-211q98 -15 217 -65l-29 -174q-168 61 -264 61q-76 0 -109.5 -43t-33.5 -147v-177q0 -104 33.5 -147t109.5 -43q96 0 264 61l29 -174q-119 -50 -217 -65v-221h-189v225q-268 50 -268 362z" />
<glyph unicode="&#xa3;" horiz-adv-x="1009" d="M80 0v193h121v362h-121v190h121v105q0 114 31 195t89.5 126.5t131.5 65.5t168 20q142 0 309 -65l-56 -186q-144 49 -237 49q-102 0 -140 -44t-38 -165v-101h268v-190h-268v-365h479v-190h-858z" />
<glyph unicode="&#xa4;" horiz-adv-x="1054" d="M53 418v151h131v113h-131v152h131v20q0 114 31 194.5t90 125t131.5 64t167.5 19.5q106 0 212.5 -30t180.5 -66l-65 -180q-184 74 -311 74q-103 0 -141 -42.5t-38 -162.5v-16h310v-152h-310v-113h310v-151h-310v-15q0 -115 43 -166t142 -51q160 0 346 125l39 -182 q-31 -28 -81 -58t-143 -59.5t-188 -29.5q-416 0 -416 421v15h-131z" />
<glyph unicode="&#xa5;" horiz-adv-x="1056" d="M23 1237h288l244 -463h4l246 463h229l-344 -621h281v-180h-314v-436h-258v436h-313v180h281z" />
<glyph unicode="&#xa6;" horiz-adv-x="567" d="M176 -201v672h215v-672h-215zM176 700v672h215v-672h-215z" />
<glyph unicode="&#xa7;" horiz-adv-x="1024" />
<glyph unicode="&#xa8;" horiz-adv-x="768" d="M100 1018v270h203v-270h-203zM465 1018v270h203v-270h-203z" />
<glyph unicode="&#xa9;" horiz-adv-x="1484" d="M104 614q0 130 51 249t137.5 204.5t206 136.5t249.5 51q174 0 321.5 -86t233.5 -233.5t86 -321.5t-86 -322t-233.5 -234.5t-321.5 -86.5t-322.5 86.5t-235 234.5t-86.5 322zM240 614q0 -140 67.5 -260t184.5 -190t256 -70q104 0 198 41.5t161.5 111.5t107.5 166t40 201 q0 141 -67 260t-184 189t-256 70t-256 -70t-184.5 -189.5t-67.5 -259.5zM453 498v250q0 150 75.5 213t210.5 63q132 0 267 -66l-43 -122q-122 51 -211 51q-70 0 -96.5 -30.5t-26.5 -113.5v-245q0 -78 29.5 -115t97.5 -37q105 0 235 86l25 -123q-40 -35 -113.5 -68.5 t-165.5 -33.5q-60 0 -109 14.5t-89.5 46.5t-63 90.5t-22.5 139.5z" />
<glyph unicode="&#xaa;" horiz-adv-x="808" d="M94 754q0 127 66 183t202 56h107v19q0 32 -2.5 48.5t-13 31.5t-33.5 20.5t-62 5.5q-68 0 -170 -22l-22 141q127 27 233 27q128 0 196.5 -59.5t68.5 -178.5v-317l41 -181h-173l-16 68q-72 -82 -194 -82q-100 0 -164 63t-64 177zM279 760q0 -49 15.5 -73.5t61.5 -24.5 q36 0 65.5 23.5t47.5 64.5v118h-90q-57 0 -78.5 -24t-21.5 -84z" />
<glyph unicode="&#xab;" horiz-adv-x="935" d="M74 477l178 357h186l-155 -357l155 -356h-186zM416 477l178 357h186l-155 -357l155 -356h-186z" />
<glyph unicode="&#xac;" horiz-adv-x="1024" />
<glyph unicode="&#xad;" horiz-adv-x="626" d="M94 420v207h438v-207h-438z" />
<glyph unicode="&#xae;" horiz-adv-x="866" d="M94 932q0 140 99.5 240t238.5 100q140 0 240 -100t100 -240q0 -139 -100 -238.5t-240 -99.5t-239 99t-99 239zM172 932q0 -109 76 -186.5t184 -77.5q109 0 185.5 77.5t76.5 186.5t-76.5 186.5t-185.5 77.5q-108 0 -184 -77.5t-76 -186.5zM315 741v392h117q64 0 100.5 -24 t36.5 -85q0 -84 -73 -106l88 -177h-86l-74 170h-33v-170h-76zM391 969h41q31 0 45.5 11.5t14.5 39.5q0 33 -14 43t-44 10h-43v-104z" />
<glyph unicode="&#xaf;" horiz-adv-x="768" d="M61 1036v164h648v-164h-648z" />
<glyph unicode="&#xb0;" horiz-adv-x="589" d="M74 1063q0 91 62 152t159 61t159 -61t62 -152t-62 -152t-159 -61t-159 61t-62 152zM205 1063q0 -38 26.5 -66t63.5 -28t63.5 28t26.5 66t-26.5 66t-63.5 28t-63.5 -28t-26.5 -66z" />
<glyph unicode="&#xb1;" horiz-adv-x="929" d="M94 0v168h742v-168h-742zM94 504v168h287v280h168v-280h287v-168h-287v-279h-168v279h-287z" />
<glyph unicode="&#xb2;" horiz-adv-x="739" d="M115 637q0 146 123 256q21 18 76.5 51.5t92.5 63t37 55.5v6q0 29 -19.5 42t-62.5 13q-40 0 -93 -13.5t-89 -35.5l-47 107q40 33 106.5 53t125.5 20q117 0 180 -41.5t63 -142.5v-8q0 -39 -15 -72t-43 -58.5t-53.5 -43.5t-62 -39.5t-53.5 -34.5q-45 -35 -69.5 -67 t-24.5 -74v-6h327v-129h-491q-8 44 -8 98z" />
<glyph unicode="&#xb3;" horiz-adv-x="739" d="M96 596l41 111q96 -48 201 -48q58 0 87.5 16t29.5 66v19q0 47 -32 70.5t-75 23.5h-129v121h98q99 0 99 80v18q0 34 -25.5 44.5t-79.5 10.5q-85 0 -168 -18l-18 117q92 28 203 28q256 0 256 -180v-12q0 -80 -60 -131q99 -59 99 -176v-15q0 -59 -24 -102t-65.5 -66.5 t-90 -34t-105.5 -10.5t-126 18t-116 50z" />
<glyph unicode="&#xb4;" horiz-adv-x="768" d="M258 1008l133 270h242l-217 -270h-158z" />
<glyph unicode="&#xb5;" horiz-adv-x="960" d="M115 -410v1299h235v-651q28 -34 72.5 -52t89.5 -18q64 0 86.5 41.5t22.5 124.5v555h235v-557q0 -184 -76.5 -267t-226.5 -83q-115 0 -203 49v-441h-235z" />
<glyph unicode="&#xb6;" horiz-adv-x="1099" d="M109 840q0 196 96 292.5t270 96.5h479v-1460h-196v1273h-113v-1273h-199v694q-144 -1 -240.5 111.5t-96.5 265.5z" />
<glyph unicode="&#xb7;" horiz-adv-x="411" d="M94 600v279h223v-279h-223z" />
<glyph unicode="&#xb8;" horiz-adv-x="768" d="M135 -352l219 270h156l-131 -270h-244z" />
<glyph unicode="&#xb9;" horiz-adv-x="739" d="M133 520v129h162v441h-137v102l223 45h82v-588h143v-129h-473z" />
<glyph unicode="&#xba;" horiz-adv-x="821" d="M115 813v150q0 301 297 301q66 0 117 -14.5t92.5 -48t63.5 -93.5t22 -145v-150q0 -163 -78.5 -231t-216.5 -68q-66 0 -117 14.5t-93 47.5t-64.5 92.5t-22.5 144.5zM309 815q0 -75 21.5 -112t81.5 -37t81 37t21 112v148q0 75 -21 112t-81 37t-81.5 -37t-21.5 -112v-148z " />
<glyph unicode="&#xbb;" horiz-adv-x="935" d="M156 121l155 356l-155 357h186l178 -357l-178 -356h-186zM498 121l155 356l-155 357h186l178 -357l-178 -356h-186z" />
<glyph unicode="&#xbc;" horiz-adv-x="1597" d="M117 520v129h162v441h-138v102l224 45h81v-588h144v-129h-473zM387 0l641 1237h176l-641 -1237h-176zM879 150v94l299 461h190v-433h84v-122h-84v-150h-168v150h-321zM1055 272h145v228z" />
<glyph unicode="&#xbd;" horiz-adv-x="1597" d="M117 520v129h162v441h-138v102l224 45h81v-588h144v-129h-473zM387 0l641 1237h176l-641 -1237h-176zM965 98q0 142 125 254q20 18 75.5 52t92 64t36.5 56v6q0 30 -18.5 43t-63.5 13q-39 0 -91.5 -13.5t-88.5 -35.5l-47 106q40 33 105.5 53.5t123.5 20.5q117 0 181.5 -42 t64.5 -143v-8q0 -48 -26.5 -90t-54.5 -63t-79.5 -53.5t-66.5 -43.5q-45 -34 -69.5 -67.5t-24.5 -75.5v-2h325v-129h-491q-8 44 -8 98z" />
<glyph unicode="&#xbe;" horiz-adv-x="1597" d="M102 596l41 111q96 -48 201 -48q57 0 86 16t29 66v19q0 47 -31 70.5t-74 23.5h-131v121h99q98 0 98 80v18q0 34 -25.5 44.5t-79.5 10.5q-83 0 -165 -18l-19 117q92 28 203 28q254 0 254 -180v-12q0 -82 -58 -131q97 -58 97 -176v-15q0 -59 -23.5 -102t-65 -66.5 t-89.5 -34t-105 -10.5t-126 18t-116 50zM412 0l641 1237h176l-643 -1237h-174zM903 150v94l299 461h191v-433h84v-122h-84v-150h-168v150h-322zM1079 272h146v228z" />
<glyph unicode="&#xbf;" horiz-adv-x="765" d="M43 -131q0 49 19 94t49.5 80t67 68t73 65.5t67 65.5t49.5 74.5t19 86.5q0 55 -10 107h178q25 -73 25 -166q0 -69 -25 -129t-61 -101t-72 -76.5t-61 -70.5t-25 -67q0 -58 39.5 -80.5t107.5 -22.5q84 0 236 41l24 -166q-44 -22 -145 -40.5t-174 -18.5q-80 0 -146.5 14 t-120.5 43t-84 80t-30 119zM346 641v279h223v-279h-223z" />
<glyph unicode="&#xc0;" horiz-adv-x="997" d="M12 0l355 1237h268l352 -1237h-266l-76 272h-334l-73 -272h-226zM236 1647h243l131 -271h-155zM354 457h248l-123 463h-4z" />
<glyph unicode="&#xc1;" horiz-adv-x="997" d="M12 0l355 1237h268l352 -1237h-266l-76 272h-334l-73 -272h-226zM354 457h248l-123 463h-4zM391 1376l133 271h242l-217 -271h-158z" />
<glyph unicode="&#xc2;" horiz-adv-x="997" d="M12 0l355 1237h268l352 -1237h-266l-76 272h-334l-73 -272h-226zM160 1368l252 326h178l252 -326h-174l-168 168l-164 -168h-176zM354 457h248l-123 463h-4z" />
<glyph unicode="&#xc3;" horiz-adv-x="997" d="M12 0l355 1237h268l352 -1237h-266l-76 272h-334l-73 -272h-226zM152 1376q5 112 62 185t146 73q51 0 151 -47t138 -47q32 0 56 26.5t30 67.5h111q-5 -112 -62.5 -185t-146.5 -73q-51 0 -151 47t-138 47q-32 0 -55 -26t-29 -68h-112zM354 457h248l-123 463h-4z" />
<glyph unicode="&#xc4;" horiz-adv-x="997" d="M12 0l355 1237h268l352 -1237h-266l-76 272h-334l-73 -272h-226zM215 1386v271h203v-271h-203zM354 457h248l-123 463h-4zM580 1386v271h202v-271h-202z" />
<glyph unicode="&#xc5;" horiz-adv-x="997" d="M12 0l355 1237h268l352 -1237h-266l-76 272h-334l-73 -272h-226zM319 1526q0 73 51.5 123.5t129.5 50.5t128 -50.5t50 -123.5t-50 -123.5t-128 -50.5t-129.5 50.5t-51.5 123.5zM354 457h248l-123 463h-4zM426 1526q0 -31 21.5 -53.5t52.5 -22.5q29 0 51 22.5t22 53.5 t-21.5 53.5t-51.5 22.5q-31 0 -52.5 -22t-21.5 -54z" />
<glyph unicode="&#xc6;" horiz-adv-x="1452" d="M-8 0l586 1237h790v-190h-432v-304h350v-192h-350v-361h453v-190h-709v283h-320l-127 -283h-241zM444 471h236v522h-6z" />
<glyph unicode="&#xc7;" horiz-adv-x="993" d="M115 408v442q0 114 31 195t89.5 126.5t131.5 65.5t168 20q106 0 212.5 -30t180.5 -66l-66 -180q-184 74 -311 74q-102 0 -140 -44t-38 -165v-438q0 -116 43 -169t141 -53q158 0 344 125l39 -182q-31 -28 -80.5 -58t-142 -59.5t-187.5 -29.5q-88 0 -159 21t-130.5 67.5 t-92.5 132.5t-33 205zM262 -352l219 270h156l-131 -270h-244z" />
<glyph unicode="&#xc8;" horiz-adv-x="925" d="M125 0v1237h715v-190h-459v-304h377v-192h-377v-361h481v-190h-737zM223 1647h244l131 -271h-156z" />
<glyph unicode="&#xc9;" horiz-adv-x="925" d="M125 0v1237h715v-190h-459v-304h377v-192h-377v-361h481v-190h-737zM365 1376l133 271h241l-217 -271h-157z" />
<glyph unicode="&#xca;" horiz-adv-x="925" d="M125 0v1237h715v-190h-459v-304h377v-192h-377v-361h481v-190h-737zM143 1368l252 326h178l252 -326h-174l-168 168l-164 -168h-176z" />
<glyph unicode="&#xcb;" horiz-adv-x="925" d="M125 0v1237h715v-190h-459v-304h377v-192h-377v-361h481v-190h-737zM195 1386v271h202v-271h-202zM559 1386v271h203v-271h-203z" />
<glyph unicode="&#xcc;" horiz-adv-x="806" d="M53 0v186h221v865h-221v186h701v-186h-224v-865h224v-186h-701zM141 1647h244l131 -271h-156z" />
<glyph unicode="&#xcd;" horiz-adv-x="806" d="M53 0v186h221v865h-221v186h701v-186h-224v-865h224v-186h-701zM279 1376l133 271h241l-217 -271h-157z" />
<glyph unicode="&#xce;" horiz-adv-x="806" d="M53 0v186h221v865h-221v186h701v-186h-224v-865h224v-186h-701zM61 1368l252 326h179l251 -326h-174l-168 168l-163 -168h-177z" />
<glyph unicode="&#xcf;" horiz-adv-x="806" d="M53 0v186h221v865h-221v186h701v-186h-224v-865h224v-186h-701zM119 1386v271h203v-271h-203zM483 1386v271h203v-271h-203z" />
<glyph unicode="&#xd0;" horiz-adv-x="1091" d="M14 530v170h113v537h412q438 0 438 -410v-397q0 -96 -23.5 -171t-63.5 -123t-96.5 -79.5t-118 -44t-132.5 -12.5h-416v530h-113zM383 190h143q195 0 195 228v424q0 118 -42 161.5t-147 43.5h-149v-347h152v-170h-152v-340z" />
<glyph unicode="&#xd1;" horiz-adv-x="1120" d="M125 0v1237h207l454 -778v778h209v-1237h-223l-438 758v-758h-209zM211 1356q5 112 62.5 185t146.5 73q51 0 151 -47t138 -47q32 0 56 26.5t30 67.5h110q-5 -112 -62.5 -185t-146.5 -73q-51 0 -150.5 47t-137.5 47q-32 0 -55 -26t-29 -68h-113z" />
<glyph unicode="&#xd2;" d="M115 387v463q0 407 428 407q430 0 430 -407v-463q0 -405 -430 -405q-428 0 -428 405zM295 1647h244l131 -271h-156zM371 387q0 -115 39.5 -158t132.5 -43t133.5 43t40.5 158v463q0 115 -40.5 159t-133.5 44q-92 0 -132 -44t-40 -159v-463z" />
<glyph unicode="&#xd3;" d="M115 387v463q0 407 428 407q430 0 430 -407v-463q0 -405 -430 -405q-428 0 -428 405zM371 387q0 -115 39.5 -158t132.5 -43t133.5 43t40.5 158v463q0 115 -40.5 159t-133.5 44q-92 0 -132 -44t-40 -159v-463zM412 1376l133 271h241l-217 -271h-157z" />
<glyph unicode="&#xd4;" d="M115 387v463q0 407 428 407q430 0 430 -407v-463q0 -405 -430 -405q-428 0 -428 405zM207 1368l252 326h178l252 -326h-174l-168 168l-164 -168h-176zM371 387q0 -115 39.5 -158t132.5 -43t133.5 43t40.5 158v463q0 115 -40.5 159t-133.5 44q-92 0 -132 -44t-40 -159 v-463z" />
<glyph unicode="&#xd5;" d="M115 387v463q0 407 428 407q430 0 430 -407v-463q0 -405 -430 -405q-428 0 -428 405zM197 1376q5 112 62.5 185t146.5 73q51 0 150.5 -47t137.5 -47q32 0 56 26.5t30 67.5h111q-5 -112 -62.5 -185t-146.5 -73q-51 0 -151 47t-138 47q-32 0 -55 -26t-29 -68h-112zM371 387 q0 -115 39.5 -158t132.5 -43t133.5 43t40.5 158v463q0 115 -40.5 159t-133.5 44q-92 0 -132 -44t-40 -159v-463z" />
<glyph unicode="&#xd6;" d="M115 387v463q0 407 428 407q430 0 430 -407v-463q0 -405 -430 -405q-428 0 -428 405zM262 1366v270h203v-270h-203zM371 387q0 -115 39.5 -158t132.5 -43t133.5 43t40.5 158v463q0 115 -40.5 159t-133.5 44q-92 0 -132 -44t-40 -159v-463zM627 1366v270h202v-270h-202z " />
<glyph unicode="&#xd7;" horiz-adv-x="913" d="M104 299l234 233l-234 236l119 119l234 -236l233 236l119 -119l-234 -236l234 -233l-119 -119l-233 236l-234 -236z" />
<glyph unicode="&#xd8;" horiz-adv-x="1095" d="M104 -61l93 176q-78 100 -78 272v463q0 407 428 407q141 0 233 -43l43 84h168l-92 -176q78 -100 78 -272v-463q0 -405 -430 -405q-143 0 -230 41l-45 -84h-168zM375 492q0 -46 2 -54l303 570q-37 45 -133 45q-92 0 -132 -44t-40 -159v-358zM416 229q38 -43 131 -43 t133.5 43t40.5 158v356q0 46 -2 54z" />
<glyph unicode="&#xd9;" d="M125 387v850h256v-850q0 -118 35.5 -159.5t128.5 -41.5t128.5 41.5t35.5 159.5v850h254v-850q0 -114 -31 -195t-89 -125.5t-130.5 -64.5t-167.5 -20q-75 0 -136 12t-115 41t-90.5 74.5t-57.5 115.5t-21 162zM285 1647h243l131 -271h-155z" />
<glyph unicode="&#xda;" d="M125 387v850h256v-850q0 -118 35.5 -159.5t128.5 -41.5t128.5 41.5t35.5 159.5v850h254v-850q0 -114 -31 -195t-89 -125.5t-130.5 -64.5t-167.5 -20q-75 0 -136 12t-115 41t-90.5 74.5t-57.5 115.5t-21 162zM418 1376l133 271h242l-218 -271h-157z" />
<glyph unicode="&#xdb;" d="M125 387v850h256v-850q0 -118 35.5 -159.5t128.5 -41.5t128.5 41.5t35.5 159.5v850h254v-850q0 -114 -31 -195t-89 -125.5t-130.5 -64.5t-167.5 -20q-75 0 -136 12t-115 41t-90.5 74.5t-57.5 115.5t-21 162zM203 1368l252 326h178l252 -326h-174l-168 168l-164 -168h-176 z" />
<glyph unicode="&#xdc;" d="M125 387v850h256v-850q0 -118 35.5 -159.5t128.5 -41.5t128.5 41.5t35.5 159.5v850h254v-850q0 -114 -31 -195t-89 -125.5t-130.5 -64.5t-167.5 -20q-75 0 -136 12t-115 41t-90.5 74.5t-57.5 115.5t-21 162zM260 1366v270h203v-270h-203zM625 1366v270h202v-270h-202z " />
<glyph unicode="&#xdd;" horiz-adv-x="964" d="M-8 1237h287l231 -463h4l231 463h230l-365 -680v-557h-256v557zM385 1376l133 271h242l-217 -271h-158z" />
<glyph unicode="&#xde;" horiz-adv-x="1050" d="M125 0v1237h256v-205h141q97 0 171.5 -17.5t137.5 -59.5t96.5 -120t33.5 -190v-33q0 -94 -24.5 -166.5t-64 -117t-97 -73t-118 -39.5t-131.5 -11h-145v-205h-256zM381 395h129q195 0 195 215v37q0 113 -44 154t-145 41h-135v-447z" />
<glyph unicode="&#xdf;" horiz-adv-x="1040" d="M117 -410v1307q0 30 4 61.5t16 70t31 73t51 67.5t73 57.5t100.5 39t131.5 14.5q64 0 123.5 -17.5t109.5 -51t79.5 -90t29.5 -128.5q0 -37 -11.5 -70.5t-26.5 -57t-40 -47.5t-42 -36.5t-43 -30t-33 -22.5q-29 -19 -29 -41q0 -24 21 -45q17 -17 60.5 -42.5t85.5 -53 t84.5 -65.5t68.5 -96t26 -130v-12q0 -83 -28.5 -140.5t-80.5 -87t-110 -41.5t-133 -12q-91 0 -203 35l37 178q97 -31 166 -31q74 0 106.5 23.5t32.5 71.5v8q0 38 -19 68.5t-49 51.5t-66.5 41.5t-73 44t-66.5 52.5t-49 73.5t-19 100.5q0 47 15.5 84.5t39 60t51 43.5t51 36 t39 37.5t15.5 49.5q0 45 -36 70.5t-97 25.5q-31 0 -54.5 -7.5t-48 -29t-38 -70t-13.5 -120.5v-1270h-239z" />
<glyph unicode="&#xe0;" horiz-adv-x="901" d="M66 274q0 158 82.5 228.5t252.5 70.5h138v21q0 40 -3.5 61t-17.5 40t-43.5 26.5t-79.5 7.5q-91 0 -213 -27l-26 172q49 12 136.5 22.5t153.5 10.5q161 0 245.5 -73.5t84.5 -221.5v-389l51 -223h-213l-20 86q-42 -48 -107.5 -76t-138.5 -28q-125 0 -203.5 75t-78.5 217z M178 1298h244l131 -270h-156zM291 283q0 -58 19.5 -87.5t80.5 -29.5q46 0 86 29.5t62 78.5v148h-119q-71 0 -100 -31.5t-29 -107.5z" />
<glyph unicode="&#xe1;" horiz-adv-x="901" d="M66 274q0 158 82.5 228.5t252.5 70.5h138v21q0 40 -3.5 61t-17.5 40t-43.5 26.5t-79.5 7.5q-91 0 -213 -27l-26 172q49 12 136.5 22.5t153.5 10.5q161 0 245.5 -73.5t84.5 -221.5v-389l51 -223h-213l-20 86q-42 -48 -107.5 -76t-138.5 -28q-125 0 -203.5 75t-78.5 217z M291 283q0 -58 19.5 -87.5t80.5 -29.5q46 0 86 29.5t62 78.5v148h-119q-71 0 -100 -31.5t-29 -107.5zM299 1028l133 270h242l-217 -270h-158z" />
<glyph unicode="&#xe2;" horiz-adv-x="901" d="M66 274q0 158 82.5 228.5t252.5 70.5h138v21q0 40 -3.5 61t-17.5 40t-43.5 26.5t-79.5 7.5q-91 0 -213 -27l-26 172q49 12 136.5 22.5t153.5 10.5q161 0 245.5 -73.5t84.5 -221.5v-389l51 -223h-213l-20 86q-42 -48 -107.5 -76t-138.5 -28q-125 0 -203.5 75t-78.5 217z M92 1020l252 326h178l252 -326h-174l-168 168l-164 -168h-176zM291 283q0 -58 19.5 -87.5t80.5 -29.5q46 0 86 29.5t62 78.5v148h-119q-71 0 -100 -31.5t-29 -107.5z" />
<glyph unicode="&#xe3;" horiz-adv-x="901" d="M66 274q0 158 82.5 228.5t252.5 70.5h138v21q0 40 -3.5 61t-17.5 40t-43.5 26.5t-79.5 7.5q-91 0 -213 -27l-26 172q49 12 136.5 22.5t153.5 10.5q161 0 245.5 -73.5t84.5 -221.5v-389l51 -223h-213l-20 86q-42 -48 -107.5 -76t-138.5 -28q-125 0 -203.5 75t-78.5 217z M88 1038q5 112 62.5 185t146.5 73q51 0 151 -47t138 -47q32 0 56 26.5t30 67.5h110q-5 -112 -62.5 -185t-146.5 -73q-51 0 -150.5 47.5t-137.5 47.5q-32 0 -55 -26.5t-29 -68.5h-113zM291 283q0 -58 19.5 -87.5t80.5 -29.5q46 0 86 29.5t62 78.5v148h-119q-71 0 -100 -31.5 t-29 -107.5z" />
<glyph unicode="&#xe4;" horiz-adv-x="901" d="M66 274q0 158 82.5 228.5t252.5 70.5h138v21q0 40 -3.5 61t-17.5 40t-43.5 26.5t-79.5 7.5q-91 0 -213 -27l-26 172q49 12 136.5 22.5t153.5 10.5q161 0 245.5 -73.5t84.5 -221.5v-389l51 -223h-213l-20 86q-42 -48 -107.5 -76t-138.5 -28q-125 0 -203.5 75t-78.5 217z M168 1038v271h203v-271h-203zM291 283q0 -58 19.5 -87.5t80.5 -29.5q46 0 86 29.5t62 78.5v148h-119q-71 0 -100 -31.5t-29 -107.5zM532 1038v271h203v-271h-203z" />
<glyph unicode="&#xe5;" horiz-adv-x="901" d="M66 274q0 158 82.5 228.5t252.5 70.5h138v21q0 40 -3.5 61t-17.5 40t-43.5 26.5t-79.5 7.5q-91 0 -213 -27l-26 172q49 12 136.5 22.5t153.5 10.5q161 0 245.5 -73.5t84.5 -221.5v-389l51 -223h-213l-20 86q-42 -48 -107.5 -76t-138.5 -28q-125 0 -203.5 75t-78.5 217z M266 1178q0 73 51 123.5t129 50.5t128.5 -50.5t50.5 -123.5t-50.5 -123.5t-128.5 -50.5t-129 50.5t-51 123.5zM291 283q0 -58 19.5 -87.5t80.5 -29.5q46 0 86 29.5t62 78.5v148h-119q-71 0 -100 -31.5t-29 -107.5zM373 1178q0 -31 21.5 -53.5t51.5 -22.5q29 0 51.5 22.5 t22.5 53.5t-21.5 53t-52.5 22t-52 -21.5t-21 -53.5z" />
<glyph unicode="&#xe6;" horiz-adv-x="1331" d="M66 274q0 142 83 199t246 57h158v64q0 38 -4.5 60.5t-19.5 41t-45.5 26t-80.5 7.5q-97 0 -219 -27l-28 172q48 11 140.5 22t158.5 11q154 0 223 -69q72 69 225 69q167 0 250.5 -84t83.5 -291v-145h-455v-41q0 -91 28 -134.5t103 -43.5q174 0 299 25l13 -168 q-194 -43 -312 -43q-213 0 -288 127q-91 -127 -269 -127q-126 0 -208 75.5t-82 216.5zM293 283q0 -57 23 -87t83 -30q46 0 89.5 29.5t64.5 78.5v111h-125q-71 0 -103 -22t-32 -80zM782 530h232v27q0 45 -3 70t-13.5 50t-33.5 35.5t-61 10.5q-75 0 -98 -39.5t-23 -126.5v-27z " />
<glyph unicode="&#xe7;" horiz-adv-x="837" d="M94 354v178q0 375 381 375q125 0 293 -71l-29 -174q-168 61 -264 61q-76 0 -109.5 -43.5t-33.5 -147.5v-176q0 -104 33.5 -147t109.5 -43q96 0 264 61l29 -174q-168 -71 -293 -71q-381 0 -381 372zM209 -352l219 270h156l-131 -270h-244z" />
<glyph unicode="&#xe8;" horiz-adv-x="917" d="M94 354v178q0 85 19 150.5t51.5 107.5t80.5 68.5t101.5 37.5t118.5 11q82 0 144.5 -18.5t112 -60t75.5 -116.5t26 -180v-149h-491v-33q0 -94 27.5 -138t109.5 -44q205 0 330 25l14 -168q-194 -43 -344 -43q-82 0 -146.5 18t-118 58.5t-82 115t-28.5 180.5zM231 1298h244 l131 -270h-155zM332 528h262v25q0 88 -24 129t-105 41t-107 -41.5t-26 -128.5v-25z" />
<glyph unicode="&#xe9;" horiz-adv-x="917" d="M94 354v178q0 85 19 150.5t51.5 107.5t80.5 68.5t101.5 37.5t118.5 11q82 0 144.5 -18.5t112 -60t75.5 -116.5t26 -180v-149h-491v-33q0 -94 27.5 -138t109.5 -44q205 0 330 25l14 -168q-194 -43 -344 -43q-82 0 -146.5 18t-118 58.5t-82 115t-28.5 180.5zM332 528h262 v25q0 88 -24 129t-105 41t-107 -41.5t-26 -128.5v-25zM350 1028l133 270h242l-217 -270h-158z" />
<glyph unicode="&#xea;" horiz-adv-x="917" d="M94 354v178q0 85 19 150.5t51.5 107.5t80.5 68.5t101.5 37.5t118.5 11q82 0 144.5 -18.5t112 -60t75.5 -116.5t26 -180v-149h-491v-33q0 -94 27.5 -138t109.5 -44q205 0 330 25l14 -168q-194 -43 -344 -43q-82 0 -146.5 18t-118 58.5t-82 115t-28.5 180.5zM129 1020 l252 326h178l252 -326h-174l-168 168l-164 -168h-176zM332 528h262v25q0 88 -24 129t-105 41t-107 -41.5t-26 -128.5v-25z" />
<glyph unicode="&#xeb;" horiz-adv-x="917" d="M94 354v178q0 85 19 150.5t51.5 107.5t80.5 68.5t101.5 37.5t118.5 11q82 0 144.5 -18.5t112 -60t75.5 -116.5t26 -180v-149h-491v-33q0 -94 27.5 -138t109.5 -44q205 0 330 25l14 -168q-194 -43 -344 -43q-82 0 -146.5 18t-118 58.5t-82 115t-28.5 180.5zM182 1038v271 h203v-271h-203zM332 528h262v25q0 88 -24 129t-105 41t-107 -41.5t-26 -128.5v-25zM547 1038v271h203v-271h-203z" />
<glyph unicode="&#xec;" horiz-adv-x="489" d="M-25 1298h244l131 -270h-155zM127 0v889h235v-889h-235z" />
<glyph unicode="&#xed;" horiz-adv-x="489" d="M127 0v889h235v-889h-235zM139 1028l133 270h242l-217 -270h-158z" />
<glyph unicode="&#xee;" horiz-adv-x="489" d="M-53 1020l213 326h178l211 -326h-176l-125 168l-125 -168h-176zM127 0v889h235v-889h-235z" />
<glyph unicode="&#xef;" horiz-adv-x="489" d="M-18 1038v271h202v-271h-202zM127 0v889h235v-889h-235zM305 1038v271h203v-271h-203z" />
<glyph unicode="&#xf0;" horiz-adv-x="927" d="M94 354v178q0 99 25.5 172.5t71 116.5t102.5 63.5t125 20.5q2 2 5.5 2t8 -1t6.5 -1l-76 119l-206 -45l-27 119l164 35l-76 116l213 37l74 -106l209 43l26 -117l-159 -35l182 -264q72 -104 72 -275v-178q0 -85 -19 -150t-51 -106.5t-80 -68t-101 -37t-118 -10.5 q-82 0 -146 18t-116.5 58.5t-80.5 115t-28 180.5zM332 356q0 -96 26.5 -142t106.5 -46t106.5 46t26.5 142v176q0 96 -26.5 143.5t-106.5 47.5t-106.5 -47.5t-26.5 -143.5v-176z" />
<glyph unicode="&#xf1;" horiz-adv-x="976" d="M74 889h213l14 -66q103 84 264 84q149 0 225 -83t76 -267v-557h-235v555q0 83 -22.5 124.5t-86.5 41.5q-45 0 -89.5 -18t-72.5 -52v-651h-237v666zM150 1038q5 112 62 185t146 73q51 0 151 -47t138 -47q32 0 56 26.5t30 67.5h111q-5 -112 -62.5 -185t-146.5 -73 q-51 0 -151 47.5t-138 47.5q-32 0 -55 -26.5t-29 -68.5h-112z" />
<glyph unicode="&#xf2;" horiz-adv-x="927" d="M94 354v178q0 85 19 150.5t51.5 107.5t80.5 68.5t101.5 37.5t118.5 11q82 0 145.5 -18t115.5 -59.5t80 -116.5t28 -181v-178q0 -85 -19 -150t-51 -106.5t-80 -68t-101 -37t-118 -10.5q-82 0 -146 18t-116.5 58.5t-80.5 115t-28 180.5zM219 1298h244l131 -270h-156z M332 356q0 -96 26.5 -142t106.5 -46t106.5 46t26.5 142v176q0 96 -26.5 143.5t-106.5 47.5t-106.5 -47.5t-26.5 -143.5v-176z" />
<glyph unicode="&#xf3;" horiz-adv-x="927" d="M94 354v178q0 85 19 150.5t51.5 107.5t80.5 68.5t101.5 37.5t118.5 11q82 0 145.5 -18t115.5 -59.5t80 -116.5t28 -181v-178q0 -85 -19 -150t-51 -106.5t-80 -68t-101 -37t-118 -10.5q-82 0 -146 18t-116.5 58.5t-80.5 115t-28 180.5zM332 356q0 -96 26.5 -142t106.5 -46 t106.5 46t26.5 142v176q0 96 -26.5 143.5t-106.5 47.5t-106.5 -47.5t-26.5 -143.5v-176zM336 1028l133 270h242l-217 -270h-158z" />
<glyph unicode="&#xf4;" horiz-adv-x="927" d="M94 354v178q0 85 19 150.5t51.5 107.5t80.5 68.5t101.5 37.5t118.5 11q82 0 145.5 -18t115.5 -59.5t80 -116.5t28 -181v-178q0 -85 -19 -150t-51 -106.5t-80 -68t-101 -37t-118 -10.5q-82 0 -146 18t-116.5 58.5t-80.5 115t-28 180.5zM125 1020l252 326h178l252 -326 h-174l-168 168l-164 -168h-176zM332 356q0 -96 26.5 -142t106.5 -46t106.5 46t26.5 142v176q0 96 -26.5 143.5t-106.5 47.5t-106.5 -47.5t-26.5 -143.5v-176z" />
<glyph unicode="&#xf5;" horiz-adv-x="927" d="M94 354v178q0 85 19 150.5t51.5 107.5t80.5 68.5t101.5 37.5t118.5 11q82 0 145.5 -18t115.5 -59.5t80 -116.5t28 -181v-178q0 -85 -19 -150t-51 -106.5t-80 -68t-101 -37t-118 -10.5q-82 0 -146 18t-116.5 58.5t-80.5 115t-28 180.5zM117 1038q5 112 62.5 185t146.5 73 q51 0 150.5 -47t137.5 -47q32 0 56 26.5t30 67.5h111q-5 -112 -62.5 -185t-146.5 -73q-51 0 -151 47.5t-138 47.5q-32 0 -55 -26.5t-29 -68.5h-112zM332 356q0 -96 26.5 -142t106.5 -46t106.5 46t26.5 142v176q0 96 -26.5 143.5t-106.5 47.5t-106.5 -47.5t-26.5 -143.5v-176 z" />
<glyph unicode="&#xf6;" horiz-adv-x="927" d="M94 354v178q0 85 19 150.5t51.5 107.5t80.5 68.5t101.5 37.5t118.5 11q82 0 145.5 -18t115.5 -59.5t80 -116.5t28 -181v-178q0 -85 -19 -150t-51 -106.5t-80 -68t-101 -37t-118 -10.5q-82 0 -146 18t-116.5 58.5t-80.5 115t-28 180.5zM182 1038v271h203v-271h-203z M332 356q0 -96 26.5 -142t106.5 -46t106.5 46t26.5 142v176q0 96 -26.5 143.5t-106.5 47.5t-106.5 -47.5t-26.5 -143.5v-176zM547 1038v271h203v-271h-203z" />
<glyph unicode="&#xf7;" horiz-adv-x="1024" />
<glyph unicode="&#xf8;" horiz-adv-x="946" d="M92 -61l90 149q-78 91 -78 266v178q0 106 28 181t80 116.5t115.5 59.5t145.5 18q113 0 182 -30l37 63h162l-86 -143q76 -92 76 -265v-178q0 -106 -28 -180.5t-80.5 -115t-116.5 -58.5t-146 -18q-102 0 -176 28l-43 -71h-162zM340 410q0 -50 6 -68l211 358q-33 23 -84 23 q-80 0 -106.5 -47.5t-26.5 -143.5v-122zM393 186q27 -18 80 -18q80 0 106.5 46t26.5 142v113q0 56 -4 68z" />
<glyph unicode="&#xf9;" horiz-adv-x="970" d="M104 332v557h238v-555q0 -83 21.5 -124.5t85.5 -41.5q45 0 89 18t72 52v651h238v-666l49 -223h-213l-14 66q-103 -84 -260 -84q-151 0 -228.5 83t-77.5 267zM205 1298h244l131 -270h-156z" />
<glyph unicode="&#xfa;" horiz-adv-x="970" d="M104 332v557h238v-555q0 -83 21.5 -124.5t85.5 -41.5q45 0 89 18t72 52v651h238v-666l49 -223h-213l-14 66q-103 -84 -260 -84q-151 0 -228.5 83t-77.5 267zM360 1028l134 270h241l-217 -270h-158z" />
<glyph unicode="&#xfb;" horiz-adv-x="970" d="M104 332v557h238v-555q0 -83 21.5 -124.5t85.5 -41.5q45 0 89 18t72 52v651h238v-666l49 -223h-213l-14 66q-103 -84 -260 -84q-151 0 -228.5 83t-77.5 267zM135 1020l252 326h178l252 -326h-174l-168 168l-164 -168h-176z" />
<glyph unicode="&#xfc;" horiz-adv-x="970" d="M104 332v557h238v-555q0 -83 21.5 -124.5t85.5 -41.5q45 0 89 18t72 52v651h238v-666l49 -223h-213l-14 66q-103 -84 -260 -84q-151 0 -228.5 83t-77.5 267zM197 1038v271h202v-271h-202zM561 1038v271h203v-271h-203z" />
<glyph unicode="&#xfd;" horiz-adv-x="804" d="M-53 -342l41 164q97 -37 172 -37q56 0 71 47l66 191l-295 866h248l172 -572h4l158 572h215l-293 -889l-90 -250q-28 -75 -83 -107t-159 -32q-117 0 -227 47zM301 1028l133 270h242l-217 -270h-158z" />
<glyph unicode="&#xfe;" horiz-adv-x="950" d="M115 -410v1719h237v-451q79 49 185 49q150 0 234.5 -96.5t84.5 -280.5v-174q0 -102 -27 -176.5t-77 -116.5t-112 -61.5t-140 -19.5q-79 0 -148 32v-424h-237zM352 205q58 -37 137 -37q69 0 100.5 43.5t31.5 144.5v172q0 95 -24 144t-87 49q-43 0 -86.5 -18.5t-71.5 -51.5 v-446z" />
<glyph unicode="&#xff;" horiz-adv-x="804" d="M-53 -342l41 164q97 -37 172 -37q56 0 71 47l66 191l-295 866h248l172 -572h4l158 572h215l-293 -889l-90 -250q-28 -75 -83 -107t-159 -32q-117 0 -227 47zM121 1038v271h203v-271h-203zM485 1038v271h203v-271h-203z" />
<glyph unicode="&#x152;" horiz-adv-x="1527" d="M115 387v463q0 407 428 407l440 -20h461v-190h-461v-304h377v-192h-377v-361h481v-190h-481q-383 -18 -440 -18q-428 0 -428 405zM371 387q0 -115 39.5 -158t132.5 -43l184 4v857q-129 6 -184 6q-92 0 -132 -44t-40 -159v-463z" />
<glyph unicode="&#x153;" horiz-adv-x="1421" d="M94 354v178q0 85 19 150.5t51.5 107.5t80.5 68.5t101.5 37.5t118.5 11q170 0 252 -82q82 82 250 82q82 0 145 -18.5t113 -60t76 -116.5t26 -180v-149h-493v-27q0 -97 26 -142.5t111 -45.5q204 0 332 25l12 -168q-194 -43 -344 -43q-173 0 -254 81q-78 -81 -252 -81 q-82 0 -146 18t-116.5 58.5t-80.5 115t-28 180.5zM332 356q0 -96 26.5 -142t106.5 -46t106.5 46t26.5 142v176q0 96 -26.5 143.5t-106.5 47.5t-106.5 -47.5t-26.5 -143.5v-176zM834 528h262v25q0 88 -24 129t-105 41t-107 -41.5t-26 -128.5v-25z" />
<glyph unicode="&#x178;" horiz-adv-x="964" d="M-8 1237h287l231 -463h4l231 463h230l-365 -680v-557h-256v557zM209 1386v273h205v-273h-205zM575 1386v273h205v-273h-205z" />
<glyph unicode="&#x2c6;" horiz-adv-x="768" d="M43 999l252 326h178l252 -326h-174l-168 168l-164 -168h-176z" />
<glyph unicode="&#x2dc;" horiz-adv-x="768" d="M37 1008q5 112 62.5 185t146.5 73q51 0 151 -47.5t138 -47.5q32 0 56 26.5t30 68.5h110q-5 -112 -62.5 -185t-146.5 -73q-51 0 -151 47t-138 47q-32 0 -54.5 -26t-28.5 -68h-113z" />
<glyph unicode="&#x2000;" horiz-adv-x="850" />
<glyph unicode="&#x2001;" horiz-adv-x="1700" />
<glyph unicode="&#x2002;" horiz-adv-x="850" />
<glyph unicode="&#x2003;" horiz-adv-x="1700" />
<glyph unicode="&#x2004;" horiz-adv-x="566" />
<glyph unicode="&#x2005;" horiz-adv-x="425" />
<glyph unicode="&#x2006;" horiz-adv-x="283" />
<glyph unicode="&#x2007;" horiz-adv-x="283" />
<glyph unicode="&#x2008;" horiz-adv-x="212" />
<glyph unicode="&#x2009;" horiz-adv-x="340" />
<glyph unicode="&#x200a;" horiz-adv-x="94" />
<glyph unicode="&#x2010;" horiz-adv-x="626" d="M94 420v207h438v-207h-438z" />
<glyph unicode="&#x2011;" horiz-adv-x="626" d="M94 420v207h438v-207h-438z" />
<glyph unicode="&#x2012;" horiz-adv-x="626" d="M94 420v207h438v-207h-438z" />
<glyph unicode="&#x2013;" horiz-adv-x="942" d="M94 420v207h754v-207h-754z" />
<glyph unicode="&#x2014;" horiz-adv-x="1249" d="M94 420v207h1061v-207h-1061z" />
<glyph unicode="&#x2018;" horiz-adv-x="354" d="M59 653v250l127 334h105l-72 -307h76v-277h-236z" />
<glyph unicode="&#x2019;" horiz-adv-x="354" d="M59 961v276h236v-250l-129 -334h-103l70 308h-74z" />
<glyph unicode="&#x201a;" horiz-adv-x="411" d="M90 70v276h234v-250l-127 -334h-103l70 308h-74z" />
<glyph unicode="&#x201c;" horiz-adv-x="655" d="M59 653v250l127 334h105l-72 -307h76v-277h-236zM360 653v250l127 334h105l-72 -307h76v-277h-236z" />
<glyph unicode="&#x201d;" horiz-adv-x="655" d="M59 961v276h236v-250l-129 -334h-103l70 308h-74zM360 961v276h236v-250l-127 -334h-104l69 308h-74z" />
<glyph unicode="&#x201e;" horiz-adv-x="712" d="M90 70v276h234v-250l-127 -334h-103l70 308h-74zM391 70v276h234v-250l-127 -334h-103l70 308h-74z" />
<glyph unicode="&#x2022;" horiz-adv-x="573" d="M115 494v485h344v-485h-344z" />
<glyph unicode="&#x2026;" horiz-adv-x="1165" d="M94 0v279h223v-279h-223zM471 0v279h223v-279h-223zM846 0v279h225v-279h-225z" />
<glyph unicode="&#x202f;" horiz-adv-x="340" />
<glyph unicode="&#x2039;" horiz-adv-x="593" d="M74 477l178 357h186l-155 -357l155 -356h-186z" />
<glyph unicode="&#x203a;" horiz-adv-x="593" d="M156 121l155 356l-155 357h186l178 -357l-178 -356h-186z" />
<glyph unicode="&#x205f;" horiz-adv-x="425" />
<glyph unicode="&#x20ac;" horiz-adv-x="1054" d="M53 418v151h131v113h-131v152h131v20q0 114 31 194.5t90 125t131.5 64t167.5 19.5q106 0 212.5 -30t180.5 -66l-65 -180q-184 74 -311 74q-103 0 -141 -42.5t-38 -162.5v-16h310v-152h-310v-113h310v-151h-310v-15q0 -115 43 -166t142 -51q160 0 346 125l39 -182 q-31 -28 -81 -58t-143 -59.5t-188 -29.5q-416 0 -416 421v15h-131z" />
<glyph unicode="&#x2122;" horiz-adv-x="1067" d="M33 1122v86h377v-86h-129v-469h-117v469h-131zM461 653v555h127l125 -374l127 374h129v-555h-117v332l-111 -332h-82l-104 324v-324h-94z" />
<glyph unicode="&#xe000;" horiz-adv-x="890" d="M0 0v891h891v-891h-891z" />
<glyph unicode="&#xfb01;" horiz-adv-x="1040" d="M43 702v187h102q-8 145 -8 172q0 264 291 264q101 0 238 -43l-33 -164q-90 25 -182 25q-38 0 -56 -19.5t-18 -64.5l10 -170h531v-889h-238v702h-285v-702h-237v702h-115z" />
<glyph unicode="&#xfb02;" horiz-adv-x="1083" d="M43 702v187h102q-8 145 -8 172q0 137 79.5 205.5t219.5 68.5q110 0 287 -30h238v-1305h-238v1133q-34 7 -125.5 14.5t-136.5 7.5q-84 0 -84 -96l10 -170h191v-187h-183v-702h-237v702h-115z" />
</font>
</defs>
</svg>
