<?xml version="1.0" standalone="no"?>
<!DOCTYPE svg PUBLIC "-//W3C//DTD SVG 1.1//EN" "http://www.w3.org/Graphics/SVG/1.1/DTD/svg11.dtd" >
<svg xmlns="http://www.w3.org/2000/svg">
<metadata></metadata>
<defs>
<font id="reykjavikone_ot_bgaugebgauge" horiz-adv-x="1067" >
<font-face units-per-em="2048" ascent="1536" descent="-512" />
<missing-glyph horiz-adv-x="403" />
<glyph horiz-adv-x="2048" />
<glyph horiz-adv-x="2048" />
<glyph unicode="&#xd;" horiz-adv-x="2048" />
<glyph unicode=" "  horiz-adv-x="403" />
<glyph unicode="&#x09;" horiz-adv-x="403" />
<glyph unicode="&#xa0;" horiz-adv-x="403" />
<glyph unicode="!" horiz-adv-x="450" d="M121 1294h209l-41 -843h-127zM127 0v260h199v-260h-199z" />
<glyph unicode="&#x22;" horiz-adv-x="720" d="M96 1235h209l-47 -500h-119zM416 1235h209l-45 -500h-121z" />
<glyph unicode="#" horiz-adv-x="1073" d="M57 330l21 116h201l36 230h-213l19 115h211l51 331h149l-49 -331h183l49 331h149l-51 -331h203l-21 -115h-198l-35 -230h209l-19 -116h-209l-51 -330h-147l51 330h-186l-50 -330h-147l49 330h-205zM428 446h184l35 230h-184z" />
<glyph unicode="$" horiz-adv-x="921" d="M88 137l45 139q134 -83 293 -83q104 0 158.5 32t54.5 117v25q0 40 -14.5 72t-33.5 52t-57.5 39t-64.5 28.5t-78 25.5q-38 12 -62 21t-58.5 24t-55.5 29.5t-45.5 37.5t-38 48.5t-22.5 60.5t-9 76v28q0 72 20.5 124t60 81.5t86 44.5t108.5 21v217h151v-217q122 -14 226 -56 l-23 -143q-137 53 -262 53q-39 0 -63.5 -2t-50 -9t-40 -19.5t-23.5 -35t-9 -55.5v-24q0 -56 45 -85t143 -59q44 -14 70.5 -22.5t68.5 -26.5t68 -35.5t57 -46t48.5 -61t29.5 -78t12 -98.5v-29q0 -260 -297 -299v-227h-151v223q-154 13 -287 92z" />
<glyph unicode="%" horiz-adv-x="1425" d="M109 840v110q0 62 12.5 114.5t39.5 96.5t75 69t114 25t114.5 -25t75.5 -69t39.5 -96.5t12.5 -114.5v-110q0 -62 -12.5 -114.5t-39.5 -96.5t-75.5 -69t-114.5 -25t-114 25t-75 69t-39.5 96.5t-12.5 114.5zM248 831q0 -169 102 -169q103 0 103 169v130q0 169 -103 169 q-102 0 -102 -169v-130zM319 0l637 1235h150l-637 -1235h-150zM834 285v110q0 62 12.5 114.5t39.5 96.5t75 69t114 25t114.5 -25t75.5 -69t39.5 -96.5t12.5 -114.5v-110q0 -62 -12.5 -114.5t-39.5 -96.5t-75.5 -69t-114.5 -25t-114 25t-75 69t-39.5 96.5t-12.5 114.5z M973 274q0 -168 102 -168q103 0 103 168v132q0 167 -103 167q-102 0 -102 -167v-132z" />
<glyph unicode="&#x26;" horiz-adv-x="1163" d="M109 348v62q0 107 54 186t150 127l-41 57q-69 91 -69 199q0 153 86.5 215.5t245.5 62.5l221 -12l-15 -149q-155 10 -198 10q-83 0 -114.5 -28.5t-31.5 -102.5q0 -58 45 -119l381 -504q37 81 37 197v94h160v-96q0 -205 -86 -340l158 -207h-228l-55 72q-121 -92 -287 -92 q-71 0 -128.5 9.5t-112 34.5t-91.5 65.5t-59 106t-22 152.5zM305 348q0 -107 50.5 -162t166.5 -55q113 0 193 64l-297 393q-56 -26 -84.5 -68t-28.5 -110v-62z" />
<glyph unicode="'" horiz-adv-x="399" d="M96 1235h209l-47 -500h-119z" />
<glyph unicode="(" horiz-adv-x="606" d="M139 586q0 124 26 250.5t63 218.5t74 166.5t63 112.5l26 38h158q-9 -14 -24 -40.5t-53 -111t-67 -172t-53 -214.5t-24 -248t23 -246.5t55.5 -218.5t64.5 -168.5t55 -114.5l23 -39h-158q-10 14 -27 40t-60.5 109.5t-77 170.5t-60.5 215t-27 252z" />
<glyph unicode=")" horiz-adv-x="606" d="M57 -201q9 14 24 40.5t53.5 111.5t67.5 172t53 214.5t24 248.5t-23 246.5t-55.5 218t-65 168t-55.5 114.5l-23 39h158q10 -14 27 -40t60.5 -109t77 -170t60.5 -215t27 -252t-26 -250.5t-63 -218.5t-74 -167t-63 -113l-26 -38h-158z" />
<glyph unicode="*" horiz-adv-x="835" d="M57 924l43 137l275 -119l-27 297h141l-20 -297l266 119l43 -139l-278 -68l186 -223l-117 -86l-149 250l-154 -250l-116 86l194 223z" />
<glyph unicode="+" horiz-adv-x="870" d="M78 463v141h287v307h141v-307h287v-141h-287v-307h-141v307h-287z" />
<glyph unicode="," horiz-adv-x="395" d="M94 0v260h207v-233l-115 -326h-86l66 299h-72z" />
<glyph unicode="-" horiz-adv-x="612" d="M98 440v166h416v-166h-416z" />
<glyph unicode="." horiz-adv-x="395" d="M96 0v260h201v-260h-201z" />
<glyph unicode="/" horiz-adv-x="624" d="M27 -41l399 1296h172l-399 -1296h-172z" />
<glyph unicode="0" horiz-adv-x="1007" d="M94 483v267q0 105 21.5 191.5t67 158.5t127.5 112.5t194 40.5t193.5 -40.5t126.5 -112.5t66 -158.5t21 -191.5v-267q0 -105 -21 -191.5t-66 -158.5t-126.5 -112.5t-193.5 -40.5t-194 40.5t-127.5 112.5t-67 158.5t-21.5 191.5zM301 479q0 -70 9 -125t30 -103t62.5 -74.5 t101.5 -26.5t101 26t62 75t29.5 103t8.5 125v275q0 71 -8.5 125t-29.5 103t-62 75t-101 26t-101.5 -26.5t-62.5 -74.5t-30 -103t-9 -125v-275z" />
<glyph unicode="1" horiz-adv-x="1007" d="M125 0v156h293v909h-248v117l358 71h97v-1097h256v-156h-756z" />
<glyph unicode="2" horiz-adv-x="1007" d="M104 139q0 137 59.5 258t162.5 215q28 25 93 68.5t115 78t91 84t41 95.5v18q0 75 -43 106.5t-150 31.5q-63 0 -138 -21.5t-130 -54.5l-60 127q60 47 151.5 77.5t180.5 30.5q94 0 163 -15t122 -48.5t79.5 -92.5t26.5 -143v-22q0 -65 -24 -120t-69 -99t-88.5 -76 t-104.5 -73.5t-95 -69.5q-168 -141 -168 -324v-14h560v-156h-766q-9 88 -9 139z" />
<glyph unicode="3" horiz-adv-x="1007" d="M63 84l50 133q167 -80 313 -80q115 0 178.5 45t63.5 156v29q0 102 -64 157.5t-160 55.5h-168v155h111q95 0 153 46t58 141v30q0 38 -11.5 65.5t-30 43.5t-49 25t-60 11.5t-70.5 2.5q-110 0 -238 -27l-22 137q133 43 293 43q67 0 121.5 -7.5t107.5 -27.5t89.5 -52 t58.5 -85t22 -123v-30q0 -156 -129 -244q93 -43 146 -124t53 -193v-29q0 -79 -24 -141t-65 -102t-99.5 -66.5t-123.5 -37.5t-141 -11q-87 0 -189.5 29t-173.5 75z" />
<glyph unicode="4" horiz-adv-x="1007" d="M49 279v133l481 821h267v-799h153v-155h-153v-279h-199v279h-549zM272 434h326v586z" />
<glyph unicode="5" horiz-adv-x="1007" d="M76 45l35 150q143 -60 313 -60q123 0 188.5 59t65.5 173v34q0 125 -66 175.5t-219 50.5h-252l97 606h553v-156h-388l-45 -291h74q223 0 341 -95t118 -288v-32q0 -83 -28 -153t-84 -123.5t-147 -84t-208 -30.5q-208 0 -348 65z" />
<glyph unicode="6" horiz-adv-x="1007" d="M109 418q0 193 83 421.5t216 393.5h243q-94 -112 -161.5 -227.5t-124.5 -280.5q77 47 170 47q187 0 283.5 -92.5t96.5 -273.5v-46q0 -380 -415 -380q-86 0 -155 23.5t-123 74t-83.5 137t-29.5 203.5zM311 387q0 -51 7 -91t26 -79t58 -60.5t96 -21.5q209 0 209 225v46 q0 110 -42 161t-147 51q-61 0 -103.5 -18t-64 -51.5t-30.5 -72t-9 -89.5z" />
<glyph unicode="7" horiz-adv-x="1007" d="M92 1077v156h785v-84l-447 -1149h-223l426 1077h-541z" />
<glyph unicode="8" horiz-adv-x="1007" d="M88 352v43q0 105 50.5 183.5t129.5 119.5q-59 39 -91 91t-32 131v43q0 79 29 137t80.5 90.5t113.5 47.5t136 15t136 -15t113 -47.5t80 -90.5t29 -137v-43q0 -79 -32 -131t-91 -91q79 -41 129 -119.5t50 -183.5v-43q0 -372 -414 -372q-416 0 -416 372zM299 352 q0 -115 44.5 -167t160.5 -52t159.5 51.5t43.5 167.5v43q0 219 -203 219q-205 0 -205 -219v-43zM354 915q0 -85 37.5 -122t112.5 -37q74 0 110.5 37t36.5 122v46q0 79 -31.5 110t-115.5 31t-117 -31.5t-33 -109.5v-46z" />
<glyph unicode="9" horiz-adv-x="1007" d="M90 827v45q0 85 21.5 150.5t59 108.5t91 71t114 39.5t132.5 11.5q86 0 155 -23.5t123 -74t83.5 -137t29.5 -203.5q0 -193 -83 -421.5t-216 -393.5h-246q95 115 163 229.5t126 278.5q-74 -45 -172 -45q-187 0 -284 92.5t-97 271.5zM299 827q0 -110 41.5 -160.5 t146.5 -50.5q61 0 103.5 18t64 52t30.5 72.5t9 89.5t-6.5 90.5t-25 78t-57 60t-95.5 21.5q-211 0 -211 -226v-45z" />
<glyph unicode=":" horiz-adv-x="415" d="M106 0v260h201v-260h-201zM106 621v258h201v-258h-201z" />
<glyph unicode=";" horiz-adv-x="415" d="M104 0v260h207v-233l-114 -326h-86l65 299h-72zM109 621v258h200v-258h-200z" />
<glyph unicode="&#x3c;" horiz-adv-x="651" d="M37 477l495 496v-211l-284 -285l284 -284v-211z" />
<glyph unicode="=" horiz-adv-x="811" d="M98 295v141h615v-141h-615zM98 631v141h615v-141h-615z" />
<glyph unicode="&#x3e;" horiz-adv-x="651" d="M119 -18v211l284 284l-284 285v211l495 -496z" />
<glyph unicode="?" horiz-adv-x="729" d="M27 1241q44 21 134 39t156 18q73 0 135 -12.5t115.5 -39t84 -76t30.5 -117.5q0 -56 -25.5 -107t-63.5 -88t-83 -78.5t-83 -78t-63.5 -87.5t-25.5 -106q0 -44 8 -98h-139q-19 65 -19 143q0 74 27 137t65 106t76.5 80.5t65.5 76.5t27 77q0 117 -168 117q-94 0 -234 -39z M186 0v260h199v-260h-199z" />
<glyph unicode="@" horiz-adv-x="1312" d="M119 328q0 125 34.5 238.5t96.5 201t156.5 139t207.5 51.5h287q160 0 238.5 -59.5t44.5 -198.5l-135 -546q-38 -148 -230 -148h-145q-112 0 -159.5 74.5t-16.5 202.5l22 98q35 145 114 201.5t236 56.5h111l8 35q22 90 -3 119.5t-126 29.5h-215q-84 0 -153 -45.5 t-111 -119.5t-65 -163t-23 -182q0 -112 21.5 -198t69 -153.5t132 -103.5t203.5 -36q200 0 379 80l18 -127q-147 -92 -444 -92q-143 0 -249.5 45.5t-172.5 131t-98.5 202.5t-32.5 266zM655 167.5q17 -32.5 84 -32.5h117l94 383h-92q-74 0 -112.5 -31t-57.5 -106l-31 -117 q-19 -64 -2 -96.5z" />
<glyph unicode="A" horiz-adv-x="970" d="M16 0l355 1233h229l352 -1233h-217l-76 281h-374l-78 -281h-191zM319 430h304l-148 559h-6z" />
<glyph unicode="B" horiz-adv-x="1034" d="M129 0v1233h414q153 0 246.5 -73t93.5 -197v-41q0 -172 -166 -265q223 -74 223 -280v-70q0 -137 -106.5 -222t-276.5 -85h-428zM336 156h156q126 0 179.5 38.5t53.5 118.5v70q0 182 -256 182h-133v-409zM336 723h113q108 0 164.5 49t56.5 121v43q0 78 -46.5 109.5 t-148.5 31.5h-139v-354z" />
<glyph unicode="C" horiz-adv-x="964" d="M119 399v455q0 92 20.5 162t55.5 114.5t87.5 72.5t110 39t129.5 11q100 0 201 -28.5t172 -63.5l-55 -147q-66 28 -151 49.5t-148 21.5q-124 0 -169.5 -52.5t-45.5 -182.5v-451q0 -124 50 -186.5t171 -62.5q143 0 325 118l35 -147q-55 -47 -158.5 -94t-230.5 -47 q-83 0 -150.5 19.5t-125.5 64.5t-90.5 130t-32.5 205z" />
<glyph unicode="D" horiz-adv-x="1069" d="M129 0v1233h395q94 0 167 -19t133.5 -63t93 -125t32.5 -195v-407q0 -97 -23.5 -172t-62.5 -122t-95 -77t-114.5 -41.5t-126.5 -11.5h-399zM336 156h178q229 0 229 254v434q0 127 -50 180t-175 53h-182v-921z" />
<glyph unicode="E" horiz-adv-x="901" d="M129 0v1233h682v-156h-475v-352h389v-158h-389v-411h498v-156h-705z" />
<glyph unicode="F" horiz-adv-x="847" d="M129 0v1233h682v-156h-475v-350h389v-156h-389v-571h-207z" />
<glyph unicode="G" horiz-adv-x="1069" d="M119 399v455q0 92 20.5 162t55.5 114.5t87.5 72.5t110 39t129.5 11q100 0 201 -28.5t172 -63.5l-53 -147q-65 28 -151.5 49.5t-149.5 21.5q-124 0 -169.5 -52.5t-45.5 -182.5v-451q0 -124 50 -186.5t171 -62.5q100 0 192 14v364h-196v156h397v-684h-170 q-113 -20 -252 -20q-83 0 -150.5 19.5t-125.5 64.5t-90.5 130t-32.5 205z" />
<glyph unicode="H" horiz-adv-x="1103" d="M129 0v1233h207v-502h432v502h207v-1233h-207v575h-432v-575h-207z" />
<glyph unicode="I" horiz-adv-x="774" d="M57 0v147h226v938h-226v148h660v-148h-228v-938h228v-147h-660z" />
<glyph unicode="J" horiz-adv-x="802" d="M20 43l31 158q46 -18 136 -34.5t149 -16.5q65 0 99 37.5t34 105.5v792h-283v148h490v-946q0 -153 -83.5 -230t-230.5 -77q-82 0 -181.5 19.5t-160.5 43.5z" />
<glyph unicode="K" horiz-adv-x="989" d="M129 0v1233h207v-492l360 492h238l-434 -565l510 -668h-254l-420 561v-561h-207z" />
<glyph unicode="L" horiz-adv-x="854" d="M129 0v1233h207v-1077h477v-156h-684z" />
<glyph unicode="M" horiz-adv-x="1370" d="M129 0v1233h242l315 -942l318 942h237v-1233h-201v899l-303 -899h-141l-293 879v-879h-174z" />
<glyph unicode="N" horiz-adv-x="1099" d="M129 0v1233h166l506 -858v858h170v-1233h-183l-487 838v-838h-172z" />
<glyph unicode="O" d="M119 381v473q0 92 21.5 162t58 114.5t90.5 72.5t112.5 39t130.5 11t131 -11t113 -39t91 -72.5t59 -114.5t22 -162v-473q0 -401 -416 -401q-72 0 -130.5 11t-112.5 39.5t-90.5 73t-58 115t-21.5 162.5zM326 381q0 -124 47 -177.5t159 -53.5t160.5 54t48.5 177v473 q0 123 -48.5 176t-160.5 53t-159 -52.5t-47 -176.5v-473z" />
<glyph unicode="P" horiz-adv-x="1013" d="M129 0v1233h383q94 0 165.5 -16.5t132.5 -56.5t93.5 -117t32.5 -189v-31q0 -401 -420 -401h-180v-422h-207zM336 578h164q121 0 175 61.5t54 181.5v35q0 124 -49.5 172.5t-173.5 48.5h-170v-499z" />
<glyph unicode="Q" d="M119 381v473q0 92 21.5 162t58 114.5t90.5 72.5t112.5 39t130.5 11t131 -11t113 -39t91 -72.5t59 -114.5t22 -162v-473q0 -309 -241 -379l192 -342h-219l-166 322q-87 2 -154.5 22t-123.5 64t-86.5 123t-30.5 190zM326 381q0 -124 47 -177.5t159 -53.5t160.5 54t48.5 177 v473q0 123 -48.5 176t-160.5 53t-159 -52.5t-47 -176.5v-473z" />
<glyph unicode="R" horiz-adv-x="1050" d="M129 0v1233h377q434 0 434 -326v-18q0 -248 -209 -324l250 -565h-231l-228 530h-186v-530h-207zM336 686h158q123 0 181 47t58 148v34q0 90 -57 126t-176 36h-164v-391z" />
<glyph unicode="S" horiz-adv-x="993" d="M82 86l49 152q67 -42 153 -68.5t173 -26.5q112 0 173.5 39.5t61.5 132.5v25q0 54 -20.5 94.5t-63 69t-83 45.5t-105.5 37q-42 13 -69.5 23t-64.5 26t-60.5 32.5t-50 41.5t-41 53.5t-24.5 67t-10 83.5v35q0 76 21.5 132t56.5 88.5t89 52t108 26t125 6.5q66 0 157.5 -18 t161.5 -47l-26 -158q-160 60 -289 60q-42 0 -70.5 -2.5t-56.5 -10.5t-45 -23t-27 -40.5t-10 -61.5v-26q0 -59 53.5 -95.5t157.5 -68.5q50 -15 78.5 -25t75.5 -30t75 -39t62 -51t53 -67.5t32 -86t13 -109.5v-32q0 -91 -33 -158.5t-93.5 -107t-139 -58t-176.5 -18.5 q-91 0 -190.5 29t-180.5 77z" />
<glyph unicode="T" horiz-adv-x="880" d="M35 1077v156h811v-156h-303v-1077h-205v1077h-303z" />
<glyph unicode="U" d="M129 381v852h207v-852q0 -128 41.5 -179.5t154.5 -51.5t156 52t43 179v852h207v-852q0 -114 -30.5 -194.5t-88 -124.5t-127.5 -63t-160 -19t-159.5 19t-126.5 63t-87 124.5t-30 194.5z" />
<glyph unicode="V" horiz-adv-x="925" d="M16 1233h220l235 -983h8l242 983h188l-331 -1233h-232z" />
<glyph unicode="W" horiz-adv-x="1441" d="M55 1233h207l154 -916l241 916h152l242 -916l155 916h180l-233 -1233h-205l-233 881l-236 -881h-192z" />
<glyph unicode="X" horiz-adv-x="966" d="M6 0l371 625l-340 608h233l228 -412l239 412h199l-344 -576l369 -657h-236l-254 461l-268 -461h-197z" />
<glyph unicode="Y" horiz-adv-x="946" d="M0 1233h233l261 -502h4l260 502h186l-369 -680v-553h-204v553z" />
<glyph unicode="Z" horiz-adv-x="946" d="M78 0v172l547 897v8h-547v156h780v-168l-551 -901v-8h551v-156h-780z" />
<glyph unicode="[" horiz-adv-x="604" d="M160 -193v1565h397v-117h-213v-1329h213v-119h-397z" />
<glyph unicode="\" horiz-adv-x="624" d="M27 1255h172l399 -1296h-172z" />
<glyph unicode="]" horiz-adv-x="604" d="M47 -82h213v1329h-213v117h397v-1565h-397v119z" />
<glyph unicode="^" horiz-adv-x="892" d="M68 733l313 449h133l311 -449l-129 -84l-250 377l-249 -377z" />
<glyph unicode="_" horiz-adv-x="667" d="M-4 -115h676v-108h-676v108z" />
<glyph unicode="`" horiz-adv-x="743" d="M139 1274h211l131 -270h-133z" />
<glyph unicode="a" horiz-adv-x="874" d="M68 264q0 157 78.5 225t240.5 68h172v23q0 54 -4.5 82t-22 51.5t-53.5 32t-98 8.5q-67 0 -195 -25l-22 139q142 31 270 31q316 0 316 -285v-403l47 -211h-176l-23 98q-43 -55 -113.5 -86.5t-150.5 -31.5q-114 0 -190 71.5t-76 212.5zM254 272q0 -28 1.5 -45t8 -37t19 -31 t35.5 -18.5t57 -7.5q59 0 108.5 37t75.5 94v168h-151q-90 0 -122 -38.5t-32 -121.5z" />
<glyph unicode="b" horiz-adv-x="929" d="M119 0v1303h190v-472q89 68 217 68q140 0 222.5 -93t82.5 -278v-180q0 -86 -19.5 -151.5t-52 -106t-80.5 -66t-99 -35t-113 -9.5q-46 0 -117 9.5t-84 10.5h-147zM309 147q79 -14 158 -14q96 0 135 51.5t39 163.5v178q0 104 -30.5 161.5t-108.5 57.5q-52 0 -106 -24 t-87 -64v-510z" />
<glyph unicode="c" horiz-adv-x="811" d="M98 348v184q0 86 19.5 151t52.5 105.5t81 66t99 35t113 9.5q119 0 274 -65l-22 -144q-152 58 -252 58q-95 0 -134.5 -52.5t-39.5 -165.5v-182q0 -112 39 -163.5t135 -51.5q103 0 252 57l22 -143q-160 -67 -274 -67q-62 0 -113 9.5t-99 35t-81 66t-52.5 106t-19.5 151.5z " />
<glyph unicode="d" horiz-adv-x="933" d="M98 352v180q0 86 19.5 151t52.5 105.5t81 66t99 35t113 9.5q69 0 158 -29v433h190v-1092l45 -211h-172l-18 82q-108 -102 -263 -102q-140 0 -222.5 93.5t-82.5 278.5zM289 352q0 -104 30.5 -161.5t108.5 -57.5q52 0 106 24t87 64v496q-103 31 -158 31q-96 0 -135 -52 t-39 -164v-180z" />
<glyph unicode="e" horiz-adv-x="897" d="M98 348v184q0 86 18.5 150.5t50 105.5t78 66t96.5 35t112 10q79 0 138 -16.5t108 -56.5t74.5 -113.5t25.5 -180.5v-143h-510v-43q0 -108 35 -160.5t133 -52.5q195 0 317 25l10 -138q-174 -40 -327 -40q-79 0 -139.5 16.5t-112 56t-79.5 114t-28 181.5zM289 516h325v25 q0 52 -6 86t-22.5 63.5t-49 43.5t-83.5 14q-97 0 -130.5 -51t-33.5 -156v-25z" />
<glyph unicode="f" horiz-adv-x="645" d="M47 727v152h105q-9 165 -9 192q0 132 71 191t204 59q93 0 215 -39l-27 -135q-90 22 -172 22q-51 0 -73.5 -22.5t-22.5 -79.5l10 -188h246v-152h-238v-727h-190v727h-119z" />
<glyph unicode="g" horiz-adv-x="929" d="M98 352v180q0 107 28.5 181.5t81 113.5t113.5 55.5t140 16.5q37 0 80.5 -4t97.5 -11.5t76 -9.5l98 -10v-1018q0 -256 -303 -256q-76 0 -181 17t-175 39l30 141q58 -14 156.5 -30.5t155.5 -16.5q64 0 95.5 27t31.5 88v194q-94 -69 -220 -69q-140 0 -222.5 93.5 t-82.5 278.5zM289 352q0 -104 30.5 -160.5t108.5 -56.5q53 0 107.5 23t87.5 63v512q-67 12 -162 12q-96 0 -134 -50.5t-38 -162.5v-180z" />
<glyph unicode="h" horiz-adv-x="946" d="M119 0v1303h190v-472q92 68 234 68q140 0 214 -79t74 -263v-557h-190v555q0 96 -28.5 143t-108.5 47q-54 0 -109 -23.5t-86 -64.5v-657h-190z" />
<glyph unicode="i" horiz-adv-x="460" d="M131 1053v247h199v-247h-199zM135 0v879h191v-879h-191z" />
<glyph unicode="j" horiz-adv-x="452" d="M-90 -389q18 135 20 143q49 -12 111 -12q51 0 73.5 23t22.5 77v1037h189v-1043q0 -131 -66.5 -188.5t-198.5 -57.5q-59 0 -151 21zM133 1053v247h197v-247h-197z" />
<glyph unicode="k" horiz-adv-x="817" d="M119 0v1303h190v-742l250 318h223l-329 -394l389 -485h-238l-295 387v-387h-190z" />
<glyph unicode="l" horiz-adv-x="452" d="M131 0v1303h191v-1303h-191z" />
<glyph unicode="m" horiz-adv-x="1349" d="M78 879h172l14 -74q94 94 238 94q157 0 217 -102q44 49 110 75.5t142 26.5q136 0 200 -77.5t64 -264.5v-557h-186v557q0 100 -22.5 145.5t-94.5 45.5q-86 0 -160 -84v-664h-186v557q0 100 -22.5 145.5t-94.5 45.5q-89 0 -162 -86v-662h-184v670z" />
<glyph unicode="n" horiz-adv-x="950" d="M78 879h172l16 -78q51 47 125 72.5t156 25.5q140 0 214.5 -79.5t74.5 -262.5v-557h-191v555q0 96 -29.5 143t-109.5 47q-54 0 -109 -23.5t-86 -64.5v-657h-188v670z" />
<glyph unicode="o" horiz-adv-x="907" d="M98 348v184q0 86 18.5 150.5t50 105.5t78 66t96.5 35t112 10t112.5 -10t97 -35t78 -66t50 -105.5t18.5 -150.5v-184q0 -106 -27.5 -180.5t-78.5 -114t-111.5 -56.5t-138.5 -17q-62 0 -112 10t-96.5 35.5t-78 66t-50 105.5t-18.5 151zM289 350q0 -110 33.5 -163.5 t130.5 -53.5t131 54t34 163v182q0 109 -34 162.5t-131 53.5t-130.5 -53t-33.5 -163v-182z" />
<glyph unicode="p" horiz-adv-x="933" d="M78 879h172l18 -80q106 100 262 100q140 0 223 -93t83 -278v-180q0 -86 -19.5 -151.5t-52.5 -106t-81 -66t-99 -35t-113 -9.5q-68 0 -160 30v-420h-188v1080zM311 164q103 -31 160 -31q96 0 135 51.5t39 163.5v180q0 103 -31.5 160t-109.5 57q-53 0 -106.5 -23t-86.5 -63 v-495z" />
<glyph unicode="q" horiz-adv-x="931" d="M98 352v180q0 107 28.5 181.5t81 113.5t113.5 55.5t140 16.5q37 0 80.5 -4t99 -11.5t76.5 -9.5l96 -10v-1274h-190v459q-97 -69 -220 -69q-138 0 -221.5 93.5t-83.5 278.5zM289 352q0 -104 30.5 -160.5t108.5 -56.5q54 0 109 22.5t86 63.5v510q-79 14 -162 14 q-96 0 -134 -50.5t-38 -162.5v-180z" />
<glyph unicode="r" horiz-adv-x="749" d="M78 879h172l24 -115q37 53 102.5 94t137.5 41q91 0 144.5 -46.5t70.5 -145.5l-176 -33q-16 74 -74 74q-49 0 -99.5 -45.5t-68.5 -98.5v-604h-188v670z" />
<glyph unicode="s" horiz-adv-x="792" d="M72 59l28 138q61 -32 135 -53t136 -21q77 0 119 23t42 85v11q0 59 -43 91t-122 56q-126 39 -172 66q-106 65 -107 190v12q0 242 307 242q124 0 269 -53l-31 -137q-140 51 -236 51q-68 0 -101.5 -19t-33.5 -67v-12q0 -25 15.5 -44.5t44.5 -34t57 -24t67 -21.5t60 -20 q93 -36 148 -94t55 -158v-22q0 -77 -25.5 -130t-74 -81.5t-106 -40.5t-132.5 -12q-73 0 -156 22t-143 57z" />
<glyph unicode="t" horiz-adv-x="663" d="M27 727v152h123v213l190 55v-268h258v-152h-258v-514q0 -37 20.5 -50t67.5 -13q17 0 62.5 4t82.5 8l37 4l27 -146q-147 -28 -291 -28q-106 0 -151 56t-45 173v506h-123z" />
<glyph unicode="u" horiz-adv-x="944" d="M109 322v557h190v-555q0 -96 29.5 -143.5t109.5 -47.5q54 0 108 23.5t85 64.5v658h190v-670l45 -209h-172l-16 80q-108 -100 -275 -100q-144 0 -219 79t-75 263z" />
<glyph unicode="v" horiz-adv-x="770" d="M8 879h197l192 -625h4l185 625h176l-291 -879h-170z" />
<glyph unicode="w" horiz-adv-x="1132" d="M45 879h188l111 -588l162 588h162l161 -584l109 584h149l-192 -879h-145l-183 645l-186 -645h-143z" />
<glyph unicode="x" horiz-adv-x="794" d="M12 0l279 459l-234 420h219l138 -271l147 271h176l-239 -400l274 -479h-221l-176 332l-185 -332h-178z" />
<glyph unicode="y" horiz-adv-x="774" d="M-51 -346l35 133q95 -31 161 -31q39 0 58.5 14t29.5 42l70 200l-293 867h201l190 -619h5l182 619h178l-291 -879l-94 -260q-26 -70 -79.5 -99.5t-149.5 -29.5q-109 0 -203 43z" />
<glyph unicode="z" horiz-adv-x="833" d="M78 0v162l434 565h-412v152h633v-162l-432 -565h444v-152h-667z" />
<glyph unicode="{" horiz-adv-x="669" d="M27 520v139h30q104 0 140 50t36 174v168q0 212 121 278q46 26 83 34.5t116 8.5h49l10 -110h-41q-91 0 -121 -45.5t-30 -151.5v-234q0 -114 -46 -166t-145 -75q99 -23 145 -76t46 -166v-235q0 -106 29.5 -150.5t121.5 -44.5h41l-10 -111h-49q-79 0 -116 8.5t-83 34.5 q-121 66 -121 277v170q0 123 -36 173t-140 50h-30z" />
<glyph unicode="|" horiz-adv-x="542" d="M180 -201v1573h182v-1573h-182z" />
<glyph unicode="}" horiz-adv-x="669" d="M57 -82h41q92 0 122 44.5t30 150.5v235q0 113 46 166t144 76q-99 23 -144.5 75t-45.5 166v234q0 106 -30 151.5t-122 45.5h-41l11 110h47q79 0 116.5 -8.5t83.5 -34.5q121 -66 121 -278v-168q0 -124 36 -174t140 -50h31v-139h-31q-104 0 -140 -50t-36 -173v-170 q0 -211 -121 -277q-46 -26 -83.5 -34.5t-116.5 -8.5h-47z" />
<glyph unicode="~" horiz-adv-x="917" d="M78 545v71q0 103 50.5 166.5t133.5 63.5q51 0 111 -23t104.5 -51t92 -51t75.5 -23q33 0 50.5 26t17.5 67v38h127v-71q0 -103 -51 -166.5t-134 -63.5q-51 0 -111 23t-104.5 51t-92 51t-75.5 23q-33 0 -50 -25.5t-17 -66.5v-39h-127z" />
<glyph unicode="&#xa1;" horiz-adv-x="456" d="M125 -387l41 846h125l41 -846h-207zM129 649v260h199v-260h-199z" />
<glyph unicode="&#xa2;" horiz-adv-x="829" d="M98 528v185q0 319 275 360v211h151v-209q103 -13 213 -61l-22 -144q-152 58 -252 58q-95 0 -134.5 -52.5t-39.5 -164.5v-183q0 -112 39 -163.5t135 -51.5q100 0 252 58l22 -144q-116 -51 -213 -63v-217h-151v221q-275 41 -275 360z" />
<glyph unicode="&#xa3;" horiz-adv-x="978" d="M84 0v156h117v419h-117v156h117v123q0 92 20.5 162t55.5 114.5t87.5 72.5t110 39t129.5 11q127 0 295 -65l-49 -152q-3 1 -20.5 6.5t-32.5 10t-39.5 11t-45.5 11t-45.5 7.5t-43.5 3q-124 0 -169.5 -52.5t-45.5 -182.5v-119h286v-156h-286v-419h495v-156h-819z" />
<glyph unicode="&#xa4;" horiz-adv-x="1024" d="M57 424v133h131v137h-131v133h131v29q0 114 30.5 194t87.5 123t126 61.5t160 18.5q100 0 199.5 -28.5t171.5 -63.5l-54 -147q-66 28 -151 49.5t-148 21.5q-124 0 -169.5 -51.5t-45.5 -181.5v-25h322v-133h-322v-137h322v-133h-322v-27q0 -123 50 -185t171 -62 q144 0 326 118l35 -147q-55 -47 -158.5 -94t-230.5 -47q-400 0 -400 417v27h-131z" />
<glyph unicode="&#xa5;" horiz-adv-x="1011" d="M27 1233h233l266 -496h4l267 496h188l-348 -631h289v-147h-316v-455h-207v455h-315v147h287z" />
<glyph unicode="&#xa6;" horiz-adv-x="542" d="M180 -201v672h182v-672h-182zM180 700v672h182v-672h-182z" />
<glyph unicode="&#xa7;" horiz-adv-x="1024" />
<glyph unicode="&#xa8;" horiz-adv-x="743" d="M104 1012v248h177v-248h-177zM463 1012v248h176v-248h-176z" />
<glyph unicode="&#xa9;" horiz-adv-x="1488" d="M109 614q0 130 50.5 248t136.5 203t204 135.5t248 50.5t247.5 -50.5t202.5 -135.5t135.5 -203t50.5 -248t-50.5 -248t-135.5 -204t-202.5 -136.5t-247.5 -50.5t-248 50.5t-204 136.5t-136.5 204t-50.5 248zM223 614q0 -143 70 -265.5t191 -194.5t264 -72t263.5 72 t189.5 194.5t69 265.5q0 107 -41 205.5t-110.5 169.5t-166.5 113.5t-204 42.5q-143 0 -264 -71.5t-191 -194t-70 -265.5zM461 479v285q0 79 21 134t60.5 85t87 42.5t109.5 12.5q129 0 252 -63l-37 -101q-115 50 -202 50q-84 0 -116 -37t-32 -127v-281q0 -84 35 -128t117 -44 q99 0 225 82l18 -102q-22 -19 -52 -38t-89.5 -39t-120.5 -20q-276 0 -276 289z" />
<glyph unicode="&#xaa;" horiz-adv-x="790" d="M98 748q0 126 63 180.5t193 54.5h133v16q0 44 -3 65t-16.5 40.5t-41 26t-76.5 6.5q-34 0 -157 -21l-19 115q108 24 217 24q252 0 252 -227v-326l39 -170h-143l-19 78q-36 -43 -91.5 -68.5t-117.5 -25.5q-91 0 -152 59t-61 173zM250 754q0 -58 19.5 -85.5t76.5 -27.5 q45 0 82 29.5t59 74.5v134h-116q-71 0 -96 -29.5t-25 -95.5z" />
<glyph unicode="&#xab;" horiz-adv-x="884" d="M78 477l178 357h154l-156 -357l156 -356h-154zM393 477l178 357h154l-156 -357l156 -356h-154z" />
<glyph unicode="&#xac;" horiz-adv-x="1024" />
<glyph unicode="&#xad;" horiz-adv-x="612" d="M98 440v166h416v-166h-416z" />
<glyph unicode="&#xae;" horiz-adv-x="851" d="M98 932q0 135 96.5 231.5t231.5 96.5t231.5 -96.5t96.5 -231.5t-96.5 -231.5t-231.5 -96.5t-231.5 96.5t-96.5 231.5zM164 932q0 -109 77 -187.5t185 -78.5t185 78.5t77 187.5t-77 187.5t-185 78.5t-185 -78.5t-77 -187.5zM311 741v385h115q63 0 98 -23t35 -83 q0 -78 -70 -100l84 -179h-73l-74 170h-49v-170h-66zM377 961h47q38 0 54 12.5t16 44.5q0 37 -15.5 48t-52.5 11h-49v-116z" />
<glyph unicode="&#xaf;" horiz-adv-x="743" d="M63 1032v133h617v-133h-617z" />
<glyph unicode="&#xb0;" horiz-adv-x="563" d="M78 1063q0 84 59 142.5t146 58.5t144.5 -58.5t57.5 -142.5t-57.5 -142.5t-144.5 -58.5t-146 58.5t-59 142.5zM184 1063q0 -41 29.5 -70.5t69.5 -29.5t68 29.5t28 70.5t-28 70.5t-68 29.5t-69.5 -29.5t-29.5 -70.5z" />
<glyph unicode="&#xb1;" horiz-adv-x="911" d="M98 0v141h715v-141h-715zM98 492v139h287v295h141v-295h287v-139h-287v-293h-141v293h-287z" />
<glyph unicode="&#xb2;" horiz-adv-x="727" d="M119 627q0 145 127 262q19 17 77 51t97 66.5t39 62.5v6q0 37 -22 51.5t-79 14.5q-38 0 -90.5 -13t-87.5 -34l-41 90q39 30 102.5 49.5t118.5 19.5q113 0 173.5 -40t60.5 -138v-8q0 -39 -16 -72t-44.5 -58t-56.5 -44t-64.5 -41.5t-56.5 -38.5q-94 -74 -94 -162v-4h338 v-108h-475q-6 41 -6 88z" />
<glyph unicode="&#xb3;" horiz-adv-x="727" d="M96 592l35 94q100 -49 201 -49q65 0 98 20t33 76v17q0 53 -35 81.5t-86 28.5h-123v105h90q51 0 83 23t32 71v18q0 43 -29.5 55.5t-91.5 12.5q-85 0 -160 -17l-16 97q85 28 195 28q241 0 241 -174v-14q0 -81 -63 -135q104 -58 104 -182v-15q0 -58 -22 -100t-61.5 -64.5 t-86 -32.5t-102.5 -10q-54 0 -123 18t-113 48z" />
<glyph unicode="&#xb4;" horiz-adv-x="743" d="M262 1004l131 270h211l-209 -270h-133z" />
<glyph unicode="&#xb5;" horiz-adv-x="940" d="M119 -410v1289h188v-658q31 -41 87 -64.5t110 -23.5q80 0 108.5 47.5t28.5 143.5v555h190v-557q0 -183 -76.5 -262.5t-217.5 -79.5q-129 0 -230 69v-459h-188z" />
<glyph unicode="&#xb6;" horiz-adv-x="1052" d="M113 846q0 195 95 289t269 94h426v-1452h-162v1292h-131v-1292h-161v694q-144 -1 -240 110.5t-96 264.5z" />
<glyph unicode="&#xb7;" horiz-adv-x="395" d="M98 608v260h199v-260h-199z" />
<glyph unicode="&#xb8;" horiz-adv-x="743" d="M139 -352l209 270h133l-131 -270h-211z" />
<glyph unicode="&#xb9;" horiz-adv-x="727" d="M139 518v109h166v477h-141v86l213 43h65v-606h148v-109h-451z" />
<glyph unicode="&#xba;" horiz-adv-x="804" d="M119 811v152q0 85 21.5 144.5t62.5 90.5t89 44t111 13t111 -13t89 -44t63 -90.5t22 -144.5v-152q0 -85 -22 -145t-63 -91.5t-89 -45t-111 -13.5t-111 13.5t-89 45t-62.5 91.5t-21.5 145zM274 813q0 -86 27 -128t102 -42t102 42t27 128v150q0 86 -27 128t-102 42t-102 -42 t-27 -128v-150z" />
<glyph unicode="&#xbb;" horiz-adv-x="884" d="M160 121l155 356l-155 357h153l179 -357l-179 -356h-153zM475 121l156 356l-156 357h154l178 -357l-178 -356h-154z" />
<glyph unicode="&#xbc;" horiz-adv-x="1576" d="M129 518v109h166v477h-141v86l215 43h65v-606h146v-109h-451zM401 0l639 1233h142l-639 -1233h-142zM868 152v86l299 464h168v-444h88v-106h-88v-152h-137v152h-330zM1018 258h180v281z" />
<glyph unicode="&#xbd;" horiz-adv-x="1576" d="M129 518v109h166v477h-141v86l215 43h65v-606h146v-109h-451zM401 0l639 1233h142l-639 -1233h-142zM961 90q0 144 126 260q19 17 77 51t97 66.5t39 62.5v7q0 37 -21 52t-79 15q-37 0 -90 -14t-88 -35l-41 90q39 30 102.5 50t118.5 20q114 0 174 -39t60 -137v-11 q0 -39 -16 -72t-44.5 -58t-56.5 -44t-64.5 -41.5t-56.5 -38.5q-94 -74 -94 -163v-2h338v-109h-475q-6 40 -6 90z" />
<glyph unicode="&#xbe;" horiz-adv-x="1576" d="M111 592l34 94q100 -49 201 -49q65 0 98 20t33 76v17q0 53 -35 81.5t-86 28.5h-123v105h91q51 0 82.5 23t31.5 71v18q0 43 -29.5 55.5t-91.5 12.5q-84 0 -159 -17l-17 97q85 28 195 28q242 0 242 -174v-14q0 -80 -64 -135q104 -58 104 -182v-15q0 -58 -22 -100 t-61.5 -64.5t-86 -32.5t-102.5 -10q-54 0 -122.5 18t-112.5 48zM428 0l639 1233h141l-639 -1233h-141zM897 152v86l297 464h170v-444h86v-106h-86v-152h-139v152h-328zM1047 258h178v281z" />
<glyph unicode="&#xbf;" horiz-adv-x="729" d="M47 -141q0 56 25.5 107t63.5 87.5t83 78t83 78.5t63.5 87.5t25.5 105.5q0 31 -10 99h141q19 -65 19 -146q0 -74 -27 -137t-65 -105.5t-76 -79.5t-65 -76t-27 -77q0 -119 168 -119q85 0 233 41l20 -135q-44 -21 -134 -39t-156 -18q-73 0 -135.5 13t-115.5 40.5t-83.5 77 t-30.5 117.5zM344 649v260h199v-260h-199z" />
<glyph unicode="&#xc0;" horiz-adv-x="970" d="M16 0l355 1233h231l352 -1233h-219l-76 281h-374l-78 -281h-191zM238 1642h211l131 -270h-134zM322 430h301l-148 551h-6z" />
<glyph unicode="&#xc1;" horiz-adv-x="970" d="M16 0l355 1233h231l352 -1233h-219l-76 281h-374l-78 -281h-191zM322 430h301l-148 551h-6zM387 1372l131 270h211l-209 -270h-133z" />
<glyph unicode="&#xc2;" horiz-adv-x="970" d="M16 0l355 1233h231l352 -1233h-219l-76 281h-374l-78 -281h-191zM166 1364l242 305h157l242 -305h-148l-174 180l-172 -180h-147zM322 430h301l-148 551h-6z" />
<glyph unicode="&#xc3;" horiz-adv-x="970" d="M16 0l355 1233h231l352 -1233h-219l-76 281h-374l-78 -281h-191zM156 1380q6 97 58.5 165.5t135.5 68.5q48 0 146 -49t137 -49q35 0 59 29t29 69h96q-6 -97 -58.5 -165.5t-135.5 -68.5q-49 0 -146 49.5t-137 49.5q-35 0 -59 -29t-29 -70h-96zM322 430h301l-148 551h-6z " />
<glyph unicode="&#xc4;" horiz-adv-x="970" d="M16 0l355 1233h231l352 -1233h-219l-76 281h-374l-78 -281h-191zM221 1380v248h176v-248h-176zM322 430h301l-148 551h-6zM580 1380v248h176v-248h-176z" />
<glyph unicode="&#xc5;" horiz-adv-x="970" d="M16 0l355 1233h231l352 -1233h-219l-76 281h-374l-78 -281h-191zM319 1513q0 68 47.5 116t118.5 48t119.5 -48t48.5 -116t-48.5 -116.5t-119.5 -48.5t-118.5 48.5t-47.5 116.5zM322 430h301l-148 551h-6zM408 1513q0 -33 22.5 -57t54.5 -24t56 24.5t24 56.5t-24 57 t-56 25q-33 0 -55 -24t-22 -58z" />
<glyph unicode="&#xc6;" horiz-adv-x="1427" d="M-4 0l584 1233h757v-156h-460v-352h376v-158h-376v-411h483v-156h-690v303h-332l-137 -303h-205zM406 457h264v581h-6z" />
<glyph unicode="&#xc7;" horiz-adv-x="964" d="M119 399v455q0 92 20.5 162t55.5 114.5t87.5 72.5t110 39t129.5 11q100 0 201 -28.5t172 -63.5l-55 -147q-66 28 -151 49.5t-148 21.5q-124 0 -169.5 -52.5t-45.5 -182.5v-451q0 -124 50 -186.5t171 -62.5q143 0 325 118l35 -147q-55 -47 -158.5 -94t-230.5 -47 q-83 0 -150.5 19.5t-125.5 64.5t-90.5 130t-32.5 205zM266 -352l209 270h133l-131 -270h-211z" />
<glyph unicode="&#xc8;" horiz-adv-x="901" d="M129 0v1233h682v-156h-475v-352h389v-158h-389v-411h498v-156h-705zM229 1642h211l131 -270h-133z" />
<glyph unicode="&#xc9;" horiz-adv-x="901" d="M129 0v1233h682v-156h-475v-352h389v-158h-389v-411h498v-156h-705zM358 1372l131 270h211l-208 -270h-134z" />
<glyph unicode="&#xca;" horiz-adv-x="901" d="M129 0v1233h682v-156h-475v-352h389v-158h-389v-411h498v-156h-705zM150 1364l241 305h158l242 -305h-148l-174 180l-172 -180h-147z" />
<glyph unicode="&#xcb;" horiz-adv-x="901" d="M129 0v1233h682v-156h-475v-352h389v-158h-389v-411h498v-156h-705zM195 1380v248h176v-248h-176zM553 1380v248h176v-248h-176z" />
<glyph unicode="&#xcc;" horiz-adv-x="774" d="M57 0v147h226v938h-226v148h660v-148h-228v-938h228v-147h-660zM147 1642h211l131 -270h-133z" />
<glyph unicode="&#xcd;" horiz-adv-x="774" d="M57 0v147h226v938h-226v148h660v-148h-228v-938h228v-147h-660zM272 1372l131 270h211l-208 -270h-134z" />
<glyph unicode="&#xce;" horiz-adv-x="774" d="M57 0v147h226v938h-226v148h660v-148h-228v-938h228v-147h-660zM68 1364l241 305h158l242 -305h-148l-174 180l-172 -180h-147z" />
<glyph unicode="&#xcf;" horiz-adv-x="774" d="M57 0v147h226v938h-226v148h660v-148h-228v-938h228v-147h-660zM121 1380v248h176v-248h-176zM479 1380v248h176v-248h-176z" />
<glyph unicode="&#xd0;" horiz-adv-x="1075" d="M12 543v143h123v547h395q94 0 167 -19t133.5 -63t93 -125t32.5 -195v-407q0 -97 -23.5 -172t-62.5 -122t-94.5 -77t-114 -41.5t-126.5 -11.5h-400v543h-123zM342 156h178q230 0 230 254v434q0 127 -50.5 180t-175.5 53h-182v-391h170v-143h-170v-387z" />
<glyph unicode="&#xd1;" horiz-adv-x="1099" d="M129 0v1233h166l506 -858v858h170v-1233h-183l-487 838v-838h-172zM217 1360q6 97 59 165t136 68q48 0 145 -49t137 -49q35 0 59 29t29 69h97q-6 -97 -59 -165t-136 -68q-48 0 -146 49t-137 49q-35 0 -59 -29t-29 -69h-96z" />
<glyph unicode="&#xd2;" d="M119 381v473q0 92 21.5 162t58 114.5t90.5 72.5t112.5 39t130.5 11t131 -11t113 -39t91 -72.5t59 -114.5t22 -162v-473q0 -401 -416 -401q-72 0 -130.5 11t-112.5 39.5t-90.5 73t-58 115t-21.5 162.5zM305 1642h211l131 -270h-133zM326 381q0 -124 47 -177.5t159 -53.5 t160.5 54t48.5 177v473q0 123 -48.5 176t-160.5 53t-159 -52.5t-47 -176.5v-473z" />
<glyph unicode="&#xd3;" d="M119 381v473q0 92 21.5 162t58 114.5t90.5 72.5t112.5 39t130.5 11t131 -11t113 -39t91 -72.5t59 -114.5t22 -162v-473q0 -401 -416 -401q-72 0 -130.5 11t-112.5 39.5t-90.5 73t-58 115t-21.5 162.5zM326 381q0 -124 47 -177.5t159 -53.5t160.5 54t48.5 177v473 q0 123 -48.5 176t-160.5 53t-159 -52.5t-47 -176.5v-473zM410 1372l131 270h211l-209 -270h-133z" />
<glyph unicode="&#xd4;" d="M119 381v473q0 92 21.5 162t58 114.5t90.5 72.5t112.5 39t130.5 11t131 -11t113 -39t91 -72.5t59 -114.5t22 -162v-473q0 -401 -416 -401q-72 0 -130.5 11t-112.5 39.5t-90.5 73t-58 115t-21.5 162.5zM215 1364l242 305h157l242 -305h-147l-174 180l-173 -180h-147z M326 381q0 -124 47 -177.5t159 -53.5t160.5 54t48.5 177v473q0 123 -48.5 176t-160.5 53t-159 -52.5t-47 -176.5v-473z" />
<glyph unicode="&#xd5;" d="M119 381v473q0 92 21.5 162t58 114.5t90.5 72.5t112.5 39t130.5 11t131 -11t113 -39t91 -72.5t59 -114.5t22 -162v-473q0 -401 -416 -401q-72 0 -130.5 11t-112.5 39.5t-90.5 73t-58 115t-21.5 162.5zM203 1380q6 97 58.5 165.5t135.5 68.5q48 0 145.5 -49t137.5 -49 q35 0 59 29t29 69h96q-6 -97 -58.5 -165.5t-135.5 -68.5q-48 0 -145.5 49.5t-137.5 49.5q-35 0 -59 -29t-29 -70h-96zM326 381q0 -124 47 -177.5t159 -53.5t160.5 54t48.5 177v473q0 123 -48.5 176t-160.5 53t-159 -52.5t-47 -176.5v-473z" />
<glyph unicode="&#xd6;" d="M119 381v473q0 92 21.5 162t58 114.5t90.5 72.5t112.5 39t130.5 11t131 -11t113 -39t91 -72.5t59 -114.5t22 -162v-473q0 -401 -416 -401q-72 0 -130.5 11t-112.5 39.5t-90.5 73t-58 115t-21.5 162.5zM268 1360v248h176v-248h-176zM326 381q0 -124 47 -177.5t159 -53.5 t160.5 54t48.5 177v473q0 123 -48.5 176t-160.5 53t-159 -52.5t-47 -176.5v-473zM627 1360v248h176v-248h-176z" />
<glyph unicode="&#xd7;" horiz-adv-x="888" d="M109 297l235 235l-235 238l98 98l237 -235l236 235l100 -98l-237 -238l237 -235l-100 -98l-236 235l-237 -235z" />
<glyph unicode="&#xd8;" horiz-adv-x="1071" d="M98 -61l95 176q-72 98 -72 266v473q0 114 32 194.5t91 124t129.5 62t161.5 18.5q151 0 241 -49l49 90h148l-94 -176q71 -96 71 -264v-473q0 -92 -21.5 -162.5t-58.5 -115t-91 -73t-113 -39.5t-131 -11q-150 0 -240 49l-49 -90h-148zM328 432q0 -33 4 -65l358 667 q-46 49 -155 49q-112 0 -159.5 -53t-47.5 -176v-422zM381 199q46 -49 154 -49q112 0 160 53.5t48 177.5v418q0 35 -4 67z" />
<glyph unicode="&#xd9;" d="M129 381v852h207v-852q0 -128 41.5 -179.5t154.5 -51.5t156 52t43 179v852h207v-852q0 -114 -30.5 -194.5t-88 -124.5t-127.5 -63t-160 -19t-159.5 19t-126.5 63t-87 124.5t-30 194.5zM299 1642h211l131 -270h-133z" />
<glyph unicode="&#xda;" d="M129 381v852h207v-852q0 -128 41.5 -179.5t154.5 -51.5t156 52t43 179v852h207v-852q0 -114 -30.5 -194.5t-88 -124.5t-127.5 -63t-160 -19t-159.5 19t-126.5 63t-87 124.5t-30 194.5zM416 1372l131 270h211l-209 -270h-133z" />
<glyph unicode="&#xdb;" d="M129 381v852h207v-852q0 -128 41.5 -179.5t154.5 -51.5t156 52t43 179v852h207v-852q0 -114 -30.5 -194.5t-88 -124.5t-127.5 -63t-160 -19t-159.5 19t-126.5 63t-87 124.5t-30 194.5zM213 1364l242 305h157l242 -305h-147l-175 180l-172 -180h-147z" />
<glyph unicode="&#xdc;" d="M129 381v852h207v-852q0 -128 41.5 -179.5t154.5 -51.5t156 52t43 179v852h207v-852q0 -114 -30.5 -194.5t-88 -124.5t-127.5 -63t-160 -19t-159.5 19t-126.5 63t-87 124.5t-30 194.5zM266 1360v248h176v-248h-176zM625 1360v248h176v-248h-176z" />
<glyph unicode="&#xdd;" horiz-adv-x="946" d="M0 1233h236l258 -496h4l260 496h188l-371 -680v-553h-204v553zM377 1372l131 270h211l-209 -270h-133z" />
<glyph unicode="&#xde;" horiz-adv-x="1030" d="M129 0v1233h207v-211h176q94 0 165.5 -16.5t132.5 -56.5t93.5 -117t32.5 -189v-31q0 -401 -420 -401h-180v-211h-207zM336 367h164q121 0 175 61.5t54 181.5v35q0 124 -49.5 172.5t-173.5 48.5h-170v-499z" />
<glyph unicode="&#xdf;" horiz-adv-x="997" d="M121 -410v1319q0 46 6.5 88.5t30.5 95.5t62.5 91.5t110.5 65t167 26.5q86 0 156.5 -27.5t117.5 -90t47 -152.5q0 -55 -25.5 -102t-54 -71t-71 -54t-54.5 -40q-24 -21 -24 -47q0 -23 16 -45q18 -23 61 -49.5t87.5 -53.5t87.5 -64t70.5 -95.5t27.5 -132.5v-14 q0 -64 -18 -112t-48 -77t-75 -47t-91.5 -24.5t-105.5 -6.5q-96 0 -196 33l28 146q98 -31 168 -31q80 0 121 24.5t41 85.5v11q0 43 -19 77.5t-49.5 58t-67.5 44.5t-74 44.5t-67.5 51.5t-49.5 71.5t-19 98.5q0 40 12 73t31 54.5t42 39.5t45.5 33t41.5 31t31 38t12 49 q0 57 -41 84.5t-107 27.5q-36 0 -63 -9t-53 -33.5t-40 -76.5t-14 -129v-1278h-194z" />
<glyph unicode="&#xe0;" horiz-adv-x="874" d="M68 264q0 157 78.5 225t240.5 68h172v23q0 54 -4.5 82t-22 51.5t-53.5 32t-98 8.5q-67 0 -195 -25l-22 139q142 31 270 31q316 0 316 -285v-403l47 -211h-176l-23 98q-43 -55 -113.5 -86.5t-150.5 -31.5q-114 0 -190 71.5t-76 212.5zM190 1294h211l131 -270h-133z M254 272q0 -28 1.5 -45t8 -37t19 -31t35.5 -18.5t57 -7.5q59 0 108.5 37t75.5 94v168h-151q-90 0 -122 -38.5t-32 -121.5z" />
<glyph unicode="&#xe1;" horiz-adv-x="874" d="M68 264q0 157 78.5 225t240.5 68h172v23q0 54 -4.5 82t-22 51.5t-53.5 32t-98 8.5q-67 0 -195 -25l-22 139q142 31 270 31q316 0 316 -285v-403l47 -211h-176l-23 98q-43 -55 -113.5 -86.5t-150.5 -31.5q-114 0 -190 71.5t-76 212.5zM254 272q0 -28 1.5 -45t8 -37t19 -31 t35.5 -18.5t57 -7.5q59 0 108.5 37t75.5 94v168h-151q-90 0 -122 -38.5t-32 -121.5zM297 1024l131 270h211l-209 -270h-133z" />
<glyph unicode="&#xe2;" horiz-adv-x="874" d="M68 264q0 157 78.5 225t240.5 68h172v23q0 54 -4.5 82t-22 51.5t-53.5 32t-98 8.5q-67 0 -195 -25l-22 139q142 31 270 31q316 0 316 -285v-403l47 -211h-176l-23 98q-43 -55 -113.5 -86.5t-150.5 -31.5q-114 0 -190 71.5t-76 212.5zM102 1016l242 305h158l241 -305h-147 l-174 180l-172 -180h-148zM254 272q0 -28 1.5 -45t8 -37t19 -31t35.5 -18.5t57 -7.5q59 0 108.5 37t75.5 94v168h-151q-90 0 -122 -38.5t-32 -121.5z" />
<glyph unicode="&#xe3;" horiz-adv-x="874" d="M68 264q0 157 78.5 225t240.5 68h172v23q0 54 -4.5 82t-22 51.5t-53.5 32t-98 8.5q-67 0 -195 -25l-22 139q142 31 270 31q316 0 316 -285v-403l47 -211h-176l-23 98q-43 -55 -113.5 -86.5t-150.5 -31.5q-114 0 -190 71.5t-76 212.5zM92 1038q6 97 59 165.5t136 68.5 q49 0 146 -49t136 -49q35 0 59 29t29 69h97q-6 -97 -59 -165.5t-136 -68.5q-49 0 -146 49.5t-137 49.5q-35 0 -59 -29t-29 -70h-96zM254 272q0 -28 1.5 -45t8 -37t19 -31t35.5 -18.5t57 -7.5q59 0 108.5 37t75.5 94v168h-151q-90 0 -122 -38.5t-32 -121.5z" />
<glyph unicode="&#xe4;" horiz-adv-x="874" d="M68 264q0 157 78.5 225t240.5 68h172v23q0 54 -4.5 82t-22 51.5t-53.5 32t-98 8.5q-67 0 -195 -25l-22 139q142 31 270 31q316 0 316 -285v-403l47 -211h-176l-23 98q-43 -55 -113.5 -86.5t-150.5 -31.5q-114 0 -190 71.5t-76 212.5zM172 1032v248h176v-248h-176z M254 272q0 -28 1.5 -45t8 -37t19 -31t35.5 -18.5t57 -7.5q59 0 108.5 37t75.5 94v168h-151q-90 0 -122 -38.5t-32 -121.5zM530 1032v248h177v-248h-177z" />
<glyph unicode="&#xe5;" horiz-adv-x="874" d="M68 264q0 157 78.5 225t240.5 68h172v23q0 54 -4.5 82t-22 51.5t-53.5 32t-98 8.5q-67 0 -195 -25l-22 139q142 31 270 31q316 0 316 -285v-403l47 -211h-176l-23 98q-43 -55 -113.5 -86.5t-150.5 -31.5q-114 0 -190 71.5t-76 212.5zM254 272q0 -28 1.5 -45t8 -37t19 -31 t35.5 -18.5t57 -7.5q59 0 108.5 37t75.5 94v168h-151q-90 0 -122 -38.5t-32 -121.5zM268 1165q0 68 47.5 116t118.5 48t119.5 -48t48.5 -116t-48.5 -117t-119.5 -49t-118.5 48.5t-47.5 117.5zM356 1165q0 -33 23 -57.5t55 -24.5t56 25t24 57t-24 57t-56 25q-33 0 -55.5 -24 t-22.5 -58z" />
<glyph unicode="&#xe6;" horiz-adv-x="1323" d="M72 264q0 141 77.5 196.5t237.5 55.5h182v64q0 53 -5 81.5t-23.5 52t-55 32t-98.5 8.5q-71 0 -199 -25l-20 139q142 31 272 31q162 0 232 -76q73 76 231 76q78 0 134 -16.5t100 -56.5t66 -113.5t22 -180.5v-141h-471v-47q0 -107 35.5 -159t130.5 -52q152 0 280 25 l10 -138q-174 -40 -290 -40q-224 0 -297 143q-99 -143 -283 -143q-115 0 -191.5 71.5t-76.5 212.5zM256 272q0 -69 26 -104t101 -35q59 0 109.5 37.5t76.5 93.5v127h-155q-88 0 -123 -25.5t-35 -93.5zM754 516h290v29q0 55 -3.5 86t-17 61t-43 43t-77.5 13q-40 0 -67.5 -9.5 t-43.5 -25t-24.5 -43.5t-11 -55.5t-2.5 -69.5v-29z" />
<glyph unicode="&#xe7;" horiz-adv-x="811" d="M98 348v184q0 86 19.5 151t52.5 105.5t81 66t99 35t113 9.5q119 0 274 -65l-22 -144q-152 58 -252 58q-95 0 -134.5 -52.5t-39.5 -165.5v-182q0 -112 39 -163.5t135 -51.5q103 0 252 57l22 -143q-160 -67 -274 -67q-62 0 -113 9.5t-99 35t-81 66t-52.5 106t-19.5 151.5z M215 -352l209 270h133l-131 -270h-211z" />
<glyph unicode="&#xe8;" horiz-adv-x="897" d="M98 348v184q0 86 18.5 150.5t50 105.5t78 66t96.5 35t112 10q79 0 138 -16.5t108 -56.5t74.5 -113.5t25.5 -180.5v-143h-510v-43q0 -108 35 -160.5t133 -52.5q195 0 317 25l10 -138q-174 -40 -327 -40q-79 0 -139.5 16.5t-112 56t-79.5 114t-28 181.5zM244 1294h211 l131 -270h-133zM289 516h325v25q0 52 -6 86t-22.5 63.5t-49 43.5t-83.5 14q-97 0 -130.5 -51t-33.5 -156v-25z" />
<glyph unicode="&#xe9;" horiz-adv-x="897" d="M98 348v184q0 86 18.5 150.5t50 105.5t78 66t96.5 35t112 10q79 0 138 -16.5t108 -56.5t74.5 -113.5t25.5 -180.5v-143h-510v-43q0 -108 35 -160.5t133 -52.5q195 0 317 25l10 -138q-174 -40 -327 -40q-79 0 -139.5 16.5t-112 56t-79.5 114t-28 181.5zM289 516h325v25 q0 52 -6 86t-22.5 63.5t-49 43.5t-83.5 14q-97 0 -130.5 -51t-33.5 -156v-25zM348 1024l131 270h211l-209 -270h-133z" />
<glyph unicode="&#xea;" horiz-adv-x="897" d="M98 348v184q0 86 18.5 150.5t50 105.5t78 66t96.5 35t112 10q79 0 138 -16.5t108 -56.5t74.5 -113.5t25.5 -180.5v-143h-510v-43q0 -108 35 -160.5t133 -52.5q195 0 317 25l10 -138q-174 -40 -327 -40q-79 0 -139.5 16.5t-112 56t-79.5 114t-28 181.5zM137 1016l242 305 h158l241 -305h-147l-174 180l-172 -180h-148zM289 516h325v25q0 52 -6 86t-22.5 63.5t-49 43.5t-83.5 14q-97 0 -130.5 -51t-33.5 -156v-25z" />
<glyph unicode="&#xeb;" horiz-adv-x="897" d="M98 348v184q0 86 18.5 150.5t50 105.5t78 66t96.5 35t112 10q79 0 138 -16.5t108 -56.5t74.5 -113.5t25.5 -180.5v-143h-510v-43q0 -108 35 -160.5t133 -52.5q195 0 317 25l10 -138q-174 -40 -327 -40q-79 0 -139.5 16.5t-112 56t-79.5 114t-28 181.5zM186 1032v248h176 v-248h-176zM289 516h325v25q0 52 -6 86t-22.5 63.5t-49 43.5t-83.5 14q-97 0 -130.5 -51t-33.5 -156v-25zM545 1032v248h176v-248h-176z" />
<glyph unicode="&#xec;" horiz-adv-x="460" d="M-23 1294h211l131 -270h-133zM135 0v879h191v-879h-191z" />
<glyph unicode="&#xed;" horiz-adv-x="460" d="M135 0v879h191v-879h-191zM147 1024l132 270h210l-208 -270h-134z" />
<glyph unicode="&#xee;" horiz-adv-x="460" d="M-45 1016l203 305h157l201 -305h-149l-131 180l-132 -180h-149zM135 0v879h191v-879h-191z" />
<glyph unicode="&#xef;" horiz-adv-x="460" d="M-18 1032v248h176v-248h-176zM135 0v879h191v-879h-191zM301 1032v248h176v-248h-176z" />
<glyph unicode="&#xf0;" horiz-adv-x="907" d="M98 348v184q0 103 26.5 178.5t73.5 116.5t104.5 58.5t127.5 13.5q6 3 10.5 3t13 -2.5t11.5 -2.5l-84 131l-211 -45l-25 107l172 36l-79 123l168 29l79 -115l209 43l23 -106l-164 -35l182 -264q74 -106 74 -269v-184q0 -106 -27.5 -180.5t-78.5 -114t-111.5 -56.5 t-138.5 -17q-62 0 -112 10t-96.5 35.5t-78 66t-50 105.5t-18.5 151zM289 350q0 -110 33.5 -163.5t130.5 -53.5t131 54t34 163v182q0 109 -34 162.5t-131 53.5t-130.5 -53t-33.5 -163v-182z" />
<glyph unicode="&#xf1;" horiz-adv-x="950" d="M78 879h172l16 -78q51 47 125 72.5t156 25.5q140 0 214.5 -79.5t74.5 -262.5v-557h-191v555q0 96 -29.5 143t-109.5 47q-54 0 -109 -23.5t-86 -64.5v-657h-188v670zM150 1038q6 97 58.5 165.5t135.5 68.5q48 0 146 -49t137 -49q35 0 59 29t29 69h96q-6 -97 -59 -165.5 t-136 -68.5q-48 0 -145 49.5t-137 49.5q-35 0 -59 -29t-29 -70h-96z" />
<glyph unicode="&#xf2;" horiz-adv-x="907" d="M98 348v184q0 86 18.5 150.5t50 105.5t78 66t96.5 35t112 10t112.5 -10t97 -35t78 -66t50 -105.5t18.5 -150.5v-184q0 -106 -27.5 -180.5t-78.5 -114t-111.5 -56.5t-138.5 -17q-62 0 -112 10t-96.5 35.5t-78 66t-50 105.5t-18.5 151zM231 1294h211l131 -270h-133z M289 350q0 -110 33.5 -163.5t130.5 -53.5t131 54t34 163v182q0 109 -34 162.5t-131 53.5t-130.5 -53t-33.5 -163v-182z" />
<glyph unicode="&#xf3;" horiz-adv-x="907" d="M98 348v184q0 86 18.5 150.5t50 105.5t78 66t96.5 35t112 10t112.5 -10t97 -35t78 -66t50 -105.5t18.5 -150.5v-184q0 -106 -27.5 -180.5t-78.5 -114t-111.5 -56.5t-138.5 -17q-62 0 -112 10t-96.5 35.5t-78 66t-50 105.5t-18.5 151zM289 350q0 -110 33.5 -163.5 t130.5 -53.5t131 54t34 163v182q0 109 -34 162.5t-131 53.5t-130.5 -53t-33.5 -163v-182zM334 1024l131 270h211l-209 -270h-133z" />
<glyph unicode="&#xf4;" horiz-adv-x="907" d="M98 348v184q0 86 18.5 150.5t50 105.5t78 66t96.5 35t112 10t112.5 -10t97 -35t78 -66t50 -105.5t18.5 -150.5v-184q0 -106 -27.5 -180.5t-78.5 -114t-111.5 -56.5t-138.5 -17q-62 0 -112 10t-96.5 35.5t-78 66t-50 105.5t-18.5 151zM133 1016l242 305h157l242 -305h-147 l-174 180l-172 -180h-148zM289 350q0 -110 33.5 -163.5t130.5 -53.5t131 54t34 163v182q0 109 -34 162.5t-131 53.5t-130.5 -53t-33.5 -163v-182z" />
<glyph unicode="&#xf5;" horiz-adv-x="907" d="M98 348v184q0 86 18.5 150.5t50 105.5t78 66t96.5 35t112 10t112.5 -10t97 -35t78 -66t50 -105.5t18.5 -150.5v-184q0 -106 -27.5 -180.5t-78.5 -114t-111.5 -56.5t-138.5 -17q-62 0 -112 10t-96.5 35.5t-78 66t-50 105.5t-18.5 151zM121 1038q6 97 58.5 165.5 t135.5 68.5q49 0 146 -49t137 -49q35 0 59 29t29 69h96q-6 -97 -58.5 -165.5t-135.5 -68.5q-48 0 -146 49.5t-137 49.5q-35 0 -59 -29t-29 -70h-96zM289 350q0 -110 33.5 -163.5t130.5 -53.5t131 54t34 163v182q0 109 -34 162.5t-131 53.5t-130.5 -53t-33.5 -163v-182z" />
<glyph unicode="&#xf6;" horiz-adv-x="907" d="M98 348v184q0 86 18.5 150.5t50 105.5t78 66t96.5 35t112 10t112.5 -10t97 -35t78 -66t50 -105.5t18.5 -150.5v-184q0 -106 -27.5 -180.5t-78.5 -114t-111.5 -56.5t-138.5 -17q-62 0 -112 10t-96.5 35.5t-78 66t-50 105.5t-18.5 151zM186 1032v248h176v-248h-176z M289 350q0 -110 33.5 -163.5t130.5 -53.5t131 54t34 163v182q0 109 -34 162.5t-131 53.5t-130.5 -53t-33.5 -163v-182zM545 1032v248h176v-248h-176z" />
<glyph unicode="&#xf7;" horiz-adv-x="1024" />
<glyph unicode="&#xf8;" horiz-adv-x="915" d="M92 -61l88 143q-76 92 -76 266v184q0 86 18.5 150.5t50 105.5t78 66t96.5 35t112 10q111 0 182 -31l41 68h141l-84 -141q74 -90 74 -263v-184q0 -106 -27 -180.5t-77.5 -114t-111 -56.5t-138.5 -17q-111 0 -180 30l-43 -71h-144zM293 377q0 -58 10 -96l258 442 q-39 25 -102 25q-97 0 -131.5 -53.5t-34.5 -162.5v-155zM360 156q41 -23 99 -23q97 0 131.5 54t34.5 163v150q0 60 -9 94z" />
<glyph unicode="&#xf9;" horiz-adv-x="944" d="M109 322v557h190v-555q0 -96 29.5 -143.5t109.5 -47.5q54 0 108 23.5t85 64.5v658h190v-670l45 -209h-172l-16 80q-108 -100 -275 -100q-144 0 -219 79t-75 263zM217 1294h211l131 -270h-133z" />
<glyph unicode="&#xfa;" horiz-adv-x="944" d="M109 322v557h190v-555q0 -96 29.5 -143.5t109.5 -47.5q54 0 108 23.5t85 64.5v658h190v-670l45 -209h-172l-16 80q-108 -100 -275 -100q-144 0 -219 79t-75 263zM358 1024l131 270h211l-208 -270h-134z" />
<glyph unicode="&#xfb;" horiz-adv-x="944" d="M109 322v557h190v-555q0 -96 29.5 -143.5t109.5 -47.5q54 0 108 23.5t85 64.5v658h190v-670l45 -209h-172l-16 80q-108 -100 -275 -100q-144 0 -219 79t-75 263zM143 1016l242 305h158l241 -305h-147l-174 180l-172 -180h-148z" />
<glyph unicode="&#xfc;" horiz-adv-x="944" d="M109 322v557h190v-555q0 -96 29.5 -143.5t109.5 -47.5q54 0 108 23.5t85 64.5v658h190v-670l45 -209h-172l-16 80q-108 -100 -275 -100q-144 0 -219 79t-75 263zM201 1032v248h176v-248h-176zM559 1032v248h176v-248h-176z" />
<glyph unicode="&#xfd;" horiz-adv-x="774" d="M-51 -346l35 133q95 -31 161 -31q39 0 58.5 14t29.5 42l70 200l-293 867h201l190 -619h5l182 619h178l-291 -879l-94 -260q-26 -70 -79.5 -99.5t-149.5 -29.5q-109 0 -203 43zM295 1024l131 270h211l-209 -270h-133z" />
<glyph unicode="&#xfe;" horiz-adv-x="929" d="M119 -410v1713h190v-472q92 68 217 68q140 0 222.5 -93t82.5 -278v-180q0 -99 -25 -172t-70 -114.5t-102 -61.5t-126 -20q-113 0 -199 59v-449h-190zM309 205q31 -33 83 -52.5t100 -19.5q80 0 114.5 54.5t34.5 162.5v178q0 104 -30.5 160.5t-108.5 56.5q-53 0 -106.5 -23 t-86.5 -63v-454z" />
<glyph unicode="&#xff;" horiz-adv-x="774" d="M-51 -346l35 133q95 -31 161 -31q39 0 58.5 14t29.5 42l70 200l-293 867h201l190 -619h5l182 619h178l-291 -879l-94 -260q-26 -70 -79.5 -99.5t-149.5 -29.5q-109 0 -203 43zM125 1032v248h176v-248h-176zM483 1032v248h176v-248h-176z" />
<glyph unicode="&#x152;" horiz-adv-x="1517" d="M119 381v473q0 92 21.5 162t58 114.5t90.5 72.5t112.5 39t130.5 11l420 -20h475v-156h-475v-352h391v-158h-391v-411h498v-156h-498q-365 -20 -420 -20q-72 0 -130.5 11t-112.5 39.5t-90.5 73t-58 115t-21.5 162.5zM326 381q0 -124 47 -177.5t159 -53.5l213 6v921 q-156 6 -213 6q-112 0 -159 -52.5t-47 -176.5v-473z" />
<glyph unicode="&#x153;" horiz-adv-x="1417" d="M98 348v184q0 86 18.5 150.5t50 105.5t78 66t96.5 35t112 10q184 0 262 -90q78 90 260 90q62 0 111.5 -10t94 -35t74.5 -66t47 -105.5t17 -150.5v-143h-510v-41q0 -108 35 -161.5t135 -53.5q193 0 315 25l11 -138q-174 -40 -326 -40q-181 0 -264 92q-80 -92 -262 -92 q-62 0 -112 10t-96.5 35.5t-78 66t-50 105.5t-18.5 151zM289 350q0 -110 33.5 -163.5t130.5 -53.5t131 53.5t34 161.5v184q0 109 -34 162.5t-131 53.5t-130.5 -53t-33.5 -163v-182zM809 516h326v25q0 52 -5.5 86t-22 63.5t-49 43.5t-83.5 14q-97 0 -131.5 -51.5 t-34.5 -155.5v-25z" />
<glyph unicode="&#x178;" horiz-adv-x="946" d="M0 1233h236l258 -496h4l260 496h188l-371 -680v-553h-204v553zM209 1380v250h178v-250h-178zM569 1380v250h179v-250h-179z" />
<glyph unicode="&#x2c6;" horiz-adv-x="743" d="M51 995l242 305h158l241 -305h-147l-174 181l-172 -181h-148z" />
<glyph unicode="&#x2dc;" horiz-adv-x="743" d="M41 1012q6 97 59 165t136 68q48 0 145 -49t137 -49q35 0 59 29t29 69h96q-6 -97 -58.5 -165t-135.5 -68q-48 0 -146 49t-137 49q-35 0 -59 -29t-29 -69h-96z" />
<glyph unicode="&#x2000;" horiz-adv-x="838" />
<glyph unicode="&#x2001;" horiz-adv-x="1677" />
<glyph unicode="&#x2002;" horiz-adv-x="838" />
<glyph unicode="&#x2003;" horiz-adv-x="1677" />
<glyph unicode="&#x2004;" horiz-adv-x="559" />
<glyph unicode="&#x2005;" horiz-adv-x="419" />
<glyph unicode="&#x2006;" horiz-adv-x="279" />
<glyph unicode="&#x2007;" horiz-adv-x="279" />
<glyph unicode="&#x2008;" horiz-adv-x="209" />
<glyph unicode="&#x2009;" horiz-adv-x="335" />
<glyph unicode="&#x200a;" horiz-adv-x="93" />
<glyph unicode="&#x2010;" horiz-adv-x="612" d="M98 440v166h416v-166h-416z" />
<glyph unicode="&#x2011;" horiz-adv-x="612" d="M98 440v166h416v-166h-416z" />
<glyph unicode="&#x2012;" horiz-adv-x="612" d="M98 440v166h416v-166h-416z" />
<glyph unicode="&#x2013;" horiz-adv-x="923" d="M98 440v166h727v-166h-727z" />
<glyph unicode="&#x2014;" horiz-adv-x="1230" d="M98 440v166h1035v-166h-1035z" />
<glyph unicode="&#x2018;" horiz-adv-x="325" d="M59 674v233l117 326h84l-65 -299h71v-260h-207z" />
<glyph unicode="&#x2019;" horiz-adv-x="325" d="M59 973v260h207v-234l-116 -325h-84l65 299h-72z" />
<glyph unicode="&#x201a;" horiz-adv-x="395" d="M94 86v258h207v-231l-115 -328h-86l66 301h-72z" />
<glyph unicode="&#x201c;" horiz-adv-x="598" d="M59 674v233l117 326h84l-65 -299h71v-260h-207zM334 674v233l115 326h83l-63 -299h70v-260h-205z" />
<glyph unicode="&#x201d;" horiz-adv-x="598" d="M59 973v260h207v-234l-116 -325h-84l65 299h-72zM334 973v260h205v-234l-115 -325h-84l63 299h-69z" />
<glyph unicode="&#x201e;" horiz-adv-x="665" d="M94 86v258h207v-231l-115 -328h-86l66 301h-72zM369 86v258h206v-231l-116 -328h-84l65 301h-71z" />
<glyph unicode="&#x2022;" horiz-adv-x="538" d="M119 522v426h301v-426h-301z" />
<glyph unicode="&#x2026;" horiz-adv-x="1140" d="M98 0v260h199v-260h-199zM471 0v260h199v-260h-199zM846 0v260h198v-260h-198z" />
<glyph unicode="&#x202f;" horiz-adv-x="335" />
<glyph unicode="&#x2039;" horiz-adv-x="569" d="M78 477l178 357h154l-156 -357l156 -356h-154z" />
<glyph unicode="&#x203a;" horiz-adv-x="569" d="M160 121l155 356l-155 357h153l179 -357l-179 -356h-153z" />
<glyph unicode="&#x205f;" horiz-adv-x="419" />
<glyph unicode="&#x20ac;" horiz-adv-x="1024" d="M57 424v133h131v137h-131v133h131v29q0 114 30.5 194t87.5 123t126 61.5t160 18.5q100 0 199.5 -28.5t171.5 -63.5l-54 -147q-66 28 -151 49.5t-148 21.5q-124 0 -169.5 -51.5t-45.5 -181.5v-25h322v-133h-322v-137h322v-133h-322v-27q0 -123 50 -185t171 -62 q144 0 326 118l35 -147q-55 -47 -158.5 -94t-230.5 -47q-400 0 -400 417v27h-131z" />
<glyph unicode="&#x2122;" horiz-adv-x="1058" d="M37 1137v71h364v-71h-135v-484h-96v484h-133zM453 653v555h110l139 -407l142 407h108v-555h-96v379l-129 -379h-72l-123 369v-369h-79z" />
<glyph unicode="&#xe000;" horiz-adv-x="880" d="M0 0v881h881v-881h-881z" />
<glyph unicode="&#xfb01;" horiz-adv-x="985" d="M47 727v152h105q-9 165 -9 192q0 132 71 191t204 59q93 0 215 -39l-27 -135q-90 22 -172 22q-51 0 -73.5 -22.5t-22.5 -79.5l10 -188h504v-879h-188v727h-308v-727h-190v727h-119z" />
<glyph unicode="&#xfb02;" horiz-adv-x="1021" d="M47 727v152h105q-9 165 -9 192q0 256 277 256q39 0 144 -12.5t136 -18.5h189v-1296h-189v1153q-25 4 -126.5 13.5t-135.5 9.5q-53 0 -76.5 -25.5t-23.5 -83.5l10 -188h191v-152h-183v-727h-190v727h-119z" />
</font>
</defs>
</svg>
