<?xml version="1.0" standalone="no"?>
<!DOCTYPE svg PUBLIC "-//W3C//DTD SVG 1.1//EN" "http://www.w3.org/Graphics/SVG/1.1/DTD/svg11.dtd" >
<svg xmlns="http://www.w3.org/2000/svg">
<metadata></metadata>
<defs>
<font id="reykjavikone_ot_dgaugdgaugeIt" horiz-adv-x="950" >
<font-face units-per-em="2048" ascent="1536" descent="-512" />
<missing-glyph horiz-adv-x="376" />
<glyph horiz-adv-x="2048" />
<glyph horiz-adv-x="2048" />
<glyph unicode="&#xd;" horiz-adv-x="2048" />
<glyph unicode=" "  horiz-adv-x="376" />
<glyph unicode="&#x09;" horiz-adv-x="376" />
<glyph unicode="&#xa0;" horiz-adv-x="376" />
<glyph unicode="!" horiz-adv-x="516" d="M72 0l51 295h250l-51 -295h-250zM188 451l82 852h312l-215 -852h-179z" />
<glyph unicode="&#x22;" horiz-adv-x="833" d="M203 694l39 555h290l-157 -555h-172zM582 694l39 555h290l-157 -555h-172z" />
<glyph unicode="#" horiz-adv-x="1087" d="M43 315l53 154h168l62 184h-181l52 152h180l102 317h217l-102 -317h141l105 317h215l-105 -317h168l-51 -152h-166l-59 -184h174l-51 -154h-174l-105 -315h-215l104 315h-145l-104 -315h-215l102 315h-170zM477 469h150l61 184h-149z" />
<glyph unicode="$" horiz-adv-x="962" d="M45 150l98 198q133 -94 295 -94q51 0 85 7.5t59.5 32t33.5 66.5l2 15q7 40 -2.5 68.5t-45.5 52t-57.5 33t-81.5 31.5q-5 2 -7 3q-56 21 -96 43.5t-79 59.5t-53.5 92.5t-2.5 126.5l6 28q12 69 40 117.5t71.5 77t89 43.5t106.5 25l39 221h229l-39 -221q137 -19 219 -52 l-71 -202q-144 51 -279 51q-74 0 -109 -16.5t-42 -61.5l-2 -14q-7 -39 31 -65t116 -54q24 -9 43.5 -16.5t44.5 -19t44 -23t41 -27t38 -33t32 -38.5t25.5 -46t15.5 -53.5t6 -62.5t-7 -72l-7 -29q-16 -89 -64.5 -149t-113.5 -89.5t-157 -46.5l-43 -237h-230l41 231 q-149 22 -262 99z" />
<glyph unicode="%" horiz-adv-x="1503" d="M184 746q-7 56 6 112l19 100q10 60 31 112.5t56 99t89.5 73.5t122.5 27q69 0 117.5 -27.5t69.5 -72t28.5 -100.5t-4.5 -112l-19 -100q-11 -61 -32.5 -113t-56.5 -98t-90 -73t-124 -27t-117.5 27.5t-68.5 71.5t-27 100zM252 0l858 1249h238l-859 -1249h-237zM373 848 q-12 -68 2.5 -97.5t44.5 -29.5t56 29.5t38 97.5l21 121q23 127 -50 127q-69 0 -92 -127zM876 201q1 44 7 90l18 100q11 61 32 113t55.5 98t89 73t122.5 27q69 0 118 -27.5t70 -72t28.5 -100t-5.5 -111.5l-18 -100q-11 -61 -32.5 -113t-56.5 -98t-90 -73t-124 -27 q-55 0 -97 18t-65.5 48.5t-38 70.5t-13.5 84zM1065 281q-21 -127 47 -127q31 0 57 30t37 97l23 120q21 127 -51 127q-30 0 -55 -29.5t-36 -97.5z" />
<glyph unicode="&#x26;" horiz-adv-x="1234" d="M98 214.5q-14 65.5 4 154.5l13 71q34 181 233 295l-14 27q-28 45 -38 103t-1 114q15 82 52.5 139t95 87.5t123.5 43.5t151 13q35 0 100.5 -4t113.5 -8l48 -5l-57 -217q-197 12 -236 12q-43 0 -71 -23t-35 -65q-8 -39 18 -86l233 -397q17 54 25 98l23 131h245l-24 -141 q-33 -182 -131 -317l141 -240h-326l-32 51q-129 -69 -273 -69q-75 0 -136.5 11.5t-115.5 39t-84.5 72t-44.5 110zM389 356q-28 -155 129 -155q70 0 131 28l-184 308q-52 -39 -64 -107z" />
<glyph unicode="'" horiz-adv-x="454" d="M203 694l39 555h290l-157 -555h-172z" />
<glyph unicode="(" horiz-adv-x="671" d="M154 422q2 94 18 184q22 124 70.5 248.5t102 213.5t103.5 160.5t82 107.5l33 36h240q-12 -14 -31.5 -40.5t-72.5 -111t-97.5 -172t-91 -214.5t-68.5 -248q-21 -131 -20.5 -248t17 -216t36 -170.5t35.5 -111.5l16 -41h-239l-11 22t-25.5 60.5t-34 96t-32 125t-24.5 150.5 t-6 169z" />
<glyph unicode=")" horiz-adv-x="671" d="M-47 -201q11 14 30.5 40.5t72.5 111.5t97 172t90.5 214.5t67.5 248.5q22 131 21.5 248t-16.5 215.5t-35.5 170t-35.5 112.5l-16 40h240l11 -22t25.5 -60.5t34 -96t31.5 -125t24 -150.5t5.5 -169t-18.5 -184q-22 -124 -70 -248.5t-101 -213.5t-103 -160.5t-82 -107.5 l-33 -36h-240z" />
<glyph unicode="*" horiz-adv-x="856" d="M152 926l86 178l237 -109l25 275h182l-66 -275l267 109l26 -178l-272 -66l137 -205l-170 -112l-98 231l-184 -231l-134 112l218 205z" />
<glyph unicode="+" horiz-adv-x="907" d="M86 436l33 195h287l55 307h194l-55 -307h287l-33 -195h-287l-55 -307h-195l56 307h-287z" />
<glyph unicode="," horiz-adv-x="430" d="M-31 -313l131 313h-77l51 295h264l-47 -268l-199 -340h-123z" />
<glyph unicode="-" horiz-adv-x="643" d="M98 399l45 248h463l-45 -248h-463z" />
<glyph unicode="." horiz-adv-x="430" d="M25 0l51 295h258l-51 -295h-258z" />
<glyph unicode="/" horiz-adv-x="696" d="M-57 -41l628 1296h273l-629 -1296h-272z" />
<glyph unicode="0" horiz-adv-x="1052" d="M101 367q1 59 12 122l47 263q91 510 512 510q84 0 150.5 -20.5t108.5 -58t69.5 -85.5t38 -106.5t9.5 -117.5t-12 -122l-47 -263q-90 -509 -512 -509q-84 0 -150.5 20.5t-108.5 58t-69.5 85t-38 106t-9.5 117.5zM400 358.5q-3 -35.5 2 -57t16 -42.5t32.5 -30.5t53.5 -9.5 t57 9.5t43 31.5t29.5 41.5t22 57.5t15.5 60t13 68l47 267q8 42 11.5 67.5t6.5 61t-2 57t-16 42.5t-32.5 30.5t-53.5 9.5t-57 -9.5t-43 -31.5t-29.5 -41.5t-22 -57.5t-15.5 -60t-13 -68l-47 -267q-8 -42 -11.5 -67.5t-6.5 -61z" />
<glyph unicode="1" horiz-adv-x="1052" d="M49 0l39 225h279l137 779h-238l33 180l406 78h153l-184 -1037h246l-39 -225h-832z" />
<glyph unicode="2" horiz-adv-x="1052" d="M47 0q11 137 19 170q22 131 100 254.5t203 218.5q29 23 94 62t115.5 69.5t93.5 71t49 74.5l4 24q9 49 -15 68.5t-92 19.5q-67 0 -151.5 -23.5t-149.5 -58.5l-51 193q77 54 178 86.5t203 32.5q98 0 172.5 -17.5t128 -54.5t75 -100.5t5.5 -151.5l-4 -29q-10 -54 -35 -101.5 t-55.5 -80.5t-76 -67t-84 -57.5t-91.5 -56t-88 -57.5q-82 -58 -134.5 -118.5t-66.5 -141.5l-2 -4h518l-39 -225h-823z" />
<glyph unicode="3" horiz-adv-x="1052" d="M8 98l107 197q168 -86 317 -86q84 0 132.5 30.5t64.5 116.5l6 33q14 82 -24.5 120t-100.5 38h-215l39 225h160q142 0 165 135l7 33q10 55 -27 75.5t-119 20.5q-127 0 -274 -30l4 206q168 50 342 50q68 0 126.5 -8.5t113 -30.5t90 -57t51 -91.5t2.5 -130.5l-4 -31 q-25 -136 -148 -223q72 -42 105 -122.5t16 -178.5l-6 -33q-18 -100 -66 -174t-119 -117t-155 -63t-184 -20q-101 0 -219 32t-187 84z" />
<glyph unicode="4" horiz-adv-x="1052" d="M14 260l31 174l625 807h352l-133 -754h143l-41 -227h-143l-45 -260h-283l45 260h-551zM399 487h207l66 381z" />
<glyph unicode="5" horiz-adv-x="1052" d="M14 55l86 217q66 -29 156.5 -47t173.5 -18q178 0 209 176l6 37q18 101 -21 135.5t-157 34.5h-305l217 651h631l-41 -225h-377l-62 -197h7q236 0 346 -100.5t75 -296.5l-6 -35q-14 -84 -52.5 -154.5t-102.5 -128t-163 -90t-224 -32.5q-109 0 -221 19.5t-175 53.5z" />
<glyph unicode="6" horiz-adv-x="1052" d="M117 436q33 189 154 411.5t290 393.5h359q-129 -128 -209 -223t-148 -211q36 4 58 4q205 0 299 -101t63 -280l-10 -53q-67 -395 -500 -395q-198 0 -297 115.5t-59 338.5zM402 308q-2 -44 20.5 -72.5t71.5 -28.5q71 0 113 41t57 129l10 53q16 88 -12 122t-87 34 q-72 0 -110 -43.5t-53 -136.5q-8 -54 -10 -98z" />
<glyph unicode="7" horiz-adv-x="1052" d="M109 0l559 1016h-471l41 225h847l-22 -125l-612 -1116h-342z" />
<glyph unicode="8" horiz-adv-x="1052" d="M80 238q-5 58 6 133l8 45q17 91 75.5 169.5t133.5 119.5q-92 73 -70 200l9 43q14 83 54 145t99 98t128 53.5t149 17.5q63 0 118.5 -10.5t104 -34.5t81 -59.5t46 -89t2.5 -120.5l-8 -43q-11 -66 -49.5 -116.5t-89.5 -83.5q60 -42 91.5 -120.5t14.5 -168.5l-8 -45 q-69 -389 -498 -389q-61 0 -114.5 8t-103.5 26.5t-85.5 48t-62 72.5t-31.5 101zM397 371q-18 -97 5.5 -130.5t99.5 -33.5q74 0 109 33.5t53 130.5l8 45q16 91 -12 127.5t-93 36.5t-105 -36.5t-56 -127.5zM539 897q-11 -67 7 -88t58 -21q41 0 66.5 21t36.5 88l8 49 q9 50 -4.5 73t-61.5 23q-47 0 -70 -23t-32 -73z" />
<glyph unicode="9" horiz-adv-x="1052" d="M166 811l10 53q18 106 62.5 183.5t111 123.5t147.5 67.5t179 21.5q197 0 296.5 -115.5t59.5 -339.5q-33 -189 -154 -411.5t-290 -393.5h-359q128 127 208.5 223t150.5 213q-18 -6 -60 -6q-205 0 -299 101t-63 280zM475 811q-16 -88 12 -122t86 -34q72 0 110.5 44 t53.5 137q8 54 10 98t-20.5 72t-71.5 28q-71 0 -113 -41t-57 -129z" />
<glyph unicode=":" horiz-adv-x="450" d="M35 0l51 295h258l-51 -295h-258zM141 602l52 295h258l-52 -295h-258z" />
<glyph unicode=";" horiz-adv-x="450" d="M-20 -313l131 313h-78l51 295h264l-47 -268l-199 -340h-122zM141 602l52 295h258l-52 -295h-258z" />
<glyph unicode="&#x3c;" horiz-adv-x="649" d="M51 477l600 510l-53 -299l-264 -223l186 -223l-49 -275z" />
<glyph unicode="=" horiz-adv-x="815" d="M76 268l35 195h634l-34 -195h-635zM135 604l35 195h635l-35 -195h-635z" />
<glyph unicode="&#x3e;" horiz-adv-x="649" d="M43 -33l53 299l262 223l-184 224l49 274l420 -510z" />
<glyph unicode="?" horiz-adv-x="804" d="M145 0l52 295h249l-51 -295h-250zM174 1055l4 196q51 23 166 43.5t195 20.5q175 0 274.5 -74t75.5 -211q-10 -58 -44.5 -108.5t-79 -85t-96 -71.5t-95.5 -68.5t-78 -76t-43 -94.5q-11 -72 -11 -118h-215q-16 69 2 190q11 64 45 121t74.5 96.5t80 73t68.5 64.5t33 57 q8 52 -20 69t-92 17q-84 0 -244 -41z" />
<glyph unicode="@" horiz-adv-x="1345" d="M94.5 125q-3.5 99 14.5 213q17 97 51.5 189.5t89 177t122.5 148t158 101t189 37.5h305q173 0 249.5 -68t14.5 -216l-213 -504q-34 -85 -111.5 -127.5t-183.5 -42.5h-98q-77 0 -125.5 26.5t-64 69.5t-12 91t23.5 99l37 95q58 149 152.5 210.5t260.5 61.5h56l14 37 q20 43 8 64.5t-65 21.5h-230q-71 0 -138.5 -46t-117 -118.5t-84.5 -156t-49 -164.5q-42 -240 33 -344.5t266 -104.5q217 0 422 84l-4 -178q-94 -53 -204 -75.5t-265 -22.5q-122 0 -216 32t-153 90t-94 139.5t-38.5 180.5zM709 229.5q5 -20.5 41 -20.5h57l129 299h-23 q-22 0 -38 -3t-35 -12t-35.5 -29t-30.5 -52l-53 -127q-17 -35 -12 -55.5z" />
<glyph unicode="A" horiz-adv-x="1026" d="M-55 0l573 1241h307l133 -1241h-303l-24 262h-293l-119 -262h-274zM426 483h195l-29 396h-4z" />
<glyph unicode="B" horiz-adv-x="1079" d="M59 0l220 1241h423q172 0 270 -82q80 -66 80 -164q0 -23 -5 -47l-9 -43q-24 -143 -166 -237q76 -40 109 -117q23 -53 23 -112q0 -27 -5 -56l-8 -43q-26 -146 -148 -243t-304 -97h-480zM406 225h90q80 0 126 34t56 87l8 43q3 16 3 31q0 47 -28 75q-36 37 -133 37h-67z M500 760h49q72 0 117.5 33.5t54.5 85.5l8 45q2 10 2 20q1 32 -21 49q-28 23 -92 23h-73z" />
<glyph unicode="C" horiz-adv-x="1024" d="M118 244q-6 30 -6 65q0 49 11 105l76 434q20 114 63 195.5t107 128.5t141.5 68.5t175.5 21.5q112 0 230 -33t188 -70l-117 -213q-68 31 -154 54.5t-153 23.5q-81 0 -118 -34t-56 -146l-76 -430q-8 -44 -8 -77q0 -47 16 -73q28 -44 107 -43q165 0 387 133l6 -215 q-206 -157 -442 -157q-73 0 -134 13.5t-114.5 44.5t-84.5 81t-45 123z" />
<glyph unicode="D" horiz-adv-x="1110" d="M59 0l220 1241h405q101 0 179 -21.5t136.5 -68.5t80.5 -130q12 -44 13 -96q0 -47 -10 -100l-67 -389q-21 -119 -69 -205.5t-116.5 -136t-147.5 -72t-173 -22.5h-451zM403 225h111q79 0 127 46.5t68 152.5l71 414q8 45 8 77q0 47 -16 67q-28 34 -115 34h-114z" />
<glyph unicode="E" d="M59 0l220 1241h749l-41 -225h-444l-43 -254h364l-41 -227h-364l-56 -310h465l-39 -225h-770z" />
<glyph unicode="F" horiz-adv-x="899" d="M59 0l220 1241h749l-41 -225h-444l-43 -244h364l-39 -227h-364l-96 -545h-306z" />
<glyph unicode="G" horiz-adv-x="1110" d="M123 414l76 434q39 223 162 318.5t323 95.5q112 0 230 -33t188 -70l-117 -213q-68 31 -154 54.5t-153 23.5q-81 0 -118 -34t-56 -146l-76 -430q-8 -44 -8 -77q0 -47 16 -73q29 -43 107 -43q69 0 133 6l47 271h-164l39 227h457l-127 -725h-189q-110 -18 -245 -18 q-92 0 -165 22.5t-128.5 70.5t-76.5 135q-11 43 -11 95q0 51 10 109z" />
<glyph unicode="H" horiz-adv-x="1142" d="M59 0l220 1241h305l-84 -473h291l83 473h306l-219 -1241h-306l97 543h-291l-96 -543h-306z" />
<glyph unicode="I" horiz-adv-x="839" d="M-12 0l39 225h219l139 791h-219l41 225h741l-41 -225h-217l-139 -791h217l-39 -225h-741z" />
<glyph unicode="J" horiz-adv-x="862" d="M-43 51l84 225q43 -19 128.5 -35t145.5 -16q104 0 123 113l119 678h-264l41 225h569l-160 -909q-33 -185 -131 -267.5t-260 -82.5q-98 0 -216.5 21.5t-178.5 47.5z" />
<glyph unicode="K" horiz-adv-x="1073" d="M59 0l220 1241h305l-78 -440l340 440h350l-498 -590l346 -651h-323l-266 514l-90 -514h-306z" />
<glyph unicode="L" horiz-adv-x="905" d="M59 0l220 1241h305l-181 -1016h447l-39 -225h-752z" />
<glyph unicode="M" horiz-adv-x="1392" d="M59 0l220 1241h319l100 -840l400 840h332l-220 -1241h-292l126 723l-350 -723h-166l-86 707l-125 -707h-258z" />
<glyph unicode="N" horiz-adv-x="1140" d="M59 0l220 1241h247l279 -719l127 719h246l-220 -1241h-264l-266 700l-123 -700h-246z" />
<glyph unicode="O" horiz-adv-x="1107" d="M119 395l80 453q20 114 65 196t112 129t145.5 68t176.5 21q64 0 118.5 -9t104 -29t84.5 -52t59.5 -78t28.5 -107q1 -15 1 -32q0 -49 -9 -107l-79 -453q-20 -114 -65.5 -196t-113 -128.5t-146.5 -67.5t-177 -21t-173.5 21t-132.5 67q-56 48 -78 130q-11 43 -11 93 q0 48 10 102zM416 319q2 -31 8 -50t23 -30t35.5 -14.5t47.5 -3.5q73 0 112 34.5t58 139.5l80 453q8 36 8 63v13q-2 31 -8.5 50t-23.5 30t-36 14.5t-48 3.5q-73 0 -111 -34t-57 -140l-80 -453q-8 -36 -8 -63v-13z" />
<glyph unicode="P" horiz-adv-x="1056" d="M59 0l220 1241h393q65 0 120.5 -8t107.5 -26t88 -47.5t62 -73.5q28 -44 32 -104q1 -17 1 -36q0 -46 -8 -100l-6 -33q-73 -416 -502 -416h-133l-69 -397h-306zM475 625h96q158 0 191 186l6 37q7 36 7 63.5t-6.5 45.5t-16.5 30t-27.5 18t-35.5 8.5t-44 2.5h-102z" />
<glyph unicode="Q" horiz-adv-x="1107" d="M112 242q-4 26 -4 54q0 46 11 99l80 453q20 114 65 196t112 129t145.5 68t176.5 21q64 0 118.5 -9t104 -29t84.5 -52t59.5 -78t28.5 -107q1 -15 1 -32q0 -49 -9 -107l-79 -453q-54 -300 -291 -383l143 -352h-299l-108 324q-69 4 -125 20t-103 47.5t-73.5 78t-37.5 112.5z M416 319q3 -31 8.5 -50t22.5 -30t35.5 -14.5t47.5 -3.5q73 0 112 34.5t58 139.5l80 453q8 36 8 63v13q-3 31 -9 50t-23 30t-36 14.5t-48 3.5q-73 0 -111 -34t-57 -140l-80 -453q-8 -36 -8 -63v-13z" />
<glyph unicode="R" horiz-adv-x="1101" d="M59 0l220 1241h387q48 0 92 -4t92 -14.5t85.5 -28t73 -43.5t53.5 -62t28 -84q4 -20 4 -43q0 -31 -7 -65l-4 -23q-40 -229 -243 -321l149 -553h-321l-115 500h-100l-88 -500h-306zM494 727h92q165 0 190 139l6 37q2 13 2 25q0 42 -28 62q-36 26 -117 26h-96z" />
<glyph unicode="S" horiz-adv-x="1044" d="M29 98l110 221q64 -45 150.5 -74.5t177.5 -29.5q82 0 134.5 30.5t62.5 96.5l2 10q3 14 3 28q-1 56 -49 98q-60 52 -167 89q-264 91 -264 294q0 30 6 63l8 37q14 79 47.5 135.5t76 88t105 49.5t118.5 23t132 5q75 0 180.5 -19t179.5 -47l-79 -227q-164 59 -310 59 q-82 0 -120.5 -18.5t-47.5 -69.5l-2 -16q-1 -5 -1 -11q0 -33 38 -65q44 -36 123 -64q26 -9 48.5 -18t49.5 -21.5t49 -26t46 -30.5t42.5 -37t35.5 -43.5t27.5 -51t17.5 -58.5q7 -29 7 -63q0 -39 -8 -83l-4 -28q-60 -342 -524 -342q-103 0 -213 31.5t-188 84.5z" />
<glyph unicode="T" horiz-adv-x="919" d="M141 1016l41 225h871l-41 -225h-283l-178 -1016h-305l178 1016h-283z" />
<glyph unicode="U" horiz-adv-x="1110" d="M128 200q-10 40 -9 89q0 49 10 106l150 846h305l-150 -846q-8 -47 -8.5 -78.5t5 -50.5t21 -29t33.5 -13t47 -3q37 0 59 5.5t43 23t34.5 52.5t23.5 93l150 846h305l-150 -846q-16 -92 -48 -162.5t-75.5 -117.5t-101.5 -77t-123 -43t-143 -13q-99 0 -173.5 21.5t-129.5 68 t-75 128.5z" />
<glyph unicode="V" horiz-adv-x="983" d="M164 1241h309l41 -856h4l340 856h277l-551 -1241h-310z" />
<glyph unicode="W" horiz-adv-x="1464" d="M205 1241h297l-27 -801l326 801h205l38 -797l263 797h268l-451 -1241h-288l-41 741l-301 -741h-277z" />
<glyph unicode="X" horiz-adv-x="1015" d="M-74 0l482 639l-213 602h321l105 -346l241 346h301l-446 -588l229 -653h-321l-119 397l-281 -397h-299z" />
<glyph unicode="Y" horiz-adv-x="985" d="M139 1241h326l125 -438h4l280 438h287l-479 -680l-98 -561h-305l98 561z" />
<glyph unicode="Z" horiz-adv-x="991" d="M6 0l37 211l598 797v8h-457l41 225h844l-37 -207l-606 -801l-2 -8h465l-39 -225h-844z" />
<glyph unicode="[" horiz-adv-x="659" d="M55 -193l277 1565h469l-27 -149h-213l-223 -1264h213l-27 -152h-469z" />
<glyph unicode="\" horiz-adv-x="696" d="M182 1255h250l170 -1296h-250z" />
<glyph unicode="]" horiz-adv-x="659" d="M-57 -201l26 152h213l224 1263h-213l24 150h469l-274 -1565h-469z" />
<glyph unicode="^" horiz-adv-x="923" d="M127 733l401 459h166l240 -467l-174 -98l-176 360l-305 -360z" />
<glyph unicode="_" horiz-adv-x="702" d="M-121 -264l29 164h727l-29 -164h-727z" />
<glyph unicode="`" horiz-adv-x="794" d="M272 1282h267l123 -270h-170z" />
<glyph unicode="a" horiz-adv-x="970" d="M94 367l29 168q19 106 59.5 181.5t100 118t128.5 61.5t154 19q117 0 293 -24l96 -14l-112 -639l14 -238h-252l-4 59q-108 -77 -221 -77q-161 0 -239 102q-55 73 -55 185q0 46 9 98zM370 245q8 -44 56 -44q76 0 135 53l76 436q-46 6 -92 6q-57 0 -88 -32t-49 -129 l-29 -168q-12 -53 -12 -90q0 -18 3 -32z" />
<glyph unicode="b" horiz-adv-x="972" d="M49 0l207 1167q6 36 7 72.5t-1 54.5l-2 19h285q4 -27 4 -56q0 -42 -8 -90l-49 -278q67 26 137 26q163 -1 241 -103q55 -73 54 -183q0 -46 -9 -99l-30 -168q-19 -106 -59.5 -181.5t-100.5 -118t-129.5 -61.5t-155.5 -19q-29 0 -63.5 3t-77 8t-61.5 7h-189zM371 207 q47 -6 92 -6q57 0 88 32t49 129l31 168q11 52 11 89q0 18 -2 33q-8 44 -58 44q-77 0 -136 -53z" />
<glyph unicode="c" horiz-adv-x="864" d="M87 210q-5 27 -5 58q0 43 10 94l31 173q19 106 59.5 181.5t100 118t128.5 61.5t154 19q78 0 166.5 -22.5t153.5 -52.5l-72 -207q-164 65 -266 65q-56 0 -88.5 -34t-50.5 -132l-31 -170q-8 -43 -8 -74q0 -38 12 -56q21 -33 78 -33q102 0 291 65l-2 -207q-193 -75 -316 -75 q-68 0 -123.5 11.5t-104.5 38.5t-77 70.5t-40 107.5z" />
<glyph unicode="d" horiz-adv-x="970" d="M94 367l29 168q19 106 60 181.5t100.5 118t129 61.5t154.5 19q65 0 109 -6l47 258q6 36 7 72.5t-1 54.5l-2 19h285q4 -27 4 -56q0 -42 -8 -90l-166 -929l14 -238h-252l-4 51q-101 -69 -221 -69q-161 0 -239 102q-55 73 -55 185q0 46 9 98zM370 245q8 -44 56 -44 q76 0 135 53l76 436q-46 6 -92 6q-57 0 -88 -32t-49 -129l-29 -168q-12 -53 -12 -90q0 -18 3 -32z" />
<glyph unicode="e" horiz-adv-x="927" d="M92 362l31 173q19 106 58 181t97 118t126.5 62t154.5 19q54 0 105 -9.5t97.5 -31t78.5 -53.5q33 -33 48 -81q9 -29 9 -61q0 -22 -4 -46q-13 -76 -48.5 -131t-89 -86t-110.5 -46.5t-129 -21.5l-143 -12l-2 -14q-4 -22 -4 -41q0 -29 10 -49q16 -32 76 -31q88 0 194 9 t156 19l-21 -202q-205 -45 -352 -45q-86 0 -152.5 19.5t-116.5 61.5q-51 42 -69 118q-9 39 -9 84t9 97zM406 522l102 8q104 7 117 95q1 7 1 14q0 24 -14 41q-18 22 -65 22q-61 0 -92.5 -38.5t-46.5 -126.5z" />
<glyph unicode="f" horiz-adv-x="702" d="M16 -410l191 1088h-111l39 219h98q17 127 21 154q26 143 110.5 210.5t231.5 67.5q128 0 268 -45l-73 -194q-97 26 -187 26q-53 0 -65 -65l-19 -154h232l-39 -219h-221l-191 -1088h-285z" />
<glyph unicode="g" horiz-adv-x="970" d="M10 -348l84 205q60 -16 159.5 -34t160.5 -18q70 0 82 72l22 135q-70 -30 -139 -30q-161 0 -239 102q-55 73 -55 185q0 46 9 98l29 168q19 106 60 181.5t100.5 118t129 61.5t154.5 19q115 0 291 -24l96 -14l-176 -1010q-49 -277 -368 -277q-84 0 -205.5 19.5t-194.5 42.5z M370 245q8 -44 56 -44q76 0 135 53l76 436q-46 6 -92 6q-57 0 -88 -32t-49 -129l-29 -168q-12 -53 -12 -90q0 -18 3 -32z" />
<glyph unicode="h" horiz-adv-x="991" d="M49 0l207 1167q6 36 7 72.5t-1 54.5l-2 19h285q4 -27 4 -56q0 -42 -8 -90l-49 -276q68 24 163 24q159 1 229 -89q48 -61 49 -166q0 -48 -11 -105l-72 -410q-7 -36 -8.5 -72.5t0.5 -54.5l2 -18h-285q-4 24 -4 51q0 43 10 94l72 410q10 39 10 69q1 17 -3 32q-8 40 -58 40 q-81 0 -140 -53l-112 -643h-285z" />
<glyph unicode="i" horiz-adv-x="518" d="M76 0q-4 24 -4 51q0 43 10 94l131 752h285l-131 -752q-7 -36 -9 -72.5t0 -54.5l2 -18h-284zM236 1020l24 145q6 36 7.5 72.5t0.5 54.5l-2 19h285q3 -23 3 -49q0 -45 -9 -97l-25 -145h-284z" />
<glyph unicode="j" horiz-adv-x="526" d="M-229 -379l63 203q74 -17 141 -17q25 0 42.5 15.5t21.5 42.5l182 1032h285l-182 -1038q-25 -138 -104 -203.5t-224 -65.5q-101 0 -225 31zM244 1020l24 145q6 36 7.5 72.5t0.5 54.5l-2 19h285q3 -23 3 -49q0 -45 -9 -97l-25 -145h-284z" />
<glyph unicode="k" horiz-adv-x="899" d="M49 0l205 1165q6 36 7.5 72.5t0.5 54.5l-2 19h285q3 -23 3 -49q0 -45 -9 -97l-93 -526q42 58 114 139t116 119h340q-82 -69 -204.5 -194t-195.5 -220l254 -483h-319l-156 350l-61 -350h-285z" />
<glyph unicode="l" horiz-adv-x="518" d="M76 0q-4 24 -4 51q0 43 10 94l178 1020q6 36 7.5 72.5t0.5 54.5l-2 19h285q3 -23 3 -49q0 -45 -9 -97l-178 -1020q-7 -36 -9 -72.5t0 -54.5l2 -18h-284z" />
<glyph unicode="m" horiz-adv-x="1386" d="M63 0l117 659l-14 238h254l2 -45q92 63 213 63q152 0 211 -71q96 71 221 71q157 0 217 -87q39 -57 38 -154q0 -52 -11 -117l-72 -412q-6 -36 -7.5 -72.5t0.5 -54.5l1 -18h-277q-2 21 -2 44q0 46 9 101l71 416q9 38 9 67q1 17 -3 31q-8 37 -49 37q-58 0 -102 -53 l-113 -643h-276l98 561q9 41 9 71q0 15 -2 27q-7 37 -46 37q-62 0 -106 -53l-113 -643h-277z" />
<glyph unicode="n" horiz-adv-x="1011" d="M63 0l117 659l-14 238h254l4 -51q108 69 246 69q160 1 229 -89q47 -61 48 -165q0 -48 -11 -106l-72 -410q-7 -36 -8.5 -72.5t0.5 -54.5l2 -18h-285q-3 23 -3 48q0 45 10 97l71 410q10 39 10 69q1 17 -3 32q-8 40 -58 40q-80 0 -139 -53l-113 -643h-285z" />
<glyph unicode="o" d="M86 212q-5 26 -4 55q0 44 10 95l31 173q19 106 58 181t97 118t126.5 62t154.5 19q68 0 123.5 -12t103.5 -39t74 -70q26 -44 38 -108q5 -26 5 -56q0 -44 -10 -95l-31 -173q-19 -106 -58 -181t-97 -118t-126.5 -62t-154.5 -19q-68 0 -123.5 12t-103.5 39t-74.5 71 t-38.5 108zM368 280q0 -3 1 -5q-1 -33 17 -53q20 -22 63 -21q63 0 89 40.5t40 123.5l30 170q7 48 9 84v7q0 30 -17 50q-19 22 -63 22q-62 0 -88.5 -40.5t-40.5 -122.5l-31 -170q-7 -49 -9 -85z" />
<glyph unicode="p" horiz-adv-x="987" d="M-8 -410l188 1069l-14 238h252l4 -51q101 69 221 69q163 0 241 -103q55 -72 55 -184q0 -46 -9 -98l-31 -168q-19 -106 -59 -181.5t-99 -118t-127.5 -61.5t-154.5 -19q-67 0 -113 6l-70 -398h-284zM385 207q47 -6 92 -6q57 0 88 32t49 129l31 168q11 52 11 89q0 18 -2 33 q-9 44 -58 44q-76 0 -135 -53z" />
<glyph unicode="q" horiz-adv-x="972" d="M94 367l29 168q19 106 60 181.5t100.5 118t129 61.5t154.5 19q115 0 291 -24l96 -14l-178 -1012q-1 -9 -1 -17q0 -41 40 -41q57 0 113 17l-10 -207q-89 -27 -160 -27q-151 0 -220 68q-52 50 -52 137q0 30 6 64l26 153q-70 -30 -139 -30q-161 0 -239 102q-55 73 -55 185 q0 46 9 98zM372 245q9 -44 58 -44q72 0 131 53l76 436q-46 6 -92 6q-57 0 -88 -32t-49 -129l-29 -168q-11 -50 -11 -86q0 -20 4 -36z" />
<glyph unicode="r" horiz-adv-x="862" d="M63 0l117 659l-14 238h254l6 -82q119 100 231 100q128 0 188 -61.5t60 -187.5l-270 -50l-3 25.5t-4.5 21t-9 18.5t-16 10.5t-24.5 4.5q-61 0 -123 -92l-107 -604h-285z" />
<glyph unicode="s" horiz-adv-x="845" d="M14 70l76 194q60 -35 137 -56.5t146 -21.5q120 0 131 74l2 6q3 18 -5 34.5t-21 28t-34 22.5t-37 17t-36 13q-57 18 -98 38t-79 53q-38 32 -54 81q-9 29 -10 62q0 23 5 49l2 12q12 69 44.5 117t84 74t110.5 37t136 11q144 0 307 -65l-76 -193q-60 24 -135.5 40t-134.5 16 q-41 0 -58 -11t-22 -34l-2 -13q-2 -16 7.5 -28t31.5 -22.5t45 -18.5t59 -20t62 -23q81 -34 131 -103q37 -51 37 -119q0 -23 -4 -47l-6 -32q-11 -65 -38.5 -112t-63 -75t-87 -45t-102.5 -22.5t-117 -5.5q-85 0 -179 24.5t-155 63.5z" />
<glyph unicode="t" horiz-adv-x="741" d="M76 678l39 219h123l32 182l299 82l-47 -264h258l-39 -219h-258l-73 -420q-1 -5 -1 -10q0 -33 37 -33q85 0 222 18l-2 -208q-204 -33 -330 -33q-132 0 -182 68q-36 49 -37 122q0 29 6 62l76 434h-123z" />
<glyph unicode="u" horiz-adv-x="999" d="M98 340l74 412q6 36 7 72.5t-1 54.5l-2 18h285q4 -26 4 -56q0 -41 -8 -89l-74 -410q-9 -39 -10 -69q0 -19 4 -33q9 -40 57 -39q80 0 139 53l113 643h285l-117 -659l14 -238h-254l-4 51q-108 -69 -245 -69q-277 0 -277 253q0 48 10 105z" />
<glyph unicode="v" horiz-adv-x="839" d="M80 897h278q31 -63 39 -145l43 -396h4l228 541h264l-455 -897h-243l-119 752q-5 36 -15 72.5t-17 54.5z" />
<glyph unicode="w" horiz-adv-x="1171" d="M115 897h270q3 -7 7.5 -20t11.5 -51q6 -33 6 -65v-9l-11 -353l207 498h193l39 -483l157 483h236l-359 -897h-215l-41 514l-223 -514h-217l-37 752q-2 36 -8 72.5t-11 54.5z" />
<glyph unicode="x" horiz-adv-x="888" d="M-70 0l389 469l-116 283q-16 38 -35.5 74.5t-31.5 53.5l-11 17h301q39 -63 70 -145l22 -64l154 209h278l-344 -420l148 -332q18 -40 37.5 -76.5t29.5 -52.5l10 -16h-303q-32 49 -69 145l-49 123l-199 -268h-281z" />
<glyph unicode="y" horiz-adv-x="833" d="M-190 -356l84 192q100 -41 194 -41q49 0 70 37l82 160l-129 760q-5 36 -15 72.5t-17 54.5l-7 18h280q31 -63 39 -145l45 -375h4l226 520h264l-455 -897l-137 -260q-44 -81 -106 -115.5t-175 -34.5q-132 0 -247 54z" />
<glyph unicode="z" horiz-adv-x="890" d="M20 0l35 199l428 479h-340l39 219h715l-35 -201l-434 -479h360l-38 -217h-730z" />
<glyph unicode="{" horiz-adv-x="727" d="M45 498l33 182h37q106 0 147.5 41.5t63.5 161.5l28 168q39 216 160 278q49 24 101 33.5t135 9.5h98l-14 -143h-33q-93 0 -130.5 -45t-56.5 -152l-34 -201q-21 -115 -77.5 -164t-180.5 -77q57 -14 91.5 -30.5t59 -44.5t27 -67.5t-5.5 -99.5l-35 -203q-13 -65 -10.5 -108.5 t32.5 -64.5t94 -21h33l-37 -144h-77q-81 0 -131 9.5t-89 33.5q-57 35 -77.5 108t-3.5 169l30 170q21 120 -7 161.5t-134 41.5q-5 0 -18 -1t-19 -1z" />
<glyph unicode="|" horiz-adv-x="593" d="M76 -201l276 1573h250l-276 -1573h-250z" />
<glyph unicode="}" horiz-adv-x="727" d="M-37 -193l17 144h32q92 0 129.5 44t57.5 150l34 203q21 114 78.5 164t180.5 78q-77 19 -116.5 43t-55 71.5t-1.5 126.5l35 201q19 107 -3 152t-113 45h-33l35 143h77q83 0 132 -9.5t88 -33.5q58 -35 78.5 -108t2.5 -170l-28 -168q-22 -120 6 -161.5t135 -41.5h37 l-33 -182q-6 0 -19 1t-18 1q-106 0 -148.5 -41.5t-62.5 -161.5l-30 -170q-39 -217 -160 -277q-49 -24 -101 -33.5t-135 -9.5h-98z" />
<glyph unicode="~" horiz-adv-x="960" d="M100 518l21 121q19 109 79 175.5t148 66.5q57 0 119.5 -21.5t106 -47.5t87.5 -47.5t68 -21.5q47 0 59 66l9 55h184l-20 -121q-19 -109 -79 -175t-149 -66q-57 0 -119.5 21.5t-106 47t-87.5 47t-68 21.5q-47 0 -59 -66l-8 -55h-185z" />
<glyph unicode="&#xa1;" horiz-adv-x="532" d="M-18 -383l219 860h178l-86 -860h-311zM190 633l54 295h250l-54 -295h-250z" />
<glyph unicode="&#xa2;" horiz-adv-x="882" d="M123 535l31 172q55 318 327 370l37 217h225l-36 -217q112 -20 208 -65l-71 -207q-164 65 -266 65q-56 0 -89 -33.5t-51 -131.5l-30 -170q-18 -97 3 -130.5t78 -33.5q102 0 291 65l-2 -207q-140 -56 -233 -69l-39 -223h-225l41 233q-252 64 -199 365z" />
<glyph unicode="&#xa3;" horiz-adv-x="1042" d="M14 0l41 227h127l54 308h-127l41 227h126l15 86q20 114 63 195.5t107 128.5t141.5 68.5t175.5 21.5q177 0 332 -66l-100 -221q-134 49 -238 49q-81 0 -118 -34t-56 -146l-14 -82h250l-41 -227h-250l-56 -310h463l-39 -225h-897z" />
<glyph unicode="&#xa4;" horiz-adv-x="1085" d="M59 410l31 172h133l17 88h-134l29 172h133l4 12q38 221 162.5 314.5t327.5 93.5q112 0 227.5 -33t186.5 -70l-117 -213q-68 31 -154 54.5t-153 23.5q-42 0 -66.5 -5.5t-47 -23t-36 -52.5t-24.5 -93l-3 -8h297l-28 -172h-297l-17 -88h297l-30 -172h-297v-2 q-20 -105 9 -146t107 -41q166 0 388 133l6 -215q-29 -22 -66 -44t-95.5 -50t-133.5 -45.5t-152 -17.5q-73 0 -133.5 13t-114 43t-84 79t-44 121.5t5.5 169.5v2h-134z" />
<glyph unicode="&#xa5;" horiz-adv-x="1099" d="M96 416l37 215h275l-232 610h326l147 -428h4l299 428h287l-446 -610h274l-37 -215h-313l-74 -416h-307l74 416h-314z" />
<glyph unicode="&#xa6;" horiz-adv-x="593" d="M76 -201l119 672h249l-118 -672h-250zM233 700l119 672h250l-119 -672h-250z" />
<glyph unicode="&#xa7;" horiz-adv-x="1024" />
<glyph unicode="&#xa8;" horiz-adv-x="794" d="M217 1022l53 295h230l-54 -295h-229zM588 1022l53 295h229l-53 -295h-229z" />
<glyph unicode="&#xa9;" horiz-adv-x="1480" d="M145 416q-14 97 2 205q31 175 142.5 322t274 232t337.5 85q132 0 243.5 -52t184 -140t103.5 -208.5t8 -251.5q-31 -175 -142 -322.5t-273.5 -233t-338.5 -85.5q-105 0 -199 34t-163 94t-117 142t-62 179zM301 614q-24 -136 21 -253t147 -186t236 -69q204 0 375 150 t208 358q24 136 -21 252.5t-147 185t-237 68.5q-134 0 -260 -68.5t-212 -185t-110 -252.5zM473 516l39 213q27 152 109.5 217.5t218.5 65.5q78 0 159.5 -22.5t126.5 -47.5l-77 -145q-122 53 -209 53q-56 0 -81 -23.5t-38 -99.5l-39 -211q-12 -72 7.5 -101.5t72.5 -29.5 q109 0 262 92l4 -147q-135 -107 -297 -107q-63 0 -113.5 15t-89.5 48t-54 91.5t-1 138.5z" />
<glyph unicode="&#xaa;" horiz-adv-x="827" d="M162 760q23 129 97.5 187.5t215.5 58.5h92l2 18q4 24 4 40.5t-17 26t-56 9.5q-65 0 -187 -25l2 166q128 29 242 29q136 0 201.5 -62.5t44.5 -181.5l-53 -311l8 -191h-201l-4 60q-81 -74 -180 -74q-108 0 -169.5 67.5t-41.5 182.5zM381 766q-15 -82 45 -82q55 0 96 70 l19 102h-62q-44 0 -66 -17.5t-32 -72.5z" />
<glyph unicode="&#xab;" horiz-adv-x="989" d="M92 508l242 326h221l-219 -347l92 -366h-221zM461 508l241 326h222l-219 -347l92 -366h-222z" />
<glyph unicode="&#xac;" horiz-adv-x="1024" />
<glyph unicode="&#xad;" horiz-adv-x="643" d="M98 399l45 248h463l-45 -248h-463z" />
<glyph unicode="&#xae;" horiz-adv-x="878" d="M193 938q26 145 143 244.5t262 99.5q146 0 232.5 -105.5t60.5 -250.5q-25 -145 -141.5 -243.5t-262.5 -98.5q-145 0 -232 104.5t-62 249.5zM283 932q-19 -108 44 -185t171 -77q107 0 195.5 77t107.5 185q20 108 -42 186t-169 78t-197 -78t-110 -186zM389 739l70 398h116 q65 0 99.5 -27t23.5 -90q-12 -79 -94 -102l60 -179h-95l-47 170h-16l-29 -170h-88zM518 977h33q47 0 55 45q6 30 -4 39.5t-33 9.5h-34z" />
<glyph unicode="&#xaf;" horiz-adv-x="794" d="M182 1040l35 195h678l-35 -195h-678z" />
<glyph unicode="&#xb0;" horiz-adv-x="616" d="M197 1063q15 97 88.5 162t179.5 65q107 0 165.5 -66t43.5 -161q-18 -98 -90.5 -162.5t-177.5 -64.5q-108 0 -167 66t-42 161zM352 1063q-7 -36 13.5 -62t54.5 -26t63.5 25.5t36.5 62.5q6 36 -14.5 62t-54.5 26t-63.5 -26t-35.5 -62z" />
<glyph unicode="&#xb1;" horiz-adv-x="948" d="M29 0l34 195h768l-34 -195h-768zM121 518l33 195h286l47 266h195l-47 -266h287l-33 -195h-287l-47 -266h-195l48 266h-287z" />
<glyph unicode="&#xb2;" horiz-adv-x="749" d="M156 541q-3 66 8 106q24 139 164 248q25 19 85 53t99 61.5t43 49.5l2 6q3 21 -12.5 32t-46.5 11q-39 0 -95.5 -14.5t-97.5 -36.5l-31 125q49 35 116.5 56.5t127.5 21.5q58 0 102.5 -10t78 -32t47 -60t4.5 -91l-2 -6q-7 -38 -26.5 -71t-52 -59.5t-58.5 -43.5t-68 -40 t-56 -32q-105 -64 -114 -121l-2 -4h315l-24 -149h-506z" />
<glyph unicode="&#xb3;" horiz-adv-x="749" d="M139 598l72 131q91 -49 195 -49q47 0 74.5 14t35.5 56l2 18q7 41 -16.5 60.5t-57.5 19.5h-139l25 137h106q84 0 94 66l5 20q4 24 -15 31.5t-67 7.5q-87 0 -179 -18l5 137q97 31 202 31q40 0 76 -4.5t73 -17t61.5 -33t36 -54.5t3.5 -78l-2 -12q-12 -72 -74 -125 q36 -27 52.5 -73t7.5 -101l-2 -12q-22 -116 -107 -168t-207 -52q-63 0 -139.5 18t-120.5 50z" />
<glyph unicode="&#xb4;" horiz-adv-x="794" d="M369 1012l180 270h282l-276 -270h-186z" />
<glyph unicode="&#xb5;" horiz-adv-x="983" d="M-23 -410l230 1307h282l-112 -643q39 -53 119 -53q49 0 68 33.5t32 107.5l98 555h285l-98 -557q-33 -187 -116.5 -272.5t-240.5 -85.5q-114 0 -190 30l-74 -422h-283z" />
<glyph unicode="&#xb6;" horiz-adv-x="1153" d="M190 856q34 193 148.5 283t292.5 90h536l-258 -1467h-231l219 1254h-102l-220 -1254h-231l121 691q-95 -1 -165.5 58.5t-99 152t-10.5 192.5z" />
<glyph unicode="&#xb7;" horiz-adv-x="430" d="M133 594l53 295h250l-53 -295h-250z" />
<glyph unicode="&#xb8;" horiz-adv-x="794" d="M10 -352l275 270h178l-178 -270h-275z" />
<glyph unicode="&#xb9;" horiz-adv-x="749" d="M158 522l26 150h160l70 401h-135l22 121l240 47h98l-100 -569h141l-27 -150h-495z" />
<glyph unicode="&#xba;" horiz-adv-x="837" d="M193 669.5q-12 58.5 0 145.5l26 150q29 165 117 235t229 70q69 0 122.5 -15.5t93.5 -49.5t55 -95t0 -145l-27 -150q-29 -165 -118 -235t-230 -70q-69 0 -122 15t-93.5 50.5t-52.5 94zM421 725q10 -35 56 -35q48 0 69.5 31.5t31.5 95.5l26 148q14 57 2.5 92t-57.5 35 t-66 -31t-32 -96l-27 -148q-13 -57 -3 -92z" />
<glyph unicode="&#xbb;" horiz-adv-x="989" d="M111 121l219 346l-92 367h221l114 -388l-241 -325h-221zM479 121l219 346l-92 367h221l115 -388l-242 -325h-221z" />
<glyph unicode="&#xbc;" horiz-adv-x="1617" d="M113 522l26 150h158l70 401h-136l23 121l242 47h98l-100 -569h139l-27 -150h-493zM291 0l862 1241h209l-862 -1241h-209zM821 147l19 103l379 457h223l-74 -418h80l-25 -142h-80l-26 -147h-197l27 147h-326zM1057 289h114l31 172z" />
<glyph unicode="&#xbd;" horiz-adv-x="1617" d="M135 522l27 150h157l70 401h-135l22 121l242 47h98l-100 -569h139l-26 -150h-494zM313 0l863 1241h208l-862 -1241h-209zM920 0q0 50 8 106q24 140 166 248q25 20 84 53.5t99 61t44 49.5v6q5 22 -8.5 32.5t-46.5 10.5q-41 0 -96.5 -13.5t-96.5 -35.5l-35 123 q51 35 118 56.5t128 21.5q120 0 184 -45.5t45 -147.5v-6q-7 -38 -26.5 -71t-52.5 -60t-58 -43.5t-67 -40t-56 -31.5q-103 -62 -114 -120v-4h315l-27 -150h-507z" />
<glyph unicode="&#xbe;" horiz-adv-x="1617" d="M125 598l72 131q91 -49 194 -49q47 0 75 14t36 56l2 18q7 41 -16.5 60.5t-57.5 19.5h-139l24 137h107q84 0 94 66l4 20q4 24 -15 31.5t-67 7.5q-87 0 -178 -18l4 137q97 31 203 31q40 0 76 -4.5t73 -17t61.5 -33t36 -54.5t3.5 -78l-2 -12q-12 -72 -74 -125q36 -27 52 -73 t7 -101l-2 -12q-22 -116 -106.5 -168t-206.5 -52q-63 0 -139.5 18t-120.5 50zM324 0l862 1241h209l-863 -1241h-208zM850 147l18 103l379 457h223l-73 -418h80l-25 -142h-80l-26 -147h-197l27 147h-326zM1087 289h113l31 172z" />
<glyph unicode="&#xbf;" horiz-adv-x="804" d="M-43 -102q12 68 57.5 125.5t104 98.5t116 80t102.5 90t56 109q10 65 10 119h215q18 -75 -4 -190q-9 -54 -34.5 -103.5t-57 -84t-66.5 -68t-65 -58t-51 -50.5t-25 -48q-8 -51 20.5 -68.5t92.5 -17.5q84 0 244 41l-4 -197q-52 -23 -166.5 -43t-194.5 -20q-176 0 -275.5 74 t-74.5 211zM397 633l54 295h249l-53 -295h-250z" />
<glyph unicode="&#xc0;" horiz-adv-x="1026" d="M-55 0l573 1241h307l133 -1241h-303l-24 262h-293l-119 -262h-274zM424 1651h266l123 -271h-170zM426 483h195l-33 375h-4z" />
<glyph unicode="&#xc1;" horiz-adv-x="1026" d="M-55 0l573 1241h307l133 -1241h-303l-24 262h-293l-119 -262h-274zM426 483h195l-33 375h-4zM571 1380l181 271h282l-276 -271h-187z" />
<glyph unicode="&#xc2;" horiz-adv-x="1026" d="M-55 0l573 1241h307l133 -1241h-303l-24 262h-293l-119 -262h-274zM328 1372l321 346h199l203 -346h-193l-133 156l-184 -156h-213zM426 483h195l-33 375h-4z" />
<glyph unicode="&#xc3;" horiz-adv-x="1026" d="M-55 0l573 1241h307l133 -1241h-303l-24 262h-293l-119 -262h-274zM330 1374q26 131 95 207t163 76q54 0 156 -45t139 -45q31 0 57 23t39 67h129q-26 -131 -94.5 -207t-161.5 -76q-54 0 -156.5 45t-138.5 45q-31 0 -58 -23t-40 -67h-129zM426 483h195l-33 375h-4z" />
<glyph unicode="&#xc4;" horiz-adv-x="1026" d="M-55 0l573 1241h307l133 -1241h-303l-24 262h-293l-119 -262h-274zM395 1391l54 295h229l-53 -295h-230zM426 483h195l-33 375h-4zM766 1391l53 295h230l-54 -295h-229z" />
<glyph unicode="&#xc5;" horiz-adv-x="1026" d="M-55 0l573 1241h307l133 -1241h-303l-24 262h-293l-119 -262h-274zM426 483h195l-33 375h-4zM530 1538q14 78 74.5 131t145.5 53q86 0 132.5 -53.5t32.5 -130.5q-14 -78 -74 -130t-145 -52q-86 0 -133 53t-33 129zM655 1538q-4 -29 12 -49.5t44 -20.5t52 20.5t28 49.5 q5 29 -11.5 50.5t-44.5 21.5t-52 -21.5t-28 -50.5z" />
<glyph unicode="&#xc6;" horiz-adv-x="1478" d="M-74 0l807 1241h823l-40 -225h-383l-43 -254h303l-41 -227h-303l-56 -310h404l-39 -225h-709l47 262h-307l-164 -262h-299zM526 483h209l82 467h-4z" />
<glyph unicode="&#xc7;" horiz-adv-x="1024" d="M117.5 244q-13.5 73 5.5 170l76 434q20 114 63 195.5t107 128.5t141.5 68.5t175.5 21.5q112 0 230 -33t188 -70l-117 -213q-68 31 -154 54.5t-153 23.5q-81 0 -118 -34t-56 -146l-76 -430q-20 -106 8.5 -149.5t106.5 -43.5q165 0 387 133l6 -215q-206 -157 -442 -157 q-73 0 -134 13.5t-114.5 44.5t-85 81t-45 123zM135 -352l275 270h178l-178 -270h-275z" />
<glyph unicode="&#xc8;" d="M59 0l220 1241h749l-41 -225h-444l-43 -254h364l-41 -227h-364l-56 -310h465l-39 -225h-770zM420 1651h266l123 -271h-170z" />
<glyph unicode="&#xc9;" d="M59 0l220 1241h749l-41 -225h-444l-43 -254h364l-41 -227h-364l-56 -310h465l-39 -225h-770zM549 1380l180 271h283l-277 -271h-186z" />
<glyph unicode="&#xca;" d="M59 0l220 1241h749l-41 -225h-444l-43 -254h364l-41 -227h-364l-56 -310h465l-39 -225h-770zM324 1372l321 346h199l203 -346h-193l-133 156l-184 -156h-213z" />
<glyph unicode="&#xcb;" d="M59 0l220 1241h749l-41 -225h-444l-43 -254h364l-41 -227h-364l-56 -310h465l-39 -225h-770zM379 1391l53 295h230l-54 -295h-229zM750 1391l53 295h229l-53 -295h-229z" />
<glyph unicode="&#xcc;" horiz-adv-x="839" d="M-12 0l39 225h219l139 791h-219l41 225h741l-41 -225h-217l-139 -791h217l-39 -225h-741zM336 1651h266l123 -271h-170z" />
<glyph unicode="&#xcd;" horiz-adv-x="839" d="M-12 0l39 225h219l139 791h-219l41 225h741l-41 -225h-217l-139 -791h217l-39 -225h-741zM465 1380l180 271h283l-277 -271h-186z" />
<glyph unicode="&#xce;" horiz-adv-x="839" d="M-12 0l39 225h219l139 791h-219l41 225h741l-41 -225h-217l-139 -791h217l-39 -225h-741zM242 1372l321 346h199l203 -346h-193l-133 156l-184 -156h-213z" />
<glyph unicode="&#xcf;" horiz-adv-x="839" d="M-12 0l39 225h219l139 791h-219l41 225h741l-41 -225h-217l-139 -791h217l-39 -225h-741zM305 1391l53 295h230l-53 -295h-230zM676 1391l53 295h229l-53 -295h-229z" />
<glyph unicode="&#xd0;" horiz-adv-x="1107" d="M47 518l33 195h102l94 528h410q101 0 178.5 -21.5t135 -68.5t79.5 -129.5t2 -196.5l-67 -389q-21 -119 -69 -205.5t-116.5 -136t-147.5 -72t-173 -22.5h-451l93 518h-103zM401 225h111q79 0 127 46.5t68 152.5l71 414q19 109 -8.5 143.5t-114.5 34.5h-114l-54 -303h136 l-33 -195h-135z" />
<glyph unicode="&#xd1;" horiz-adv-x="1140" d="M59 0l220 1241h247l279 -719l127 719h246l-220 -1241h-264l-266 700l-123 -700h-246zM385 1354q26 131 95 206.5t163 75.5q54 0 156 -45t139 -45q31 0 57 23t39 67h129q-26 -131 -94.5 -206.5t-161.5 -75.5q-54 0 -156.5 45t-138.5 45q-31 0 -58 -23t-40 -67h-129z" />
<glyph unicode="&#xd2;" horiz-adv-x="1107" d="M119 395l80 453q20 114 65 196t112 129t145.5 68t176.5 21q64 0 118.5 -9t104 -29t84.5 -52t59.5 -78t28.5 -107t-8 -139l-79 -453q-20 -114 -65.5 -196t-113 -128.5t-146.5 -67.5t-177 -21t-173.5 21t-132 67.5t-78 129t-1.5 195.5zM416.5 319q2.5 -31 8 -50t22.5 -30 t35.5 -14.5t47.5 -3.5q73 0 112 34.5t58 139.5l80 453q10 45 7.5 76t-8.5 50t-23 30t-36 14.5t-48 3.5q-73 0 -111 -34t-57 -140l-80 -453q-10 -45 -7.5 -76zM483 1651h267l122 -271h-170z" />
<glyph unicode="&#xd3;" horiz-adv-x="1107" d="M119 395l80 453q20 114 65 196t112 129t145.5 68t176.5 21q64 0 118.5 -9t104 -29t84.5 -52t59.5 -78t28.5 -107t-8 -139l-79 -453q-20 -114 -65.5 -196t-113 -128.5t-146.5 -67.5t-177 -21t-173.5 21t-132 67.5t-78 129t-1.5 195.5zM416.5 319q2.5 -31 8 -50t22.5 -30 t35.5 -14.5t47.5 -3.5q73 0 112 34.5t58 139.5l80 453q10 45 7.5 76t-8.5 50t-23 30t-36 14.5t-48 3.5q-73 0 -111 -34t-57 -140l-80 -453q-10 -45 -7.5 -76zM592 1380l180 271h283l-277 -271h-186z" />
<glyph unicode="&#xd4;" horiz-adv-x="1107" d="M119 395l80 453q20 114 65 196t112 129t145.5 68t176.5 21q64 0 118.5 -9t104 -29t84.5 -52t59.5 -78t28.5 -107t-8 -139l-79 -453q-20 -114 -65.5 -196t-113 -128.5t-146.5 -67.5t-177 -21t-173.5 21t-132 67.5t-78 129t-1.5 195.5zM381 1372l321 346h199l203 -346h-193 l-133 156l-184 -156h-213zM416.5 319q2.5 -31 8 -50t22.5 -30t35.5 -14.5t47.5 -3.5q73 0 112 34.5t58 139.5l80 453q10 45 7.5 76t-8.5 50t-23 30t-36 14.5t-48 3.5q-73 0 -111 -34t-57 -140l-80 -453q-10 -45 -7.5 -76z" />
<glyph unicode="&#xd5;" horiz-adv-x="1107" d="M119 395l80 453q20 114 65 196t112 129t145.5 68t176.5 21q64 0 118.5 -9t104 -29t84.5 -52t59.5 -78t28.5 -107t-8 -139l-79 -453q-20 -114 -65.5 -196t-113 -128.5t-146.5 -67.5t-177 -21t-173.5 21t-132 67.5t-78 129t-1.5 195.5zM371 1374q26 131 95 207t163 76 q54 0 156 -45t139 -45q31 0 57 23t39 67h129q-26 -131 -94.5 -207t-161.5 -76q-54 0 -156.5 45t-138.5 45q-31 0 -58 -23t-40 -67h-129zM416.5 319q2.5 -31 8 -50t22.5 -30t35.5 -14.5t47.5 -3.5q73 0 112 34.5t58 139.5l80 453q10 45 7.5 76t-8.5 50t-23 30t-36 14.5 t-48 3.5q-73 0 -111 -34t-57 -140l-80 -453q-10 -45 -7.5 -76z" />
<glyph unicode="&#xd6;" horiz-adv-x="1107" d="M119 395l80 453q20 114 65 196t112 129t145.5 68t176.5 21q64 0 118.5 -9t104 -29t84.5 -52t59.5 -78t28.5 -107t-8 -139l-79 -453q-20 -114 -65.5 -196t-113 -128.5t-146.5 -67.5t-177 -21t-173.5 21t-132 67.5t-78 129t-1.5 195.5zM416.5 319q2.5 -31 8 -50t22.5 -30 t35.5 -14.5t47.5 -3.5q73 0 112 34.5t58 139.5l80 453q10 45 7.5 76t-8.5 50t-23 30t-36 14.5t-48 3.5q-73 0 -111 -34t-57 -140l-80 -453q-10 -45 -7.5 -76zM440 1370l54 295h229l-53 -295h-230zM811 1370l53 295h230l-54 -295h-229z" />
<glyph unicode="&#xd7;" horiz-adv-x="940" d="M88 305l277 238l-187 227l154 129l186 -227l277 235l123 -145l-279 -236l188 -229l-155 -129l-187 227l-276 -235z" />
<glyph unicode="&#xd8;" horiz-adv-x="1122" d="M39 -61l123 176q-68 100 -35 280l80 453q20 114 65.5 196t112 129t145.5 68t177 21q142 0 229 -37l55 78h189l-123 -175q70 -102 37 -280l-80 -453q-20 -114 -65.5 -196t-113 -128.5t-146.5 -67.5t-177 -21q-148 0 -231 34l-54 -77h-188zM436 260q23 -39 103 -39 q73 0 111 34t57 140l51 293l8 41zM453 508l327 473q-20 41 -100 41q-73 0 -111 -34t-57 -140l-53 -299z" />
<glyph unicode="&#xd9;" horiz-adv-x="1110" d="M128.5 200q-19.5 82 0.5 195l150 846h305l-150 -846q-8 -47 -8.5 -78.5t5.5 -50.5t21 -29t33 -13t47 -3q37 0 59 5.5t43 23t34.5 52.5t23.5 93l150 846h305l-150 -846q-16 -92 -48 -162.5t-75.5 -117.5t-101.5 -77t-123 -43t-143 -13q-99 0 -173.5 21.5t-129.5 68 t-74.5 128.5zM473 1651h266l123 -271h-170z" />
<glyph unicode="&#xda;" horiz-adv-x="1110" d="M128.5 200q-19.5 82 0.5 195l150 846h305l-150 -846q-8 -47 -8.5 -78.5t5.5 -50.5t21 -29t33 -13t47 -3q37 0 59 5.5t43 23t34.5 52.5t23.5 93l150 846h305l-150 -846q-16 -92 -48 -162.5t-75.5 -117.5t-101.5 -77t-123 -43t-143 -13q-99 0 -173.5 21.5t-129.5 68 t-74.5 128.5zM598 1380l180 271h283l-277 -271h-186z" />
<glyph unicode="&#xdb;" horiz-adv-x="1110" d="M128.5 200q-19.5 82 0.5 195l150 846h305l-150 -846q-8 -47 -8.5 -78.5t5.5 -50.5t21 -29t33 -13t47 -3q37 0 59 5.5t43 23t34.5 52.5t23.5 93l150 846h305l-150 -846q-16 -92 -48 -162.5t-75.5 -117.5t-101.5 -77t-123 -43t-143 -13q-99 0 -173.5 21.5t-129.5 68 t-74.5 128.5zM375 1372l321 346h199l203 -346h-193l-133 156l-184 -156h-213z" />
<glyph unicode="&#xdc;" horiz-adv-x="1110" d="M128.5 200q-19.5 82 0.5 195l150 846h305l-150 -846q-8 -47 -8.5 -78.5t5.5 -50.5t21 -29t33 -13t47 -3q37 0 59 5.5t43 23t34.5 52.5t23.5 93l150 846h305l-150 -846q-16 -92 -48 -162.5t-75.5 -117.5t-101.5 -77t-123 -43t-143 -13q-99 0 -173.5 21.5t-129.5 68 t-74.5 128.5zM436 1370l53 295h230l-53 -295h-230zM807 1370l53 295h230l-54 -295h-229z" />
<glyph unicode="&#xdd;" horiz-adv-x="985" d="M139 1241h326l127 -428h4l278 428h287l-479 -680l-98 -561h-305l98 561zM569 1380l181 271h282l-276 -271h-187z" />
<glyph unicode="&#xde;" horiz-adv-x="1073" d="M59 0l220 1241h305l-35 -199h88q65 0 120 -8t107 -26t88 -47.5t62.5 -73.5t31.5 -103.5t-6 -136.5l-6 -33q-73 -415 -502 -415h-133l-34 -199h-306zM440 426h97q76 0 124 43t66 143l6 37q7 36 7 63.5t-6.5 45.5t-16.5 30t-27.5 18t-35.5 8.5t-44 2.5h-102z" />
<glyph unicode="&#xdf;" horiz-adv-x="1085" d="M-23 -410l228 1297q8 45 25 91t55 103.5t90 101t136 73.5t187 30q65 0 127 -20t111.5 -57.5t74 -99.5t11.5 -138q-26 -154 -231 -258q-34 -15 -37 -39q-6 -25 14 -41q11 -9 36.5 -25.5t49 -32t54.5 -40t52 -50.5t41.5 -63.5t23.5 -78.5t-3 -95l-4 -15 q-12 -71 -41.5 -122.5t-66 -81t-88.5 -46.5t-99.5 -22.5t-108.5 -5.5q-112 0 -221 35l86 213q97 -31 158 -31q68 0 96 21.5t35 58.5v6q6 33 -8 59.5t-40.5 46.5t-59 39.5t-64 44t-56.5 54t-35.5 75.5t-0.5 103q9 48 31 86.5t49 61t57.5 43t56 34.5t44 33.5t22.5 42.5 q6 36 -20 59t-82 23q-24 0 -46.5 -7.5t-49.5 -28t-49 -66t-34 -111.5l-221 -1260h-285z" />
<glyph unicode="&#xe0;" horiz-adv-x="970" d="M94 367l29 168q19 106 59.5 181.5t100 118t128.5 61.5t154 19q117 0 293 -24l96 -14l-112 -639l14 -238h-252l-4 59q-108 -77 -221 -77q-161 0 -239 102.5t-46 282.5zM365 1303h266l123 -271h-170zM369.5 245q8.5 -44 56.5 -44q76 0 135 53l76 436q-46 6 -92 6 q-57 0 -88 -32t-49 -129l-29 -168q-18 -78 -9.5 -122z" />
<glyph unicode="&#xe1;" horiz-adv-x="970" d="M94 367l29 168q19 106 59.5 181.5t100 118t128.5 61.5t154 19q117 0 293 -24l96 -14l-112 -639l14 -238h-252l-4 59q-108 -77 -221 -77q-161 0 -239 102.5t-46 282.5zM369.5 245q8.5 -44 56.5 -44q76 0 135 53l76 436q-46 6 -92 6q-57 0 -88 -32t-49 -129l-29 -168 q-18 -78 -9.5 -122zM473 1032l180 271h283l-277 -271h-186z" />
<glyph unicode="&#xe2;" horiz-adv-x="970" d="M94 367l29 168q19 106 59.5 181.5t100 118t128.5 61.5t154 19q117 0 293 -24l96 -14l-112 -639l14 -238h-252l-4 59q-108 -77 -221 -77q-161 0 -239 102.5t-46 282.5zM252 1024l321 346h199l203 -346h-193l-133 156l-184 -156h-213zM369.5 245q8.5 -44 56.5 -44 q76 0 135 53l76 436q-46 6 -92 6q-57 0 -88 -32t-49 -129l-29 -168q-18 -78 -9.5 -122z" />
<glyph unicode="&#xe3;" horiz-adv-x="970" d="M94 367l29 168q19 106 59.5 181.5t100 118t128.5 61.5t154 19q117 0 293 -24l96 -14l-112 -639l14 -238h-252l-4 59q-108 -77 -221 -77q-161 0 -239 102.5t-46 282.5zM250 1042q26 131 95 207t163 76q54 0 156 -45t139 -45q31 0 57 23t39 67h129q-26 -131 -94.5 -207 t-161.5 -76q-54 0 -156.5 45.5t-138.5 45.5q-31 0 -58 -23.5t-40 -67.5h-129zM369.5 245q8.5 -44 56.5 -44q76 0 135 53l76 436q-46 6 -92 6q-57 0 -88 -32t-49 -129l-29 -168q-18 -78 -9.5 -122z" />
<glyph unicode="&#xe4;" horiz-adv-x="970" d="M94 367l29 168q19 106 59.5 181.5t100 118t128.5 61.5t154 19q117 0 293 -24l96 -14l-112 -639l14 -238h-252l-4 59q-108 -77 -221 -77q-161 0 -239 102.5t-46 282.5zM311 1042l54 295h229l-53 -295h-230zM369.5 245q8.5 -44 56.5 -44q76 0 135 53l76 436q-46 6 -92 6 q-57 0 -88 -32t-49 -129l-29 -168q-18 -78 -9.5 -122zM682 1042l53 295h230l-54 -295h-229z" />
<glyph unicode="&#xe5;" horiz-adv-x="970" d="M94 367l29 168q19 106 59.5 181.5t100 118t128.5 61.5t154 19q117 0 293 -24l96 -14l-112 -639l14 -238h-252l-4 59q-108 -77 -221 -77q-161 0 -239 102.5t-46 282.5zM369.5 245q8.5 -44 56.5 -44q76 0 135 53l76 436q-46 6 -92 6q-57 0 -88 -32t-49 -129l-29 -168 q-18 -78 -9.5 -122zM471 1190q14 78 74 131t145 53q86 0 133 -54t33 -130q-14 -78 -74 -130t-145 -52q-86 0 -133 53t-33 129zM596 1190q-5 -29 11 -49.5t44 -20.5t52 20.5t28 49.5q5 29 -11 50.5t-44 21.5t-52 -21.5t-28 -50.5z" />
<glyph unicode="&#xe6;" horiz-adv-x="1349" d="M51 285q25 143 118 201.5t257 58.5h147l13 65q8 49 -12.5 72t-92.5 23q-103 0 -245 -29l4 205q56 12 151 23t164 11q153 0 207 -63q81 63 229 63q69 0 129.5 -16t110.5 -48t73.5 -88t10.5 -130q-11 -61 -37 -106.5t-60 -72.5t-81.5 -43.5t-94 -22t-104.5 -5.5h-119 l-6 -35q-15 -70 -1 -108.5t69 -38.5q195 0 321 28l-20 -202q-205 -45 -328 -45q-199 0 -260 112q-53 -56 -126 -84t-149 -28q-137 0 -215 80.5t-53 222.5zM317 293q-8 -43 10 -68.5t62 -25.5q36 0 74.5 21.5t64.5 64.5l17 96h-96q-116 0 -132 -88zM848 545h76q111 0 123 80 q12 77 -68 77q-62 0 -88.5 -32.5t-38.5 -98.5z" />
<glyph unicode="&#xe7;" horiz-adv-x="864" d="M84 -352l274 270h179l-179 -270h-274zM87 210.5q-12 64.5 5 151.5l31 173q19 106 59.5 181.5t100 118t128.5 61.5t154 19q78 0 166.5 -22.5t153.5 -52.5l-72 -207q-164 65 -266 65q-56 0 -88.5 -34t-50.5 -132l-31 -170q-17 -97 4 -130t78 -33q102 0 291 65l-2 -207 q-193 -75 -316 -75q-68 0 -123.5 11.5t-104.5 38.5t-77 70.5t-40 108z" />
<glyph unicode="&#xe8;" horiz-adv-x="940" d="M92 362l31 173q19 106 58 181t97 118t126.5 62t154.5 19q54 0 105 -9.5t97.5 -31t79 -53.5t47.5 -80.5t5 -107.5q-13 -76 -48.5 -131t-89 -86t-110.5 -46.5t-129 -21.5l-143 -12l-2 -14q-10 -58 6 -89.5t76 -31.5q88 0 194 9t156 19l-21 -202q-205 -45 -352 -45 q-86 0 -152.5 19.5t-116.5 61.5t-68.5 118t-0.5 181zM344 1303h266l123 -271h-170zM406 522l102 8q104 7 117 95q5 33 -13.5 55t-64.5 22q-61 0 -92.5 -38.5t-46.5 -126.5z" />
<glyph unicode="&#xe9;" horiz-adv-x="940" d="M92 362l31 173q19 106 58 181t97 118t126.5 62t154.5 19q54 0 105 -9.5t97.5 -31t79 -53.5t47.5 -80.5t5 -107.5q-13 -76 -48.5 -131t-89 -86t-110.5 -46.5t-129 -21.5l-143 -12l-2 -14q-10 -58 6 -89.5t76 -31.5q88 0 194 9t156 19l-21 -202q-205 -45 -352 -45 q-86 0 -152.5 19.5t-116.5 61.5t-68.5 118t-0.5 181zM406 522l102 8q104 7 117 95q5 33 -13.5 55t-64.5 22q-61 0 -92.5 -38.5t-46.5 -126.5zM449 1032l180 271h282l-276 -271h-186z" />
<glyph unicode="&#xea;" horiz-adv-x="940" d="M92 362l31 173q19 106 58 181t97 118t126.5 62t154.5 19q54 0 105 -9.5t97.5 -31t79 -53.5t47.5 -80.5t5 -107.5q-13 -76 -48.5 -131t-89 -86t-110.5 -46.5t-129 -21.5l-143 -12l-2 -14q-10 -58 6 -89.5t76 -31.5q88 0 194 9t156 19l-21 -202q-205 -45 -352 -45 q-86 0 -152.5 19.5t-116.5 61.5t-68.5 118t-0.5 181zM225 1024l322 346h198l203 -346h-192l-133 156l-185 -156h-213zM406 522l102 8q104 7 117 95q5 33 -13.5 55t-64.5 22q-61 0 -92.5 -38.5t-46.5 -126.5z" />
<glyph unicode="&#xeb;" horiz-adv-x="940" d="M92 362l31 173q19 106 58 181t97 118t126.5 62t154.5 19q54 0 105 -9.5t97.5 -31t79 -53.5t47.5 -80.5t5 -107.5q-13 -76 -48.5 -131t-89 -86t-110.5 -46.5t-129 -21.5l-143 -12l-2 -14q-10 -58 6 -89.5t76 -31.5q88 0 194 9t156 19l-21 -202q-205 -45 -352 -45 q-86 0 -152.5 19.5t-116.5 61.5t-68.5 118t-0.5 181zM299 1042l53 295h230l-54 -295h-229zM406 522l102 8q104 7 117 95q5 33 -13.5 55t-64.5 22q-61 0 -92.5 -38.5t-46.5 -126.5zM670 1042l53 295h229l-53 -295h-229z" />
<glyph unicode="&#xec;" horiz-adv-x="518" d="M76 0q-10 63 6 145l131 752h285l-131 -752q-7 -36 -9 -72.5t0 -54.5l2 -18h-284zM117 1303h266l123 -271h-170z" />
<glyph unicode="&#xed;" horiz-adv-x="518" d="M76 0q-10 63 6 145l131 752h285l-131 -752q-7 -36 -9 -72.5t0 -54.5l2 -18h-284zM250 1032l180 271h283l-277 -271h-186z" />
<glyph unicode="&#xee;" horiz-adv-x="518" d="M61 1024l281 346h199l161 -346h-196l-92 156l-144 -156h-209zM76 0q-10 63 6 145l131 752h285l-131 -752q-7 -36 -9 -72.5t0 -54.5l2 -18h-284z" />
<glyph unicode="&#xef;" horiz-adv-x="518" d="M76 0q-10 63 6 145l131 752h285l-131 -752q-7 -36 -9 -72.5t0 -54.5l2 -18h-284zM104 1042l54 295h229l-53 -295h-230zM434 1042l53 295h230l-53 -295h-230z" />
<glyph unicode="&#xf0;" d="M86.5 211.5q-11.5 64.5 5.5 150.5l31 173q32 187 132 282.5t237 95.5h22l-51 107l-211 -43l-8 129l162 33l-50 110l265 45l53 -98l215 43l8 -129l-162 -33l133 -264q56 -107 25 -278l-31 -173q-19 -106 -58 -181t-97 -118t-126.5 -62t-154.5 -19q-68 0 -123.5 12 t-103.5 39t-74.5 70.5t-38 108zM368.5 280.5q-1.5 -36.5 18 -58t62.5 -21.5q63 0 89 40.5t40 123.5l30 170q7 48 9 84t-17 57.5t-63 21.5q-62 0 -88.5 -40.5t-40.5 -122.5l-31 -170q-7 -48 -8.5 -84.5z" />
<glyph unicode="&#xf1;" horiz-adv-x="1005" d="M63 0l117 659l-14 238h254l4 -51q108 69 246 69q160 0 229 -89.5t37 -270.5l-72 -410q-7 -36 -8.5 -72.5t0.5 -54.5l2 -18h-285q-9 63 7 145l71 410q15 61 6.5 101t-57.5 40q-80 0 -139 -53l-113 -643h-285zM272 1042q26 131 95 207t163 76q54 0 156 -45t139 -45 q31 0 57.5 23t39.5 67h129q-26 -131 -94.5 -207t-161.5 -76q-54 0 -156.5 45.5t-138.5 45.5q-31 0 -58.5 -23.5t-40.5 -67.5h-129z" />
<glyph unicode="&#xf2;" d="M86.5 211.5q-11.5 64.5 5.5 150.5l31 173q19 106 58 181t97 118t126.5 62t154.5 19q68 0 123.5 -12t103.5 -39t74.5 -70.5t38 -108t-5.5 -150.5l-31 -173q-19 -106 -58 -181t-97 -118t-126.5 -62t-154.5 -19q-68 0 -123.5 12t-103.5 39t-74.5 70.5t-38 108zM354 1303h267 l122 -271h-170zM368.5 280.5q-1.5 -36.5 18 -58t62.5 -21.5q63 0 89 40.5t40 123.5l30 170q7 48 9 84t-17 57.5t-63 21.5q-62 0 -88.5 -40.5t-40.5 -122.5l-31 -170q-7 -48 -8.5 -84.5z" />
<glyph unicode="&#xf3;" d="M86.5 211.5q-11.5 64.5 5.5 150.5l31 173q19 106 58 181t97 118t126.5 62t154.5 19q68 0 123.5 -12t103.5 -39t74.5 -70.5t38 -108t-5.5 -150.5l-31 -173q-19 -106 -58 -181t-97 -118t-126.5 -62t-154.5 -19q-68 0 -123.5 12t-103.5 39t-74.5 70.5t-38 108zM368.5 280.5 q-1.5 -36.5 18 -58t62.5 -21.5q63 0 89 40.5t40 123.5l30 170q7 48 9 84t-17 57.5t-63 21.5q-62 0 -88.5 -40.5t-40.5 -122.5l-31 -170q-7 -48 -8.5 -84.5zM457 1032l180 271h283l-277 -271h-186z" />
<glyph unicode="&#xf4;" d="M86.5 211.5q-11.5 64.5 5.5 150.5l31 173q19 106 58 181t97 118t126.5 62t154.5 19q68 0 123.5 -12t103.5 -39t74.5 -70.5t38 -108t-5.5 -150.5l-31 -173q-19 -106 -58 -181t-97 -118t-126.5 -62t-154.5 -19q-68 0 -123.5 12t-103.5 39t-74.5 70.5t-38 108zM238 1024 l321 346h199l203 -346h-193l-133 156l-184 -156h-213zM368.5 280.5q-1.5 -36.5 18 -58t62.5 -21.5q63 0 89 40.5t40 123.5l30 170q7 48 9 84t-17 57.5t-63 21.5q-62 0 -88.5 -40.5t-40.5 -122.5l-31 -170q-7 -48 -8.5 -84.5z" />
<glyph unicode="&#xf5;" d="M86.5 211.5q-11.5 64.5 5.5 150.5l31 173q19 106 58 181t97 118t126.5 62t154.5 19q68 0 123.5 -12t103.5 -39t74.5 -70.5t38 -108t-5.5 -150.5l-31 -173q-19 -106 -58 -181t-97 -118t-126.5 -62t-154.5 -19q-68 0 -123.5 12t-103.5 39t-74.5 70.5t-38 108zM231 1042 q26 131 95 207t163 76q54 0 156 -45t139 -45q31 0 57.5 23t39.5 67h129q-26 -131 -94.5 -207t-161.5 -76q-54 0 -156.5 45.5t-138.5 45.5q-31 0 -58.5 -23.5t-40.5 -67.5h-129zM368.5 280.5q-1.5 -36.5 18 -58t62.5 -21.5q63 0 89 40.5t40 123.5l30 170q7 48 9 84t-17 57.5 t-63 21.5q-62 0 -88.5 -40.5t-40.5 -122.5l-31 -170q-7 -48 -8.5 -84.5z" />
<glyph unicode="&#xf6;" d="M86.5 211.5q-11.5 64.5 5.5 150.5l31 173q19 106 58 181t97 118t126.5 62t154.5 19q68 0 123.5 -12t103.5 -39t74.5 -70.5t38 -108t-5.5 -150.5l-31 -173q-19 -106 -58 -181t-97 -118t-126.5 -62t-154.5 -19q-68 0 -123.5 12t-103.5 39t-74.5 70.5t-38 108zM303 1042 l53 295h230l-54 -295h-229zM368.5 280.5q-1.5 -36.5 18 -58t62.5 -21.5q63 0 89 40.5t40 123.5l30 170q7 48 9 84t-17 57.5t-63 21.5q-62 0 -88.5 -40.5t-40.5 -122.5l-31 -170q-7 -48 -8.5 -84.5zM674 1042l53 295h229l-53 -295h-229z" />
<glyph unicode="&#xf7;" horiz-adv-x="1024" />
<glyph unicode="&#xf8;" horiz-adv-x="976" d="M18 -61l125 159q-66 94 -37 264l31 173q19 106 58 181t97 118t126.5 62t154.5 19q115 0 189 -32l47 61h182l-117 -149q62 -93 33 -260l-30 -173q-19 -106 -58 -181t-97 -118t-127 -62t-155 -19q-115 0 -182 30l-57 -73h-183zM399 403l213 273q-19 22 -61 22 q-62 0 -88.5 -40.5t-40.5 -122.5l-16 -91zM406 217q19 -16 57 -16q63 0 89 40.5t40 123.5l14 73l6 41z" />
<glyph unicode="&#xf9;" horiz-adv-x="999" d="M98 340l74 412q6 36 7 72.5t-1 54.5l-2 18h285q10 -63 -4 -145l-74 -410q-15 -62 -6 -101.5t57 -39.5q80 0 139 53l113 643h285l-117 -659l14 -238h-254l-4 51q-108 -69 -245 -69q-329 0 -267 358zM338 1303h266l123 -271h-170z" />
<glyph unicode="&#xfa;" horiz-adv-x="999" d="M98 340l74 412q6 36 7 72.5t-1 54.5l-2 18h285q10 -63 -4 -145l-74 -410q-15 -62 -6 -101.5t57 -39.5q80 0 139 53l113 643h285l-117 -659l14 -238h-254l-4 51q-108 -69 -245 -69q-329 0 -267 358zM479 1032l180 271h283l-276 -271h-187z" />
<glyph unicode="&#xfb;" horiz-adv-x="999" d="M98 340l74 412q6 36 7 72.5t-1 54.5l-2 18h285q10 -63 -4 -145l-74 -410q-15 -62 -6 -101.5t57 -39.5q80 0 139 53l113 643h285l-117 -659l14 -238h-254l-4 51q-108 -69 -245 -69q-329 0 -267 358zM246 1024l321 346h199l203 -346h-193l-133 156l-184 -156h-213z" />
<glyph unicode="&#xfc;" horiz-adv-x="999" d="M98 340l74 412q6 36 7 72.5t-1 54.5l-2 18h285q10 -63 -4 -145l-74 -410q-15 -62 -6 -101.5t57 -39.5q80 0 139 53l113 643h285l-117 -659l14 -238h-254l-4 51q-108 -69 -245 -69q-329 0 -267 358zM315 1042l54 295h229l-53 -295h-230zM686 1042l53 295h230l-54 -295 h-229z" />
<glyph unicode="&#xfd;" horiz-adv-x="833" d="M-190 -356l84 192q100 -41 194 -41q49 0 70 37l82 160l-129 760q-5 36 -15 72.5t-17 54.5l-7 18h280q31 -63 39 -145l45 -375h4l226 520h264l-455 -897l-137 -260q-44 -81 -106 -115.5t-175 -34.5q-132 0 -247 54zM424 1032l180 271h283l-277 -271h-186z" />
<glyph unicode="&#xfe;" horiz-adv-x="972" d="M-20 -410l274 1575q6 36 7.5 72.5t0.5 54.5l-2 19h285q8 -64 -6 -146l-50 -280q73 30 140 30q163 0 240.5 -102.5t45.5 -282.5l-30 -168q-19 -106 -59.5 -181.5t-100 -118t-128.5 -61.5t-155 -19q-64 0 -110 6l-70 -398h-282zM371 207q47 -6 92 -6q57 0 88 32t49 129 l31 168q17 78 8.5 122t-57.5 44q-77 0 -136 -53z" />
<glyph unicode="&#xff;" horiz-adv-x="833" d="M-190 -356l84 192q100 -41 194 -41q49 0 70 37l82 160l-129 760q-5 36 -15 72.5t-17 54.5l-7 18h280q31 -63 39 -145l45 -375h4l226 520h264l-455 -897l-137 -260q-44 -81 -106 -115.5t-175 -34.5q-132 0 -247 54zM242 1042l53 295h229l-53 -295h-229zM612 1042l54 295 h229l-53 -295h-230z" />
<glyph unicode="&#x152;" horiz-adv-x="1538" d="M119 395l80 453q20 114 65 196t112 129t145.5 68t176.5 21l473 -21h445l-41 -225h-445l-43 -254h365l-41 -227h-364l-56 -310h465l-39 -225h-465q-387 -18 -448 -18q-98 0 -173.5 21t-132 67.5t-78 129t-1.5 195.5zM416.5 319q2.5 -31 8 -50t22.5 -30t35.5 -14.5 t47.5 -3.5l156 4l139 791q-102 6 -153 6q-73 0 -111 -34t-57 -140l-80 -453q-10 -45 -7.5 -76z" />
<glyph unicode="&#x153;" horiz-adv-x="1413" d="M86.5 211.5q-11.5 64.5 5.5 150.5l31 173q19 106 58 181t97 118t126.5 62t154.5 19q164 0 238 -71q88 71 247 71q54 0 105 -9.5t98 -31t79.5 -53.5t47.5 -80.5t4 -107.5q-13 -76 -48.5 -131t-88.5 -86t-110.5 -46.5t-129.5 -21.5l-143 -12l-2 -14q-10 -58 6 -89.5 t76 -31.5q88 0 194 9t156 19l-20 -202q-205 -45 -350 -45q-168 0 -242 71q-88 -71 -250 -71q-68 0 -123.5 12t-103.5 39t-74.5 70.5t-38 108zM368.5 280.5q-1.5 -36.5 18 -58t62.5 -21.5q63 0 89 40.5t40 123.5l30 170q7 48 9 84t-17 57.5t-63 21.5q-62 0 -88.5 -40.5 t-40.5 -122.5l-31 -170q-7 -48 -8.5 -84.5zM891 522l102 8q104 7 117 95q7 32 -11.5 54.5t-64.5 22.5q-62 0 -93.5 -38.5t-45.5 -126.5z" />
<glyph unicode="&#x178;" horiz-adv-x="985" d="M139 1241h326l127 -428h4l278 428h287l-479 -680l-98 -561h-305l98 561zM393 1391l53 297h230l-51 -297h-232zM766 1391l53 297h230l-52 -297h-231z" />
<glyph unicode="&#x2c6;" horiz-adv-x="794" d="M154 1004l321 346h199l203 -346h-193l-133 155l-184 -155h-213z" />
<glyph unicode="&#x2dc;" horiz-adv-x="794" d="M150 1006q26 131 95 206.5t163 75.5q54 0 155.5 -45t138.5 -45q31 0 57.5 23t39.5 67h129q-26 -131 -94.5 -206.5t-161.5 -75.5q-54 0 -156.5 45t-138.5 45q-31 0 -58 -23t-40 -67h-129z" />
<glyph unicode="&#x2000;" horiz-adv-x="861" />
<glyph unicode="&#x2001;" horiz-adv-x="1722" />
<glyph unicode="&#x2002;" horiz-adv-x="861" />
<glyph unicode="&#x2003;" horiz-adv-x="1722" />
<glyph unicode="&#x2004;" horiz-adv-x="574" />
<glyph unicode="&#x2005;" horiz-adv-x="430" />
<glyph unicode="&#x2006;" horiz-adv-x="287" />
<glyph unicode="&#x2007;" horiz-adv-x="287" />
<glyph unicode="&#x2008;" horiz-adv-x="215" />
<glyph unicode="&#x2009;" horiz-adv-x="344" />
<glyph unicode="&#x200a;" horiz-adv-x="95" />
<glyph unicode="&#x2010;" horiz-adv-x="643" d="M98 399l45 248h463l-45 -248h-463z" />
<glyph unicode="&#x2011;" horiz-adv-x="643" d="M98 399l45 248h463l-45 -248h-463z" />
<glyph unicode="&#x2012;" horiz-adv-x="643" d="M98 399l45 248h463l-45 -248h-463z" />
<glyph unicode="&#x2013;" horiz-adv-x="960" d="M98 399l45 248h781l-45 -248h-781z" />
<glyph unicode="&#x2014;" horiz-adv-x="1267" d="M98 399l45 248h1088l-45 -248h-1088z" />
<glyph unicode="&#x2018;" horiz-adv-x="382" d="M109 633l49 268l198 340h123l-131 -313h78l-53 -295h-264z" />
<glyph unicode="&#x2019;" horiz-adv-x="382" d="M111 633l131 313h-78l53 295h264l-47 -268l-201 -340h-122z" />
<glyph unicode="&#x201a;" horiz-adv-x="430" d="M-23 -262l132 313h-78l53 295h264l-47 -268l-201 -340h-123z" />
<glyph unicode="&#x201c;" horiz-adv-x="712" d="M109 633l49 268l198 340h123l-131 -313h78l-53 -295h-264zM438 633l49 268l199 340h123l-131 -313h78l-54 -295h-264z" />
<glyph unicode="&#x201d;" horiz-adv-x="712" d="M111 633l131 313h-78l53 295h264l-47 -268l-201 -340h-122zM440 633l131 313h-77l53 295h264l-47 -268l-201 -340h-123z" />
<glyph unicode="&#x201e;" horiz-adv-x="759" d="M-23 -262l132 313h-78l53 295h264l-47 -268l-201 -340h-123zM307 -262l131 313h-78l54 295h264l-47 -268l-201 -340h-123z" />
<glyph unicode="&#x2022;" horiz-adv-x="608" d="M131 463l96 545h387l-96 -545h-387z" />
<glyph unicode="&#x2026;" horiz-adv-x="1187" d="M29 0l51 295h250l-51 -295h-250zM408 0l51 295h250l-52 -295h-249zM786 0l52 295h249l-51 -295h-250z" />
<glyph unicode="&#x202f;" horiz-adv-x="344" />
<glyph unicode="&#x2039;" horiz-adv-x="620" d="M92 508l242 326h221l-219 -347l92 -366h-221z" />
<glyph unicode="&#x203a;" horiz-adv-x="620" d="M111 121l219 346l-92 367h221l114 -388l-241 -325h-221z" />
<glyph unicode="&#x205f;" horiz-adv-x="430" />
<glyph unicode="&#x20ac;" horiz-adv-x="1085" d="M59 410l31 172h133l17 88h-134l29 172h133l4 12q38 221 162.5 314.5t327.5 93.5q112 0 227.5 -33t186.5 -70l-117 -213q-68 31 -154 54.5t-153 23.5q-42 0 -66.5 -5.5t-47 -23t-36 -52.5t-24.5 -93l-3 -8h297l-28 -172h-297l-17 -88h297l-30 -172h-297v-2 q-20 -105 9 -146t107 -41q166 0 388 133l6 -215q-29 -22 -66 -44t-95.5 -50t-133.5 -45.5t-152 -17.5q-73 0 -133.5 13t-114 43t-84 79t-44 121.5t5.5 169.5v2h-134z" />
<glyph unicode="&#x2122;" horiz-adv-x="1077" d="M162 1108l18 100h389l-18 -100h-125l-80 -455h-137l80 455h-127zM520 653l98 555h142l51 -342l172 342h154l-99 -555h-139l51 285l-141 -285h-92l-37 277l-49 -277h-111z" />
<glyph unicode="&#xe000;" horiz-adv-x="901" d="M0 0v901h901v-901h-901z" />
<glyph unicode="&#xfb01;" horiz-adv-x="1097" d="M16 -410l191 1088h-111l39 219h98q17 127 21 154q26 143 110.5 210.5t231.5 67.5q128 0 268 -45l-73 -194q-97 26 -187 26q-53 0 -65 -65l-19 -154h557l-131 -752q-7 -36 -8.5 -72.5t0.5 -54.5l2 -18h-285q-9 63 7 145l92 533h-262l-191 -1088h-285z" />
<glyph unicode="&#xfb02;" horiz-adv-x="1146" d="M16 -410l191 1088h-111l39 219h98q17 127 21 154q26 143 118 217.5t238 74.5q129 0 305 -32h285l-205 -1166q-7 -36 -8.5 -72.5t0.5 -54.5l2 -18h-284q-10 63 6 145l170 965q-125 25 -258 25q-32 0 -55 -24t-29 -60l-19 -154h176l-39 -219h-165l-191 -1088h-285z" />
</font>
</defs>
</svg>
