<svg xmlns="http://www.w3.org/2000/svg" width="30" height="30" viewBox="0 0 30 30"><g fill="#212322" stroke-linecap="round"><path d="M 27.75 28.5 L 2.249999046325684 28.5 C 1.985589027404785 28.5 1.499999046325684 27.93050956726074 1.499999046325684 27 L 1.499999046325684 2.999999046325684 C 1.499999046325684 2.069489002227783 1.985589027404785 1.499999046325684 2.249999046325684 1.499999046325684 L 27.75 1.499999046325684 C 28.01440811157227 1.499999046325684 28.5 2.069489002227783 28.5 2.999999046325684 L 28.5 27 C 28.5 27.93050956726074 28.01440811157227 28.5 27.75 28.5 Z" stroke="none"/><path d="M 2.999998092651367 2.999998092651367 L 2.999998092651367 27 L 27 27 L 27 2.999998092651367 L 2.999998092651367 2.999998092651367 M 2.249998092651367 -1.9073486328125e-06 L 27.75 -1.9073486328125e-06 C 28.99263954162598 -1.9073486328125e-06 30 1.343149185180664 30 2.999998092651367 L 30 27 C 30 28.6568489074707 28.99263954162598 30 27.75 30 L 2.249998092651367 30 C 1.007358551025391 30 -1.9073486328125e-06 28.6568489074707 -1.9073486328125e-06 27 L -1.9073486328125e-06 2.999998092651367 C -1.9073486328125e-06 1.343149185180664 1.007358551025391 -1.9073486328125e-06 2.249998092651367 -1.9073486328125e-06 Z" stroke="none" fill="#212322"/></g><line x2="19.5" y2="19.5" transform="translate(5.5 5)" fill="none" stroke="#fff" stroke-linecap="round" stroke-width="4"/><line x1="19.5" y2="19.5" transform="translate(5.5 5)" fill="none" stroke="#fff" stroke-linecap="round" stroke-width="4"/></svg>