<?xml version="1.0" encoding="UTF-8"?>
<svg width="50px" height="100px" viewBox="0 0 50 100" version="1.1" xmlns="http://www.w3.org/2000/svg" xmlns:xlink="http://www.w3.org/1999/xlink">
    <!-- Generator: Sketch 61.2 (89653) - https://sketch.com -->
    <title>Artboard</title>
    <desc>Created with Sketch.</desc>
    <g id="Page-1" stroke="none" stroke-width="1" fill="none" fill-rule="evenodd">
        <g id="Artboard">
            <g id="waves" transform="translate(7.000000, 14.000000)" fill="#FFFFFF" fill-rule="nonzero">
                <path d="M35.137,18.568 C33.8359007,18.446014 32.5888229,17.9880515 31.518,17.239 C30.618885,16.5888485 29.404115,16.5888485 28.505,17.239 C25.7216469,19.0193855 22.1488242,18.9852465 19.4,17.152 C18.5104438,16.5412901 17.3266759,16.581844 16.481,17.252 C13.7004512,19.0169856 10.1410072,18.977789 7.4,17.152 C6.49770668,16.5468747 5.30788341,16.5937563 4.456,17.268 C3.38856005,18.0103164 2.14457206,18.4586625 0.849,18.568 C0.37318782,18.6071442 0.00512613661,19.0016197 -0.001,19.479 L-0.001,21.352 C0.0056438673,21.6167338 0.121687448,21.8668801 0.319520123,22.0429209 C0.517352798,22.2189616 0.779287039,22.3051576 1.043,22.281 C2.787848,22.1538699 4.4828288,21.6415847 6.006,20.781 C9.75768,22.7742687 14.25432,22.7742687 18.006,20.781 C21.75768,22.7742687 26.25432,22.7742687 30.006,20.781 C31.5280623,21.6289599 33.2143476,22.1404722 34.951,22.281 C35.2155314,22.3066299 35.4788074,22.2211008 35.6777705,22.0448981 C35.8767336,21.8686953 35.9934628,21.6176897 36,21.352 L36,19.514 C35.9976604,19.0239501 35.6247768,18.615204 35.137,18.568 L35.137,18.568 Z M35.137,10.209 C33.8359007,10.087014 32.5888229,9.62905149 31.518,8.88 C30.618885,8.22984849 29.404115,8.22984849 28.505,8.88 C25.7214491,10.660084 22.148625,10.6255526 19.4,8.792 C18.5104438,8.18129007 17.3266759,8.22184395 16.481,8.892 C13.7013981,10.655249 10.144081,10.6160586 7.404,8.792 C6.50170668,8.1868747 5.31188341,8.23375632 4.46,8.908 C3.39256005,9.65031638 2.14857206,10.0986625 0.853,10.208 C0.37718782,10.2471442 0.00912613661,10.6416197 0.003,11.119 L0.003,12.988 C0.0096438673,13.2527338 0.125687448,13.5028801 0.323520123,13.6789209 C0.521352798,13.8549616 0.783287039,13.9411576 1.047,13.917 C2.791848,13.7898699 4.4868288,13.2775847 6.01,12.417 C9.76168,14.4102687 14.25832,14.4102687 18.01,12.417 C21.76168,14.4102687 26.25832,14.4102687 30.01,12.417 C31.5320623,13.2649599 33.2183476,13.7764722 34.955,13.917 C35.2187079,13.9414427 35.4807543,13.8555123 35.6787805,13.6796575 C35.8768067,13.5038026 35.993105,13.2537485 36,12.989 L36,11.152 C35.9966388,10.6627172 35.6240197,10.2551247 35.137,10.208 L35.137,10.209 Z M35.137,1.85 C33.836489,1.72542245 32.5900517,1.26769512 31.518,0.521 C30.618885,-0.129151512 29.404115,-0.129151512 28.505,0.521 C25.7209405,2.30269416 22.146517,2.26855112 19.397,0.434 C18.5074438,-0.176709934 17.3236759,-0.136156048 16.478,0.534 C13.6983981,2.29724901 10.141081,2.25805856 7.401,0.434 C6.49870668,-0.171125303 5.30888341,-0.12424368 4.457,0.55 C3.3897641,1.29302674 2.14576085,1.74206811 0.85,1.852 C0.37418782,1.89114416 0.00612613661,2.28561968 -1.83447008e-16,2.763 L-1.83447008e-16,4.632 C0.0066438673,4.89673378 0.122687448,5.14688011 0.320520123,5.32292087 C0.518352798,5.49896164 0.780287039,5.58515764 1.044,5.561 C2.788848,5.43386988 4.4838288,4.92158473 6.007,4.061 C9.75868,6.05426869 14.25532,6.05426869 18.007,4.061 C21.75868,6.05426869 26.25532,6.05426869 30.007,4.061 C31.5290623,4.90895995 33.2153476,5.42047218 34.952,5.561 C35.2167065,5.58635382 35.4800271,5.50042616 35.678829,5.32381879 C35.8776309,5.14721141 35.9939869,4.89584993 36,4.63 L36,2.796 C35.9976604,2.30595006 35.6247768,1.89720395 35.137,1.85 L35.137,1.85 Z" id="Shape"></path>
            </g>
            <rect id="Rectangle" transform="translate(25.000000, 75.000000) scale(1, -1) translate(-25.000000, -75.000000) " x="0" y="50" width="50" height="50"></rect>
            <g id="Group" transform="translate(13.000000, 62.000000)" stroke="#FFFFFF" stroke-linecap="round" stroke-width="4">
                <line x1="0" y1="0" x2="25" y2="25" id="Path"></line>
                <line x1="25" y1="0" x2="0" y2="25" id="Path"></line>
            </g>
        </g>
    </g>
</svg>