<svg xmlns="http://www.w3.org/2000/svg" width="36" height="22.286" viewBox="0 0 36 22.286"><path d="M35.137,82.616a7.542,7.542,0,0,1-3.619-1.329,2.571,2.571,0,0,0-3.013,0A8.325,8.325,0,0,1,19.4,81.2a2.459,2.459,0,0,0-2.919.1A8.329,8.329,0,0,1,7.4,81.2a2.5,2.5,0,0,0-2.944.116,7.409,7.409,0,0,1-3.607,1.3.926.926,0,0,0-.85.911V85.4a.957.957,0,0,0,1.044.929,11.838,11.838,0,0,0,4.963-1.5,12.788,12.788,0,0,0,12,0,12.788,12.788,0,0,0,12,0,12.179,12.179,0,0,0,4.945,1.5A.957.957,0,0,0,36,85.4V83.562A.955.955,0,0,0,35.137,82.616Zm0-8.359a7.542,7.542,0,0,1-3.619-1.329,2.571,2.571,0,0,0-3.013,0A8.325,8.325,0,0,1,19.4,72.84a2.459,2.459,0,0,0-2.919.1,8.329,8.329,0,0,1-9.077-.1,2.5,2.5,0,0,0-2.944.116,7.409,7.409,0,0,1-3.607,1.3.926.926,0,0,0-.85.911v1.869a.957.957,0,0,0,1.044.929,11.838,11.838,0,0,0,4.963-1.5,12.788,12.788,0,0,0,12,0,12.788,12.788,0,0,0,12,0,12.179,12.179,0,0,0,4.945,1.5A.957.957,0,0,0,36,77.037V75.2A.955.955,0,0,0,35.137,74.256Zm0-8.359a7.6,7.6,0,0,1-3.619-1.329,2.571,2.571,0,0,0-3.013,0,8.325,8.325,0,0,1-9.108-.087,2.459,2.459,0,0,0-2.919.1,8.329,8.329,0,0,1-9.077-.1,2.5,2.5,0,0,0-2.944.116A7.409,7.409,0,0,1,.85,65.9a.926.926,0,0,0-.85.911v1.869a.957.957,0,0,0,1.044.929,11.838,11.838,0,0,0,4.963-1.5,12.788,12.788,0,0,0,12,0,12.788,12.788,0,0,0,12,0,12.179,12.179,0,0,0,4.945,1.5A.957.957,0,0,0,36,68.678V66.844a.955.955,0,0,0-.863-.946Z" transform="translate(0 -64.048)" fill="#fff"/></svg>